SplineFontDB: 2.0
FontName: DejaVuSansCondensed
FullName: DejaVu Sans Condensed
FamilyName: DejaVu Sans Condensed
Weight: Book
Copyright: Copyright (c) 2003 by Bitstream, Inc. All Rights Reserved.\nCopyright (c) 2006 by Tavmjong Bah. All Rights Reserved.\nDejaVu changes are in public domain\n
Version: 2.23
ItalicAngle: 0
UnderlinePosition: -85
UnderlineWidth: 90
Ascent: 1556
Descent: 492
Order2: 1
NeedsXUIDChange: 1
FSType: 0
OS2Version: 0
OS2_WeightWidthSlopeOnly: 0
OS2_UseTypoMetrics: 0
PfmFamily: 17
TTFWeight: 400
TTFWidth: 4
LineGap: 0
VLineGap: 0
Panose: 2 11 6 6 3 8 4 2 2 4
OS2TypoAscent: 1556
OS2TypoAOffset: 0
OS2TypoDescent: -492
OS2TypoDOffset: 0
OS2TypoLinegap: 410
OS2WinAscent: 1901
OS2WinAOffset: 0
OS2WinDescent: 483
OS2WinDOffset: 0
HheadAscent: 1901
HheadAOffset: 0
HheadDescent: -483
HheadDOffset: 0
OS2Vendor: 'PfEd'
Lookup: 6 1 0 "'ccmp' in RTL"  {"'ccmp' in RTL"  } ['ccmp' ('arab' <'KUR ' 'SND ' 'URD ' 'dflt' > 'hebr' <'dflt' > 'nko ' <'dflt' > ) ]
Lookup: 6 0 0 "'ccmp' in Basic"  {"'ccmp' in Basic"  } ['ccmp' ('cyrl' <'MKD ' 'SRB ' 'dflt' > 'grek' <'dflt' > 'latn' <'ISM ' 'KSM ' 'LSM ' 'NSM ' 'SKS ' 'SSM ' 'dflt' > ) ]
Lookup: 4 1 0 "'ccmp' Glyph Composition/Decomposition in Hebrew lookup 2"  {"'ccmp' Glyph Composition/Decomposition in Hebrew lookup 2"  } ['ccmp' ('hebr' <'dflt' > ) ]
Lookup: 1 0 0 "'locl' Localized Forms in Cyrillic lookup 3"  {"'locl' Localized Forms in Cyrillic lookup 3"  } ['locl' ('cyrl' <'MKD ' 'SRB ' > ) ]
Lookup: 1 0 0 "'locl' Localized Forms in Latin lookup 4"  {"'locl' Localized Forms in Latin lookup 4"  } ['locl' ('latn' <'ISM ' 'KSM ' 'LSM ' 'NSM ' 'SKS ' 'SSM ' > ) ]
Lookup: 1 9 0 "'fina' Terminal Forms in N'Ko lookup 5"  {"'fina' Terminal Forms in N'Ko lookup 5"  } ['fina' ('nko ' <'dflt' > ) ]
Lookup: 1 9 0 "'fina' Terminal Forms in Arabic lookup 5"  {"'fina' Terminal Forms in Arabic lookup 5"  } ['fina' ('arab' <'KUR ' 'SND ' 'URD ' 'dflt' > ) ]

StartChar: .notdef
Encoding: 0 -1 0
AltUni2: 000000.ffffffff.0
Width: 1106
Flags: W
Fore
91.7998 -362 m 1,0,-1
 91.7998 1444 l 1,1,-1
 1013.4 1444 l 1,2,-1
 1013.4 -362 l 1,3,-1
 91.7998 -362 l 1,0,-1
195.3 -248 m 1,4,-1
 910.8 -248 l 1,5,-1
 910.8 1329 l 1,6,-1
 195.3 1329 l 1,7,-1
 195.3 -248 l 1,4,-1
EndSplineSet
EndChar
StartChar: exclam
Encoding: 33 33 33
Width: 738
Flags: W
Fore
278.1 254 m 1,0,-1
 460.8 254 l 1,1,-1
 460.8 0 l 1,2,-1
 278.1 0 l 1,3,-1
 278.1 254 l 1,0,-1
278.1 1493 m 1,4,-1
 460.8 1493 l 1,5,-1
 460.8 838 l 1,6,-1
 442.8 481 l 1,7,-1
 297 481 l 1,8,-1
 278.1 838 l 1,9,-1
 278.1 1493 l 1,4,-1
EndSplineSet
EndChar
StartChar: quotedbl
Encoding: 34 34 34
Width: 847
Flags: W
Fore
330.3 1493 m 1,0,-1
 330.3 938 l 1,1,-1
 177.3 938 l 1,2,-1
 177.3 1493 l 1,3,-1
 330.3 1493 l 1,0,-1
670.5 1493 m 1,4,-1
 670.5 938 l 1,5,-1
 517.5 938 l 1,6,-1
 517.5 1493 l 1,7,-1
 670.5 1493 l 1,4,-1
EndSplineSet
EndChar
StartChar: numbersign
Encoding: 35 35 35
Width: 1544
Flags: W
Fore
942.3 901 m 1,0,-1
 680.4 901 l 1,1,-1
 604.8 567 l 1,2,-1
 868.5 567 l 1,3,-1
 942.3 901 l 1,0,-1
807.3 1470 m 1,4,-1
 713.7 1055 l 1,5,-1
 976.5 1055 l 1,6,-1
 1071 1470 l 1,7,-1
 1215 1470 l 1,8,-1
 1122.3 1055 l 1,9,-1
 1403.1 1055 l 1,10,-1
 1403.1 901 l 1,11,-1
 1087.2 901 l 1,12,-1
 1013.4 567 l 1,13,-1
 1299.6 567 l 1,14,-1
 1299.6 414 l 1,15,-1
 978.3 414 l 1,16,-1
 884.7 0 l 1,17,-1
 740.7 0 l 1,18,-1
 833.4 414 l 1,19,-1
 569.7 414 l 1,20,-1
 477 0 l 1,21,-1
 332.1 0 l 1,22,-1
 425.7 414 l 1,23,-1
 142.2 414 l 1,24,-1
 142.2 567 l 1,25,-1
 459 567 l 1,26,-1
 534.6 901 l 1,27,-1
 244.8 901 l 1,28,-1
 244.8 1055 l 1,29,-1
 569.7 1055 l 1,30,-1
 661.5 1470 l 1,31,-1
 807.3 1470 l 1,4,-1
EndSplineSet
EndChar
StartChar: dollar
Encoding: 36 36 36
Width: 1172
Flags: W
Fore
622.8 -301 m 1,0,-1
 532.8 -301 l 1,1,-1
 531.9 0 l 1,2,3
 437.4 2 437.4 2 342.9 24.5 c 128,-1,4
 248.4 47 248.4 47 153 92 c 1,5,-1
 153 272 l 1,6,7
 244.8 208 244.8 208 338.85 175.5 c 128,-1,8
 432.9 143 432.9 143 532.8 142 c 1,9,-1
 532.8 598 l 1,10,11
 333.9 634 333.9 634 243.45 720 c 128,-1,12
 153 806 153 806 153 956 c 0,13,14
 153 1119 153 1119 251.1 1213 c 128,-1,15
 349.2 1307 349.2 1307 532.8 1321 c 1,16,-1
 532.8 1556 l 1,17,-1
 622.8 1556 l 1,18,-1
 622.8 1324 l 1,19,20
 706.5 1320 706.5 1320 784.8 1304.5 c 128,-1,21
 863.1 1289 863.1 1289 937.8 1262 c 1,22,-1
 937.8 1087 l 1,23,24
 863.1 1129 863.1 1129 784.35 1152 c 128,-1,25
 705.6 1175 705.6 1175 622.8 1179 c 1,26,-1
 622.8 752 l 1,27,28
 827.1 717 827.1 717 923.4 627 c 128,-1,29
 1019.7 537 1019.7 537 1019.7 381 c 0,30,31
 1019.7 212 1019.7 212 917.55 114.5 c 128,-1,32
 815.4 17 815.4 17 622.8 2 c 1,33,-1
 622.8 -301 l 1,0,-1
532.8 770 m 1,34,-1
 532.8 1180 l 1,35,36
 428.4 1167 428.4 1167 373.5 1114 c 128,-1,37
 318.6 1061 318.6 1061 318.6 973 c 0,38,39
 318.6 887 318.6 887 369.45 839 c 128,-1,40
 420.3 791 420.3 791 532.8 770 c 1,34,-1
622.8 578 m 1,41,-1
 622.8 145 l 1,42,43
 737.1 162 737.1 162 795.15 217 c 128,-1,44
 853.2 272 853.2 272 853.2 362 c 0,45,46
 853.2 450 853.2 450 797.85 502 c 128,-1,47
 742.5 554 742.5 554 622.8 578 c 1,41,-1
EndSplineSet
EndChar
StartChar: percent
Encoding: 37 37 37
Width: 1751
Flags: W
Fore
1340.1 657 m 0,0,1
 1261.8 657 1261.8 657 1217.25 583 c 128,-1,2
 1172.7 509 1172.7 509 1172.7 377 c 0,3,4
 1172.7 247 1172.7 247 1217.25 172.5 c 128,-1,5
 1261.8 98 1261.8 98 1340.1 98 c 0,6,7
 1416.6 98 1416.6 98 1461.15 172.5 c 128,-1,8
 1505.7 247 1505.7 247 1505.7 377 c 0,9,10
 1505.7 508 1505.7 508 1461.15 582.5 c 128,-1,11
 1416.6 657 1416.6 657 1340.1 657 c 0,0,1
1340.1 784 m 0,12,13
 1482.3 784 1482.3 784 1566 674 c 128,-1,14
 1649.7 564 1649.7 564 1649.7 377 c 0,15,16
 1649.7 190 1649.7 190 1565.55 80.5 c 128,-1,17
 1481.4 -29 1481.4 -29 1340.1 -29 c 0,18,19
 1196.1 -29 1196.1 -29 1112.4 80.5 c 128,-1,20
 1028.7 190 1028.7 190 1028.7 377 c 0,21,22
 1028.7 565 1028.7 565 1112.85 674.5 c 128,-1,23
 1197 784 1197 784 1340.1 784 c 0,12,13
411.3 1393 m 0,24,25
 333.9 1393 333.9 1393 289.35 1318.5 c 128,-1,26
 244.8 1244 244.8 1244 244.8 1114 c 0,27,28
 244.8 982 244.8 982 288.9 908 c 128,-1,29
 333 834 333 834 411.3 834 c 0,30,31
 489.6 834 489.6 834 534.15 908 c 128,-1,32
 578.7 982 578.7 982 578.7 1114 c 0,33,34
 578.7 1243 578.7 1243 533.7 1318 c 128,-1,35
 488.7 1393 488.7 1393 411.3 1393 c 0,24,25
1224 1520 m 1,36,-1
 1368 1520 l 1,37,-1
 527.4 -29 l 1,38,-1
 383.4 -29 l 1,39,-1
 1224 1520 l 1,36,-1
411.3 1520 m 0,40,41
 553.5 1520 553.5 1520 638.1 1410.5 c 128,-1,42
 722.7 1301 722.7 1301 722.7 1114 c 0,43,44
 722.7 925 722.7 925 638.55 816 c 128,-1,45
 554.4 707 554.4 707 411.3 707 c 0,46,47
 268.2 707 268.2 707 184.95 816.5 c 128,-1,48
 101.7 926 101.7 926 101.7 1114 c 0,49,50
 101.7 1300 101.7 1300 185.4 1410 c 128,-1,51
 269.1 1520 269.1 1520 411.3 1520 c 0,40,41
EndSplineSet
EndChar
StartChar: ampersand
Encoding: 38 38 38
Width: 1437
Flags: W
Fore
448.2 803 m 1,0,1
 366.3 722 366.3 722 328.05 641.5 c 128,-1,2
 289.8 561 289.8 561 289.8 473 c 0,3,4
 289.8 327 289.8 327 385.2 230 c 128,-1,5
 480.6 133 480.6 133 624.6 133 c 0,6,7
 710.1 133 710.1 133 784.8 164.5 c 128,-1,8
 859.5 196 859.5 196 925.2 260 c 1,9,-1
 448.2 803 l 1,0,1
575.1 915 m 2,10,-1
 1032.3 395 l 1,11,12
 1085.4 484 1085.4 484 1115.1 585.5 c 128,-1,13
 1144.8 687 1144.8 687 1150.2 801 c 1,14,-1
 1317.6 801 l 1,15,16
 1306.8 669 1306.8 669 1260 540 c 128,-1,17
 1213.2 411 1213.2 411 1129.5 285 c 1,18,-1
 1380.6 0 l 1,19,-1
 1153.8 0 l 1,20,-1
 1025.1 147 l 1,21,22
 931.5 58 931.5 58 828.9 14.5 c 128,-1,23
 726.3 -29 726.3 -29 608.4 -29 c 0,24,25
 391.5 -29 391.5 -29 253.8 108.5 c 128,-1,26
 116.1 246 116.1 246 116.1 461 c 0,27,28
 116.1 589 116.1 589 176.4 701.5 c 128,-1,29
 236.7 814 236.7 814 357.3 913 c 1,30,31
 314.1 976 314.1 976 291.6 1038.5 c 128,-1,32
 269.1 1101 269.1 1101 269.1 1161 c 0,33,34
 269.1 1323 269.1 1323 369 1421.5 c 128,-1,35
 468.9 1520 468.9 1520 634.5 1520 c 0,36,37
 709.2 1520 709.2 1520 783.45 1502 c 128,-1,38
 857.7 1484 857.7 1484 934.2 1448 c 1,39,-1
 934.2 1266 l 1,40,41
 855.9 1313 855.9 1313 784.8 1337.5 c 128,-1,42
 713.7 1362 713.7 1362 652.5 1362 c 0,43,44
 558 1362 558 1362 499.05 1306.5 c 128,-1,45
 440.1 1251 440.1 1251 440.1 1163 c 0,46,47
 440.1 1112 440.1 1112 466.65 1060.5 c 128,-1,48
 493.2 1009 493.2 1009 575.1 915 c 2,10,-1
EndSplineSet
EndChar
StartChar: quotesingle
Encoding: 39 39 39
Width: 506
Flags: W
Fore
330.3 1493 m 1,0,-1
 330.3 938 l 1,1,-1
 177.3 938 l 1,2,-1
 177.3 1493 l 1,3,-1
 330.3 1493 l 1,0,-1
EndSplineSet
EndChar
StartChar: parenleft
Encoding: 40 40 40
Width: 719
Flags: W
Fore
571.5 1554 m 1,0,1
 450.9 1324 450.9 1324 392.4 1099 c 128,-1,2
 333.9 874 333.9 874 333.9 643 c 0,3,4
 333.9 412 333.9 412 392.85 185.5 c 128,-1,5
 451.8 -41 451.8 -41 571.5 -270 c 1,6,-1
 427.5 -270 l 1,7,8
 292.5 -35 292.5 -35 225.45 192 c 128,-1,9
 158.4 419 158.4 419 158.4 643 c 0,10,11
 158.4 866 158.4 866 225 1092 c 128,-1,12
 291.6 1318 291.6 1318 427.5 1554 c 1,13,-1
 571.5 1554 l 1,0,1
EndSplineSet
EndChar
StartChar: parenright
Encoding: 41 41 41
Width: 719
Flags: W
Fore
147.6 1554 m 1,0,-1
 291.6 1554 l 1,1,2
 426.6 1318 426.6 1318 493.65 1092 c 128,-1,3
 560.7 866 560.7 866 560.7 643 c 0,4,5
 560.7 419 560.7 419 493.65 192 c 128,-1,6
 426.6 -35 426.6 -35 291.6 -270 c 1,7,-1
 147.6 -270 l 1,8,9
 267.3 -41 267.3 -41 326.25 185.5 c 128,-1,10
 385.2 412 385.2 412 385.2 643 c 0,11,12
 385.2 874 385.2 874 326.25 1099 c 128,-1,13
 267.3 1324 267.3 1324 147.6 1554 c 1,0,-1
EndSplineSet
EndChar
StartChar: asterisk
Encoding: 42 42 42
Width: 921
Flags: W
Fore
866.7 1247 m 1,0,-1
 543.6 1053 l 1,1,-1
 866.7 858 l 1,2,-1
 814.5 760 l 1,3,-1
 512.1 963 l 1,4,-1
 512.1 586 l 1,5,-1
 409.5 586 l 1,6,-1
 409.5 963 l 1,7,-1
 107.1 760 l 1,8,-1
 54.9004 858 l 1,9,-1
 378 1053 l 1,10,-1
 54.9004 1247 l 1,11,-1
 107.1 1346 l 1,12,-1
 409.5 1143 l 1,13,-1
 409.5 1520 l 1,14,-1
 512.1 1520 l 1,15,-1
 512.1 1143 l 1,16,-1
 814.5 1346 l 1,17,-1
 866.7 1247 l 1,0,-1
EndSplineSet
EndChar
StartChar: plus
Encoding: 43 43 43
Width: 1544
Flags: W
Fore
847.8 1284 m 1,0,-1
 847.8 727 l 1,1,-1
 1349.1 727 l 1,2,-1
 1349.1 557 l 1,3,-1
 847.8 557 l 1,4,-1
 847.8 0 l 1,5,-1
 696.6 0 l 1,6,-1
 696.6 557 l 1,7,-1
 195.3 557 l 1,8,-1
 195.3 727 l 1,9,-1
 696.6 727 l 1,10,-1
 696.6 1284 l 1,11,-1
 847.8 1284 l 1,0,-1
EndSplineSet
EndChar
StartChar: comma
Encoding: 44 44 44
Width: 585
Flags: W
Fore
216 254 m 1,0,-1
 405.9 254 l 1,1,-1
 405.9 82 l 1,2,-1
 258.3 -238 l 1,3,-1
 142.2 -238 l 1,4,-1
 216 82 l 1,5,-1
 216 254 l 1,0,-1
EndSplineSet
EndChar
StartChar: hyphen
Encoding: 45 45 45
Width: 665
Flags: W
Fore
90 643 m 1,0,-1
 575.1 643 l 1,1,-1
 575.1 479 l 1,2,-1
 90 479 l 1,3,-1
 90 643 l 1,0,-1
EndSplineSet
EndChar
StartChar: period
Encoding: 46 46 46
Width: 585
Flags: W
Fore
197.1 254 m 1,0,-1
 387 254 l 1,1,-1
 387 0 l 1,2,-1
 197.1 0 l 1,3,-1
 197.1 254 l 1,0,-1
EndSplineSet
EndChar
StartChar: slash
Encoding: 47 47 47
Width: 621
Flags: W
Fore
468 1493 m 1,0,-1
 621 1493 l 1,1,-1
 153 -190 l 1,2,-1
 0 -190 l 1,3,-1
 468 1493 l 1,0,-1
EndSplineSet
EndChar
StartChar: zero
Encoding: 48 48 48
Width: 1172
Flags: W
AnchorPoint: "below" 585.9 0 basechar 0
AnchorPoint: "above" 585.9 1520 basechar 0
Fore
585.9 1360 m 0,0,1
 445.5 1360 445.5 1360 374.85 1206.5 c 128,-1,2
 304.2 1053 304.2 1053 304.2 745 c 0,3,4
 304.2 438 304.2 438 374.85 284.5 c 128,-1,5
 445.5 131 445.5 131 585.9 131 c 0,6,7
 727.2 131 727.2 131 797.85 284.5 c 128,-1,8
 868.5 438 868.5 438 868.5 745 c 0,9,10
 868.5 1053 868.5 1053 797.85 1206.5 c 128,-1,11
 727.2 1360 727.2 1360 585.9 1360 c 0,0,1
585.9 1520 m 0,12,13
 811.8 1520 811.8 1520 931.05 1321.5 c 128,-1,14
 1050.3 1123 1050.3 1123 1050.3 745 c 0,15,16
 1050.3 368 1050.3 368 931.05 169.5 c 128,-1,17
 811.8 -29 811.8 -29 585.9 -29 c 0,18,19
 360 -29 360 -29 240.75 169.5 c 128,-1,20
 121.5 368 121.5 368 121.5 745 c 0,21,22
 121.5 1123 121.5 1123 240.75 1321.5 c 128,-1,23
 360 1520 360 1520 585.9 1520 c 0,12,13
EndSplineSet
EndChar
StartChar: one
Encoding: 49 49 49
Width: 1172
Flags: W
AnchorPoint: "below" 585.9 0 basechar 0
AnchorPoint: "above" 585.9 1520 basechar 0
Fore
228.6 170 m 1,0,-1
 525.6 170 l 1,1,-1
 525.6 1309 l 1,2,-1
 202.5 1237 l 1,3,-1
 202.5 1421 l 1,4,-1
 523.8 1493 l 1,5,-1
 705.6 1493 l 1,6,-1
 705.6 170 l 1,7,-1
 1002.6 170 l 1,8,-1
 1002.6 0 l 1,9,-1
 228.6 0 l 1,10,-1
 228.6 170 l 1,0,-1
EndSplineSet
EndChar
StartChar: two
Encoding: 50 50 50
Width: 1172
Flags: W
AnchorPoint: "below" 585.9 0 basechar 0
AnchorPoint: "above" 585.9 1520 basechar 0
Fore
353.7 170 m 1,0,-1
 988.2 170 l 1,1,-1
 988.2 0 l 1,2,-1
 135 0 l 1,3,-1
 135 170 l 1,4,5
 238.5 289 238.5 289 417.15 489.5 c 128,-1,6
 595.8 690 595.8 690 641.7 748 c 0,7,8
 729 857 729 857 763.65 932.5 c 128,-1,9
 798.3 1008 798.3 1008 798.3 1081 c 0,10,11
 798.3 1200 798.3 1200 723.15 1275 c 128,-1,12
 648 1350 648 1350 527.4 1350 c 0,13,14
 441.9 1350 441.9 1350 346.95 1317 c 128,-1,15
 252 1284 252 1284 144 1217 c 1,16,-1
 144 1421 l 1,17,18
 253.8 1470 253.8 1470 349.2 1495 c 128,-1,19
 444.6 1520 444.6 1520 523.8 1520 c 0,20,21
 732.6 1520 732.6 1520 856.8 1404 c 128,-1,22
 981 1288 981 1288 981 1094 c 0,23,24
 981 1002 981 1002 949.95 919.5 c 128,-1,25
 918.9 837 918.9 837 837 725 c 1,26,27
 814.5 696 814.5 696 693.9 557.5 c 128,-1,28
 573.3 419 573.3 419 353.7 170 c 1,0,-1
EndSplineSet
EndChar
StartChar: three
Encoding: 51 51 51
Width: 1172
Flags: W
AnchorPoint: "below" 585.9 0 basechar 0
AnchorPoint: "above" 585.9 1520 basechar 0
Fore
747.9 805 m 1,0,1
 878.4 774 878.4 774 951.75 676 c 128,-1,2
 1025.1 578 1025.1 578 1025.1 434 c 0,3,4
 1025.1 213 1025.1 213 888.3 92 c 128,-1,5
 751.5 -29 751.5 -29 499.5 -29 c 0,6,7
 414.9 -29 414.9 -29 325.35 -10.5 c 128,-1,8
 235.8 8 235.8 8 140.4 45 c 1,9,-1
 140.4 240 l 1,10,11
 216 191 216 191 306 166 c 128,-1,12
 396 141 396 141 494.1 141 c 0,13,14
 665.1 141 665.1 141 754.65 216 c 128,-1,15
 844.2 291 844.2 291 844.2 434 c 0,16,17
 844.2 566 844.2 566 760.95 640.5 c 128,-1,18
 677.7 715 677.7 715 529.2 715 c 2,19,-1
 372.6 715 l 1,20,-1
 372.6 881 l 1,21,-1
 536.4 881 l 2,22,23
 670.5 881 670.5 881 741.6 940.5 c 128,-1,24
 812.7 1000 812.7 1000 812.7 1112 c 0,25,26
 812.7 1227 812.7 1227 739.35 1288.5 c 128,-1,27
 666 1350 666 1350 529.2 1350 c 0,28,29
 454.5 1350 454.5 1350 369 1332 c 128,-1,30
 283.5 1314 283.5 1314 180.9 1276 c 1,31,-1
 180.9 1456 l 1,32,33
 284.4 1488 284.4 1488 374.85 1504 c 128,-1,34
 465.3 1520 465.3 1520 545.4 1520 c 0,35,36
 752.4 1520 752.4 1520 873 1415.5 c 128,-1,37
 993.6 1311 993.6 1311 993.6 1133 c 0,38,39
 993.6 1009 993.6 1009 929.7 923.5 c 128,-1,40
 865.8 838 865.8 838 747.9 805 c 1,0,1
EndSplineSet
EndChar
StartChar: four
Encoding: 52 52 52
Width: 1172
Flags: W
AnchorPoint: "below" 585.9 0 basechar 0
AnchorPoint: "above" 585.9 1520 basechar 0
Fore
696.6 1317 m 1,0,-1
 237.6 520 l 1,1,-1
 696.6 520 l 1,2,-1
 696.6 1317 l 1,0,-1
648.9 1493 m 1,3,-1
 877.5 1493 l 1,4,-1
 877.5 520 l 1,5,-1
 1069.2 520 l 1,6,-1
 1069.2 352 l 1,7,-1
 877.5 352 l 1,8,-1
 877.5 0 l 1,9,-1
 696.6 0 l 1,10,-1
 696.6 352 l 1,11,-1
 90 352 l 1,12,-1
 90 547 l 1,13,-1
 648.9 1493 l 1,3,-1
EndSplineSet
EndChar
StartChar: five
Encoding: 53 53 53
Width: 1172
Flags: W
AnchorPoint: "below" 585.9 0 basechar 0
AnchorPoint: "above" 585.9 1520 basechar 0
Fore
198.9 1493 m 1,0,-1
 912.6 1493 l 1,1,-1
 912.6 1323 l 1,2,-1
 365.4 1323 l 1,3,-1
 365.4 957 l 1,4,5
 405 972 405 972 444.6 979.5 c 128,-1,6
 484.2 987 484.2 987 523.8 987 c 0,7,8
 748.8 987 748.8 987 880.2 850 c 128,-1,9
 1011.6 713 1011.6 713 1011.6 479 c 0,10,11
 1011.6 238 1011.6 238 876.6 104.5 c 128,-1,12
 741.6 -29 741.6 -29 495.9 -29 c 0,13,14
 411.3 -29 411.3 -29 323.55 -13 c 128,-1,15
 235.8 3 235.8 3 142.2 35 c 1,16,-1
 142.2 238 l 1,17,18
 223.2 189 223.2 189 309.6 165 c 128,-1,19
 396 141 396 141 492.3 141 c 0,20,21
 648 141 648 141 738.9 232 c 128,-1,22
 829.8 323 829.8 323 829.8 479 c 0,23,24
 829.8 635 829.8 635 738.9 726 c 128,-1,25
 648 817 648 817 492.3 817 c 0,26,27
 419.4 817 419.4 817 346.95 799 c 128,-1,28
 274.5 781 274.5 781 198.9 743 c 1,29,-1
 198.9 1493 l 1,0,-1
EndSplineSet
EndChar
StartChar: six
Encoding: 54 54 54
Width: 1172
Flags: W
AnchorPoint: "below" 585.9 0 basechar 0
AnchorPoint: "above" 585.9 1520 basechar 0
Fore
608.4 827 m 0,0,1
 486 827 486 827 414.45 734 c 128,-1,2
 342.9 641 342.9 641 342.9 479 c 0,3,4
 342.9 318 342.9 318 414.45 224.5 c 128,-1,5
 486 131 486 131 608.4 131 c 0,6,7
 730.8 131 730.8 131 802.35 224.5 c 128,-1,8
 873.9 318 873.9 318 873.9 479 c 0,9,10
 873.9 641 873.9 641 802.35 734 c 128,-1,11
 730.8 827 730.8 827 608.4 827 c 0,0,1
969.3 1460 m 1,12,-1
 969.3 1276 l 1,13,14
 900.9 1312 900.9 1312 831.15 1331 c 128,-1,15
 761.4 1350 761.4 1350 693 1350 c 0,16,17
 513 1350 513 1350 418.05 1215 c 128,-1,18
 323.1 1080 323.1 1080 309.6 807 c 1,19,20
 362.7 894 362.7 894 442.8 940.5 c 128,-1,21
 522.9 987 522.9 987 619.2 987 c 0,22,23
 821.7 987 821.7 987 939.15 850.5 c 128,-1,24
 1056.6 714 1056.6 714 1056.6 479 c 0,25,26
 1056.6 249 1056.6 249 934.2 110 c 128,-1,27
 811.8 -29 811.8 -29 608.4 -29 c 0,28,29
 375.3 -29 375.3 -29 252 169.5 c 128,-1,30
 128.7 368 128.7 368 128.7 745 c 0,31,32
 128.7 1099 128.7 1099 279.9 1309.5 c 128,-1,33
 431.1 1520 431.1 1520 685.8 1520 c 0,34,35
 754.2 1520 754.2 1520 823.95 1505 c 128,-1,36
 893.7 1490 893.7 1490 969.3 1460 c 1,12,-1
EndSplineSet
EndChar
StartChar: seven
Encoding: 55 55 55
Width: 1172
Flags: W
AnchorPoint: "below" 585.9 0 basechar 0
AnchorPoint: "above" 585.9 1520 basechar 0
Fore
151.2 1493 m 1,0,-1
 1015.2 1493 l 1,1,-1
 1015.2 1407 l 1,2,-1
 527.4 0 l 1,3,-1
 337.5 0 l 1,4,-1
 796.5 1323 l 1,5,-1
 151.2 1323 l 1,6,-1
 151.2 1493 l 1,0,-1
EndSplineSet
EndChar
StartChar: eight
Encoding: 56 56 56
Width: 1172
Flags: W
AnchorPoint: "below" 585.9 0 basechar 0
AnchorPoint: "above" 585.9 1520 basechar 0
Fore
585.9 709 m 0,0,1
 456.3 709 456.3 709 382.05 632 c 128,-1,2
 307.8 555 307.8 555 307.8 420 c 0,3,4
 307.8 285 307.8 285 382.05 208 c 128,-1,5
 456.3 131 456.3 131 585.9 131 c 0,6,7
 715.5 131 715.5 131 790.2 208.5 c 128,-1,8
 864.9 286 864.9 286 864.9 420 c 0,9,10
 864.9 555 864.9 555 790.65 632 c 128,-1,11
 716.4 709 716.4 709 585.9 709 c 0,0,1
404.1 795 m 1,12,13
 287.1 827 287.1 827 221.85 916 c 128,-1,14
 156.6 1005 156.6 1005 156.6 1133 c 0,15,16
 156.6 1312 156.6 1312 271.35 1416 c 128,-1,17
 386.1 1520 386.1 1520 585.9 1520 c 0,18,19
 786.6 1520 786.6 1520 900.9 1416 c 128,-1,20
 1015.2 1312 1015.2 1312 1015.2 1133 c 0,21,22
 1015.2 1005 1015.2 1005 949.95 916 c 128,-1,23
 884.7 827 884.7 827 768.6 795 c 1,24,25
 900 761 900 761 973.35 662 c 128,-1,26
 1046.7 563 1046.7 563 1046.7 420 c 0,27,28
 1046.7 203 1046.7 203 927.45 87 c 128,-1,29
 808.2 -29 808.2 -29 585.9 -29 c 0,30,31
 363.6 -29 363.6 -29 244.35 87 c 128,-1,32
 125.1 203 125.1 203 125.1 420 c 0,33,34
 125.1 563 125.1 563 198.9 662 c 128,-1,35
 272.7 761 272.7 761 404.1 795 c 1,12,13
337.5 1114 m 0,36,37
 337.5 998 337.5 998 402.75 933 c 128,-1,38
 468 868 468 868 585.9 868 c 0,39,40
 702.9 868 702.9 868 769.05 933 c 128,-1,41
 835.2 998 835.2 998 835.2 1114 c 0,42,43
 835.2 1230 835.2 1230 769.05 1295 c 128,-1,44
 702.9 1360 702.9 1360 585.9 1360 c 0,45,46
 468 1360 468 1360 402.75 1295 c 128,-1,47
 337.5 1230 337.5 1230 337.5 1114 c 0,36,37
EndSplineSet
EndChar
StartChar: nine
Encoding: 57 57 57
Width: 1172
Flags: W
AnchorPoint: "below" 585.9 0 basechar 0
AnchorPoint: "above" 585.9 1520 basechar 0
Fore
202.5 31 m 1,0,-1
 202.5 215 l 1,1,2
 270.9 179 270.9 179 341.1 160 c 128,-1,3
 411.3 141 411.3 141 478.8 141 c 0,4,5
 658.8 141 658.8 141 753.75 275.5 c 128,-1,6
 848.7 410 848.7 410 862.2 684 c 1,7,8
 810 598 810 598 729.9 552 c 128,-1,9
 649.8 506 649.8 506 552.6 506 c 0,10,11
 351 506 351 506 233.55 641.5 c 128,-1,12
 116.1 777 116.1 777 116.1 1012 c 0,13,14
 116.1 1242 116.1 1242 238.5 1381 c 128,-1,15
 360.9 1520 360.9 1520 564.3 1520 c 0,16,17
 797.4 1520 797.4 1520 920.25 1321.5 c 128,-1,18
 1043.1 1123 1043.1 1123 1043.1 745 c 0,19,20
 1043.1 392 1043.1 392 892.35 181.5 c 128,-1,21
 741.6 -29 741.6 -29 486.9 -29 c 0,22,23
 418.5 -29 418.5 -29 348.3 -14 c 128,-1,24
 278.1 1 278.1 1 202.5 31 c 1,0,-1
564.3 664 m 0,25,26
 686.7 664 686.7 664 758.25 757 c 128,-1,27
 829.8 850 829.8 850 829.8 1012 c 0,28,29
 829.8 1173 829.8 1173 758.25 1266.5 c 128,-1,30
 686.7 1360 686.7 1360 564.3 1360 c 0,31,32
 441.9 1360 441.9 1360 370.35 1266.5 c 128,-1,33
 298.8 1173 298.8 1173 298.8 1012 c 0,34,35
 298.8 850 298.8 850 370.35 757 c 128,-1,36
 441.9 664 441.9 664 564.3 664 c 0,25,26
EndSplineSet
EndChar
StartChar: colon
Encoding: 58 58 58
Width: 621
Flags: W
Fore
216 254 m 1,0,-1
 405.9 254 l 1,1,-1
 405.9 0 l 1,2,-1
 216 0 l 1,3,-1
 216 254 l 1,0,-1
216 1059 m 1,4,-1
 405.9 1059 l 1,5,-1
 405.9 805 l 1,6,-1
 216 805 l 1,7,-1
 216 1059 l 1,4,-1
EndSplineSet
EndChar
StartChar: semicolon
Encoding: 59 59 59
Width: 621
Flags: W
Fore
216 1059 m 1,0,-1
 405.9 1059 l 1,1,-1
 405.9 805 l 1,2,-1
 216 805 l 1,3,-1
 216 1059 l 1,0,-1
216 254 m 1,4,-1
 405.9 254 l 1,5,-1
 405.9 82 l 1,6,-1
 258.3 -238 l 1,7,-1
 142.2 -238 l 1,8,-1
 216 82 l 1,9,-1
 216 254 l 1,4,-1
EndSplineSet
EndChar
StartChar: less
Encoding: 60 60 60
Width: 1544
Flags: W
Fore
1349.1 1008 m 1,0,-1
 420.3 641 l 1,1,-1
 1349.1 276 l 1,2,-1
 1349.1 94 l 1,3,-1
 195.3 559 l 1,4,-1
 195.3 725 l 1,5,-1
 1349.1 1190 l 1,6,-1
 1349.1 1008 l 1,0,-1
EndSplineSet
EndChar
StartChar: equal
Encoding: 61 61 61
Width: 1544
Flags: W
Fore
195.3 930 m 1,0,-1
 1349.1 930 l 1,1,-1
 1349.1 762 l 1,2,-1
 195.3 762 l 1,3,-1
 195.3 930 l 1,0,-1
195.3 522 m 1,4,-1
 1349.1 522 l 1,5,-1
 1349.1 352 l 1,6,-1
 195.3 352 l 1,7,-1
 195.3 522 l 1,4,-1
EndSplineSet
EndChar
StartChar: greater
Encoding: 62 62 62
Width: 1544
Flags: W
Fore
195.3 1008 m 1,0,-1
 195.3 1190 l 1,1,-1
 1349.1 725 l 1,2,-1
 1349.1 559 l 1,3,-1
 195.3 94 l 1,4,-1
 195.3 276 l 1,5,-1
 1122.3 641 l 1,6,-1
 195.3 1008 l 1,0,-1
EndSplineSet
EndChar
StartChar: question
Encoding: 63 63 63
Width: 978
Flags: W
Fore
351.9 254 m 1,0,-1
 534.6 254 l 1,1,-1
 534.6 0 l 1,2,-1
 351.9 0 l 1,3,-1
 351.9 254 l 1,0,-1
529.2 401 m 1,4,-1
 357.3 401 l 1,5,-1
 357.3 555 l 2,6,7
 357.3 656 357.3 656 382.5 721 c 128,-1,8
 407.7 786 407.7 786 488.7 872 c 1,9,-1
 569.7 961 l 1,10,11
 621 1014 621 1014 643.95 1061 c 128,-1,12
 666.9 1108 666.9 1108 666.9 1157 c 0,13,14
 666.9 1246 666.9 1246 607.95 1301 c 128,-1,15
 549 1356 549 1356 451.8 1356 c 0,16,17
 380.7 1356 380.7 1356 300.15 1321 c 128,-1,18
 219.6 1286 219.6 1286 132.3 1219 c 1,19,-1
 132.3 1407 l 1,20,21
 216.9 1464 216.9 1464 303.75 1492 c 128,-1,22
 390.6 1520 390.6 1520 483.3 1520 c 0,23,24
 648.9 1520 648.9 1520 749.25 1423 c 128,-1,25
 849.6 1326 849.6 1326 849.6 1167 c 0,26,27
 849.6 1091 849.6 1091 817.2 1022.5 c 128,-1,28
 784.8 954 784.8 954 703.8 868 c 2,29,-1
 624.6 782 l 2,30,31
 582.3 735 582.3 735 564.75 708.5 c 128,-1,32
 547.2 682 547.2 682 540 657 c 0,33,34
 534.6 636 534.6 636 531.9 606 c 128,-1,35
 529.2 576 529.2 576 529.2 524 c 2,36,-1
 529.2 401 l 1,4,-1
EndSplineSet
EndChar
StartChar: at
Encoding: 64 64 64
Width: 1843
Flags: W
Fore
685.8 537 m 0,0,1
 685.8 394 685.8 394 749.7 312.5 c 128,-1,2
 813.6 231 813.6 231 925.2 231 c 0,3,4
 1035.9 231 1035.9 231 1099.35 313 c 128,-1,5
 1162.8 395 1162.8 395 1162.8 537 c 0,6,7
 1162.8 677 1162.8 677 1098 759.5 c 128,-1,8
 1033.2 842 1033.2 842 923.4 842 c 0,9,10
 814.5 842 814.5 842 750.15 760 c 128,-1,11
 685.8 678 685.8 678 685.8 537 c 0,0,1
1176.3 238 m 1,12,13
 1122.3 161 1122.3 161 1052.55 124.5 c 128,-1,14
 982.8 88 982.8 88 890.1 88 c 0,15,16
 735.3 88 735.3 88 638.55 212.5 c 128,-1,17
 541.8 337 541.8 337 541.8 537 c 0,18,19
 541.8 737 541.8 737 639 862 c 128,-1,20
 736.2 987 736.2 987 890.1 987 c 0,21,22
 982.8 987 982.8 987 1053 949.5 c 128,-1,23
 1123.2 912 1123.2 912 1176.3 836 c 1,24,-1
 1176.3 967 l 1,25,-1
 1305 967 l 1,26,-1
 1305 231 l 1,27,28
 1436.4 253 1436.4 253 1510.65 364.5 c 128,-1,29
 1584.9 476 1584.9 476 1584.9 653 c 0,30,31
 1584.9 760 1584.9 760 1556.55 854 c 128,-1,32
 1528.2 948 1528.2 948 1470.6 1028 c 0,33,34
 1377 1159 1377 1159 1242.45 1228.5 c 128,-1,35
 1107.9 1298 1107.9 1298 949.5 1298 c 0,36,37
 838.8 1298 838.8 1298 737.1 1265.5 c 128,-1,38
 635.4 1233 635.4 1233 549 1169 c 1,39,40
 407.7 1067 407.7 1067 328.05 901.5 c 128,-1,41
 248.4 736 248.4 736 248.4 543 c 0,42,43
 248.4 384 248.4 384 300.15 245 c 128,-1,44
 351.9 106 351.9 106 450 0 c 0,45,46
 544.5 -104 544.5 -104 668.7 -158.5 c 128,-1,47
 792.9 -213 792.9 -213 934.2 -213 c 0,48,49
 1050.3 -213 1050.3 -213 1162.35 -169.5 c 128,-1,50
 1274.4 -126 1274.4 -126 1368 -45 c 1,51,-1
 1449 -156 l 1,52,53
 1336.5 -253 1336.5 -253 1203.75 -304.5 c 128,-1,54
 1071 -356 1071 -356 934.2 -356 c 0,55,56
 767.7 -356 767.7 -356 620.1 -290.5 c 128,-1,57
 472.5 -225 472.5 -225 357.3 -100 c 0,58,59
 242.1 25 242.1 25 181.8 189.5 c 128,-1,60
 121.5 354 121.5 354 121.5 543 c 0,61,62
 121.5 725 121.5 725 182.7 890 c 128,-1,63
 243.9 1055 243.9 1055 357.3 1180 c 0,64,65
 473.4 1307 473.4 1307 625.5 1374.5 c 128,-1,66
 777.6 1442 777.6 1442 947.7 1442 c 0,67,68
 1138.5 1442 1138.5 1442 1301.85 1355 c 128,-1,69
 1465.2 1268 1465.2 1268 1575.9 1108 c 0,70,71
 1643.4 1010 1643.4 1010 1678.95 895 c 128,-1,72
 1714.5 780 1714.5 780 1714.5 657 c 0,73,74
 1714.5 394 1714.5 394 1571.4 242 c 128,-1,75
 1428.3 90 1428.3 90 1176.3 84 c 1,76,-1
 1176.3 238 l 1,12,13
EndSplineSet
EndChar
StartChar: A
Encoding: 65 65 65
Width: 1260
Flags: W
AnchorPoint: "half" 0 1520 basechar 0
AnchorPoint: "cedilla" 1151.1 0 basechar 0
AnchorPoint: "below" 630 0 basechar 0
AnchorPoint: "above" 630 1520 basechar 0
Fore
630 1294 m 1,0,-1
 383.4 551 l 1,1,-1
 877.5 551 l 1,2,-1
 630 1294 l 1,0,-1
527.4 1493 m 1,3,-1
 733.5 1493 l 1,4,-1
 1245.6 0 l 1,5,-1
 1056.6 0 l 1,6,-1
 934.2 383 l 1,7,-1
 328.5 383 l 1,8,-1
 206.1 0 l 1,9,-1
 14.4004 0 l 1,10,-1
 527.4 1493 l 1,3,-1
EndSplineSet
EndChar
StartChar: B
Encoding: 66 66 66
Width: 1264
Flags: W
AnchorPoint: "half" 0 1520 basechar 0
AnchorPoint: "below" 630 0 basechar 0
AnchorPoint: "above" 630 1520 basechar 0
Fore
362.7 713 m 1,0,-1
 362.7 166 l 1,1,-1
 654.3 166 l 2,2,3
 801 166 801 166 871.65 233.5 c 128,-1,4
 942.3 301 942.3 301 942.3 440 c 0,5,6
 942.3 580 942.3 580 871.65 646.5 c 128,-1,7
 801 713 801 713 654.3 713 c 2,8,-1
 362.7 713 l 1,0,-1
362.7 1327 m 1,9,-1
 362.7 877 l 1,10,-1
 631.8 877 l 2,11,12
 765 877 765 877 830.25 932.5 c 128,-1,13
 895.5 988 895.5 988 895.5 1102 c 0,14,15
 895.5 1215 895.5 1215 830.25 1271 c 128,-1,16
 765 1327 765 1327 631.8 1327 c 2,17,-1
 362.7 1327 l 1,9,-1
180.9 1493 m 1,18,-1
 645.3 1493 l 2,19,20
 853.2 1493 853.2 1493 965.7 1397 c 128,-1,21
 1078.2 1301 1078.2 1301 1078.2 1124 c 0,22,23
 1078.2 987 1078.2 987 1020.6 906 c 128,-1,24
 963 825 963 825 851.4 805 c 1,25,26
 985.5 773 985.5 773 1059.75 671.5 c 128,-1,27
 1134 570 1134 570 1134 418 c 0,28,29
 1134 218 1134 218 1011.6 109 c 128,-1,30
 889.2 0 889.2 0 663.3 0 c 2,31,-1
 180.9 0 l 1,32,-1
 180.9 1493 l 1,18,-1
EndSplineSet
EndChar
StartChar: C
Encoding: 67 67 67
Width: 1287
Flags: W
AnchorPoint: "half" 0 1520 basechar 0
AnchorPoint: "cedilla" 759.6 0 basechar 0
AnchorPoint: "below" 759.6 0 basechar 0
AnchorPoint: "above" 759.6 1520 basechar 0
Fore
1187.1 1378 m 1,0,-1
 1187.1 1165 l 1,1,2
 1095.3 1260 1095.3 1260 991.35 1307 c 128,-1,3
 887.4 1354 887.4 1354 770.4 1354 c 0,4,5
 540 1354 540 1354 417.6 1197.5 c 128,-1,6
 295.2 1041 295.2 1041 295.2 745 c 0,7,8
 295.2 450 295.2 450 417.6 293.5 c 128,-1,9
 540 137 540 137 770.4 137 c 0,10,11
 887.4 137 887.4 137 991.35 184 c 128,-1,12
 1095.3 231 1095.3 231 1187.1 326 c 1,13,-1
 1187.1 115 l 1,14,15
 1091.7 43 1091.7 43 985.05 7 c 128,-1,16
 878.4 -29 878.4 -29 759.6 -29 c 0,17,18
 454.5 -29 454.5 -29 279 178.5 c 128,-1,19
 103.5 386 103.5 386 103.5 745 c 0,20,21
 103.5 1105 103.5 1105 279 1312.5 c 128,-1,22
 454.5 1520 454.5 1520 759.6 1520 c 0,23,24
 880.2 1520 880.2 1520 986.85 1484.5 c 128,-1,25
 1093.5 1449 1093.5 1449 1187.1 1378 c 1,0,-1
EndSplineSet
EndChar
StartChar: D
Encoding: 68 68 68
Width: 1419
Flags: W
AnchorPoint: "half" 0 1520 basechar 0
AnchorPoint: "below" 673.2 0 basechar 0
AnchorPoint: "above" 673.2 1520 basechar 0
Fore
362.7 1327 m 1,0,-1
 362.7 166 l 1,1,-1
 582.3 166 l 2,2,3
 860.4 166 860.4 166 989.55 306 c 128,-1,4
 1118.7 446 1118.7 446 1118.7 748 c 0,5,6
 1118.7 1048 1118.7 1048 989.55 1187.5 c 128,-1,7
 860.4 1327 860.4 1327 582.3 1327 c 2,8,-1
 362.7 1327 l 1,0,-1
180.9 1493 m 1,9,-1
 554.4 1493 l 2,10,11
 945 1493 945 1493 1127.7 1312.5 c 128,-1,12
 1310.4 1132 1310.4 1132 1310.4 748 c 0,13,14
 1310.4 362 1310.4 362 1126.8 181 c 128,-1,15
 943.2 0 943.2 0 554.4 0 c 2,16,-1
 180.9 0 l 1,17,-1
 180.9 1493 l 1,9,-1
EndSplineSet
EndChar
StartChar: E
Encoding: 69 69 69
Width: 1164
Flags: W
AnchorPoint: "half" 0 1520 basechar 0
AnchorPoint: "cedilla" 603 0 basechar 0
AnchorPoint: "below" 603 0 basechar 0
AnchorPoint: "above" 603 1520 basechar 0
Fore
180.9 1493 m 1,0,-1
 1030.5 1493 l 1,1,-1
 1030.5 1323 l 1,2,-1
 362.7 1323 l 1,3,-1
 362.7 881 l 1,4,-1
 1002.6 881 l 1,5,-1
 1002.6 711 l 1,6,-1
 362.7 711 l 1,7,-1
 362.7 170 l 1,8,-1
 1046.7 170 l 1,9,-1
 1046.7 0 l 1,10,-1
 180.9 0 l 1,11,-1
 180.9 1493 l 1,0,-1
EndSplineSet
EndChar
StartChar: F
Encoding: 70 70 70
Width: 1060
Flags: W
AnchorPoint: "half" 0 1520 basechar 0
AnchorPoint: "below" 603 0 basechar 0
AnchorPoint: "above" 603 1520 basechar 0
Fore
180.9 1493 m 1,0,-1
 953.1 1493 l 1,1,-1
 953.1 1323 l 1,2,-1
 362.7 1323 l 1,3,-1
 362.7 883 l 1,4,-1
 895.5 883 l 1,5,-1
 895.5 713 l 1,6,-1
 362.7 713 l 1,7,-1
 362.7 0 l 1,8,-1
 180.9 0 l 1,9,-1
 180.9 1493 l 1,0,-1
EndSplineSet
EndChar
StartChar: G
Encoding: 71 71 71
Width: 1428
Flags: W
AnchorPoint: "half" 0 1520 basechar 0
AnchorPoint: "below" 774 0 basechar 0
AnchorPoint: "above" 774 1520 basechar 0
Fore
1097.1 213 m 1,0,-1
 1097.1 614 l 1,1,-1
 800.1 614 l 1,2,-1
 800.1 780 l 1,3,-1
 1277.1 780 l 1,4,-1
 1277.1 139 l 1,5,6
 1171.8 56 1171.8 56 1044.9 13.5 c 128,-1,7
 918 -29 918 -29 774 -29 c 0,8,9
 459 -29 459 -29 281.25 175.5 c 128,-1,10
 103.5 380 103.5 380 103.5 745 c 0,11,12
 103.5 1111 103.5 1111 281.25 1315.5 c 128,-1,13
 459 1520 459 1520 774 1520 c 0,14,15
 905.4 1520 905.4 1520 1023.75 1484 c 128,-1,16
 1142.1 1448 1142.1 1448 1242 1378 c 1,17,-1
 1242 1163 l 1,18,19
 1141.2 1258 1141.2 1258 1027.8 1306 c 128,-1,20
 914.4 1354 914.4 1354 789.3 1354 c 0,21,22
 542.7 1354 542.7 1354 418.95 1201 c 128,-1,23
 295.2 1048 295.2 1048 295.2 745 c 0,24,25
 295.2 443 295.2 443 418.95 290 c 128,-1,26
 542.7 137 542.7 137 789.3 137 c 0,27,28
 885.6 137 885.6 137 961.2 155.5 c 128,-1,29
 1036.8 174 1036.8 174 1097.1 213 c 1,0,-1
EndSplineSet
EndChar
StartChar: H
Encoding: 72 72 72
Width: 1386
Flags: W
AnchorPoint: "half" 0 1520 basechar 0
AnchorPoint: "below" 693 0 basechar 0
AnchorPoint: "above" 693 1520 basechar 0
Fore
180.9 1493 m 1,0,-1
 362.7 1493 l 1,1,-1
 362.7 881 l 1,2,-1
 1023.3 881 l 1,3,-1
 1023.3 1493 l 1,4,-1
 1205.1 1493 l 1,5,-1
 1205.1 0 l 1,6,-1
 1023.3 0 l 1,7,-1
 1023.3 711 l 1,8,-1
 362.7 711 l 1,9,-1
 362.7 0 l 1,10,-1
 180.9 0 l 1,11,-1
 180.9 1493 l 1,0,-1
EndSplineSet
EndChar
StartChar: I
Encoding: 73 73 73
Width: 543
Flags: W
AnchorPoint: "half" 0 1520 basechar 0
AnchorPoint: "cedilla" 272.7 0 basechar 0
AnchorPoint: "below" 272.7 0 basechar 0
AnchorPoint: "above" 272.7 1520 basechar 0
Fore
180.9 1493 m 1,0,-1
 362.7 1493 l 1,1,-1
 362.7 0 l 1,2,-1
 180.9 0 l 1,3,-1
 180.9 1493 l 1,0,-1
EndSplineSet
AlternateSubs2: "'aalt' Access All Alternates in Latin lookup 29" I.alt
Substitution2: "'salt' Stylistic Alternatives in Latin lookup 28" I.alt
EndChar
StartChar: J
Encoding: 74 74 74
Width: 543
Flags: W
AnchorPoint: "half" 0 1520 basechar 0
AnchorPoint: "below" 271.8 -430 basechar 0
AnchorPoint: "above" 271.8 1520 basechar 0
Fore
180.9 1493 m 1,0,-1
 362.7 1493 l 1,1,-1
 362.7 104 l 2,2,3
 362.7 -166 362.7 -166 270.45 -288 c 128,-1,4
 178.2 -410 178.2 -410 -26.0996 -410 c 2,5,-1
 -95.4004 -410 l 1,6,-1
 -95.4004 -240 l 1,7,-1
 -38.7002 -240 l 2,8,9
 81.9004 -240 81.9004 -240 131.4 -165 c 128,-1,10
 180.9 -90 180.9 -90 180.9 104 c 2,11,-1
 180.9 1493 l 1,0,-1
EndSplineSet
AlternateSubs2: "'aalt' Access All Alternates in Latin lookup 29" J.alt
Substitution2: "'salt' Stylistic Alternatives in Latin lookup 28" J.alt
EndChar
StartChar: K
Encoding: 75 75 75
Width: 1208
Flags: W
AnchorPoint: "half" 0 1520 basechar 0
AnchorPoint: "below" 603 0 basechar 0
AnchorPoint: "above" 603 1520 basechar 0
Fore
180.9 1493 m 1,0,-1
 362.7 1493 l 1,1,-1
 362.7 862 l 1,2,-1
 965.7 1493 l 1,3,-1
 1199.7 1493 l 1,4,-1
 532.8 797 l 1,5,-1
 1247.4 0 l 1,6,-1
 1008 0 l 1,7,-1
 362.7 719 l 1,8,-1
 362.7 0 l 1,9,-1
 180.9 0 l 1,10,-1
 180.9 1493 l 1,0,-1
EndSplineSet
EndChar
StartChar: L
Encoding: 76 76 76
Width: 1026
Flags: W
AnchorPoint: "half" 0 1520 basechar 0
AnchorPoint: "below" 598.5 0 basechar 0
AnchorPoint: "above" 268.2 1520 basechar 0
Fore
180.9 1493 m 1,0,-1
 362.7 1493 l 1,1,-1
 362.7 170 l 1,2,-1
 1017 170 l 1,3,-1
 1017 0 l 1,4,-1
 180.9 0 l 1,5,-1
 180.9 1493 l 1,0,-1
EndSplineSet
EndChar
StartChar: M
Encoding: 77 77 77
Width: 1590
Flags: W
AnchorPoint: "half" 0 1520 basechar 0
AnchorPoint: "below" 794.7 0 basechar 0
AnchorPoint: "above" 794.7 1520 basechar 0
Fore
180.9 1493 m 1,0,-1
 451.8 1493 l 1,1,-1
 794.7 477 l 1,2,-1
 1139.4 1493 l 1,3,-1
 1410.3 1493 l 1,4,-1
 1410.3 0 l 1,5,-1
 1233 0 l 1,6,-1
 1233 1311 l 1,7,-1
 886.5 287 l 1,8,-1
 703.8 287 l 1,9,-1
 357.3 1311 l 1,10,-1
 357.3 0 l 1,11,-1
 180.9 0 l 1,12,-1
 180.9 1493 l 1,0,-1
EndSplineSet
EndChar
StartChar: N
Encoding: 78 78 78
Width: 1378
Flags: W
AnchorPoint: "half" 0 1520 basechar 0
AnchorPoint: "below" 681.3 0 basechar 0
AnchorPoint: "above" 681.3 1520 basechar 0
Fore
180.9 1493 m 1,0,-1
 425.7 1493 l 1,1,-1
 1021.5 244 l 1,2,-1
 1021.5 1493 l 1,3,-1
 1197.9 1493 l 1,4,-1
 1197.9 0 l 1,5,-1
 953.1 0 l 1,6,-1
 357.3 1249 l 1,7,-1
 357.3 0 l 1,8,-1
 180.9 0 l 1,9,-1
 180.9 1493 l 1,0,-1
EndSplineSet
EndChar
StartChar: O
Encoding: 79 79 79
Width: 1450
Flags: W
AnchorPoint: "half" 0 1520 basechar 0
AnchorPoint: "cedilla" 726.3 0 basechar 0
AnchorPoint: "below" 726.3 0 basechar 0
AnchorPoint: "above" 726.3 1520 basechar 0
Fore
726.3 1356 m 0,0,1
 528.3 1356 528.3 1356 411.75 1192 c 128,-1,2
 295.2 1028 295.2 1028 295.2 745 c 0,3,4
 295.2 463 295.2 463 411.75 299 c 128,-1,5
 528.3 135 528.3 135 726.3 135 c 0,6,7
 924.3 135 924.3 135 1039.95 299 c 128,-1,8
 1155.6 463 1155.6 463 1155.6 745 c 0,9,10
 1155.6 1028 1155.6 1028 1039.95 1192 c 128,-1,11
 924.3 1356 924.3 1356 726.3 1356 c 0,0,1
726.3 1520 m 0,12,13
 1008.9 1520 1008.9 1520 1178.1 1309.5 c 128,-1,14
 1347.3 1099 1347.3 1099 1347.3 745 c 0,15,16
 1347.3 392 1347.3 392 1178.1 181.5 c 128,-1,17
 1008.9 -29 1008.9 -29 726.3 -29 c 0,18,19
 442.8 -29 442.8 -29 273.15 181 c 128,-1,20
 103.5 391 103.5 391 103.5 745 c 0,21,22
 103.5 1099 103.5 1099 273.15 1309.5 c 128,-1,23
 442.8 1520 442.8 1520 726.3 1520 c 0,12,13
EndSplineSet
EndChar
StartChar: P
Encoding: 80 80 80
Width: 1111
Flags: W
AnchorPoint: "half" 0 1520 basechar 0
AnchorPoint: "below" 603 0 basechar 0
AnchorPoint: "above" 603 1520 basechar 0
Fore
362.7 1327 m 1,0,-1
 362.7 766 l 1,1,-1
 591.3 766 l 2,2,3
 718.2 766 718.2 766 787.5 839 c 128,-1,4
 856.8 912 856.8 912 856.8 1047 c 0,5,6
 856.8 1181 856.8 1181 787.5 1254 c 128,-1,7
 718.2 1327 718.2 1327 591.3 1327 c 2,8,-1
 362.7 1327 l 1,0,-1
180.9 1493 m 1,9,-1
 591.3 1493 l 2,10,11
 817.2 1493 817.2 1493 932.85 1379.5 c 128,-1,12
 1048.5 1266 1048.5 1266 1048.5 1047 c 0,13,14
 1048.5 826 1048.5 826 932.85 713 c 128,-1,15
 817.2 600 817.2 600 591.3 600 c 2,16,-1
 362.7 600 l 1,17,-1
 362.7 0 l 1,18,-1
 180.9 0 l 1,19,-1
 180.9 1493 l 1,9,-1
EndSplineSet
EndChar
StartChar: Q
Encoding: 81 81 81
Width: 1450
Flags: W
AnchorPoint: "half" 0 1520 basechar 0
AnchorPoint: "below" 726.3 0 basechar 0
AnchorPoint: "above" 726.3 1520 basechar 0
Fore
726.3 1356 m 0,0,1
 528.3 1356 528.3 1356 411.75 1192 c 128,-1,2
 295.2 1028 295.2 1028 295.2 745 c 0,3,4
 295.2 463 295.2 463 411.75 299 c 128,-1,5
 528.3 135 528.3 135 726.3 135 c 0,6,7
 924.3 135 924.3 135 1039.95 299 c 128,-1,8
 1155.6 463 1155.6 463 1155.6 745 c 0,9,10
 1155.6 1028 1155.6 1028 1039.95 1192 c 128,-1,11
 924.3 1356 924.3 1356 726.3 1356 c 0,0,1
981 27 m 1,12,-1
 1220.4 -264 l 1,13,-1
 1000.8 -264 l 1,14,-1
 801.9 -25 l 1,15,16
 772.2 -27 772.2 -27 756.45 -28 c 128,-1,17
 740.7 -29 740.7 -29 726.3 -29 c 0,18,19
 442.8 -29 442.8 -29 273.15 181.5 c 128,-1,20
 103.5 392 103.5 392 103.5 745 c 0,21,22
 103.5 1099 103.5 1099 273.15 1309.5 c 128,-1,23
 442.8 1520 442.8 1520 726.3 1520 c 0,24,25
 1008.9 1520 1008.9 1520 1178.1 1309.5 c 128,-1,26
 1347.3 1099 1347.3 1099 1347.3 745 c 0,27,28
 1347.3 485 1347.3 485 1253.25 300 c 128,-1,29
 1159.2 115 1159.2 115 981 27 c 1,12,-1
EndSplineSet
EndChar
StartChar: R
Encoding: 82 82 82
Width: 1280
Flags: W
AnchorPoint: "half" 0 1520 basechar 0
AnchorPoint: "below" 573.3 0 basechar 0
AnchorPoint: "above" 573.3 1520 basechar 0
Fore
818.1 700 m 1,0,1
 876.6 678 876.6 678 931.95 606 c 128,-1,2
 987.3 534 987.3 534 1043.1 408 c 1,3,-1
 1227.6 0 l 1,4,-1
 1032.3 0 l 1,5,-1
 860.4 383 l 1,6,7
 793.8 533 793.8 533 731.25 582 c 128,-1,8
 668.7 631 668.7 631 560.7 631 c 2,9,-1
 362.7 631 l 1,10,-1
 362.7 0 l 1,11,-1
 180.9 0 l 1,12,-1
 180.9 1493 l 1,13,-1
 591.3 1493 l 2,14,15
 821.7 1493 821.7 1493 935.1 1386 c 128,-1,16
 1048.5 1279 1048.5 1279 1048.5 1063 c 0,17,18
 1048.5 922 1048.5 922 989.55 829 c 128,-1,19
 930.6 736 930.6 736 818.1 700 c 1,0,1
362.7 1327 m 1,20,-1
 362.7 797 l 1,21,-1
 591.3 797 l 2,22,23
 722.7 797 722.7 797 789.75 864.5 c 128,-1,24
 856.8 932 856.8 932 856.8 1063 c 0,25,26
 856.8 1194 856.8 1194 789.75 1260.5 c 128,-1,27
 722.7 1327 722.7 1327 591.3 1327 c 2,28,-1
 362.7 1327 l 1,20,-1
EndSplineSet
EndChar
StartChar: S
Encoding: 83 83 83
Width: 1170
Flags: W
AnchorPoint: "half" 0 1520 basechar 0
AnchorPoint: "cedilla" 606.6 0 basechar 0
AnchorPoint: "below" 593.1 0 basechar 0
AnchorPoint: "above" 593.1 1520 basechar 0
Fore
986.4 1444 m 1,0,-1
 986.4 1247 l 1,1,2
 882.9 1302 882.9 1302 791.1 1329 c 128,-1,3
 699.3 1356 699.3 1356 613.8 1356 c 0,4,5
 465.3 1356 465.3 1356 384.75 1292 c 128,-1,6
 304.2 1228 304.2 1228 304.2 1110 c 0,7,8
 304.2 1011 304.2 1011 357.75 960.5 c 128,-1,9
 411.3 910 411.3 910 560.7 879 c 1,10,-1
 670.5 854 l 1,11,12
 873.9 811 873.9 811 970.65 702.5 c 128,-1,13
 1067.4 594 1067.4 594 1067.4 412 c 0,14,15
 1067.4 195 1067.4 195 936.45 83 c 128,-1,16
 805.5 -29 805.5 -29 552.6 -29 c 0,17,18
 457.2 -29 457.2 -29 349.65 -5 c 128,-1,19
 242.1 19 242.1 19 126.9 66 c 1,20,-1
 126.9 274 l 1,21,22
 237.6 205 237.6 205 343.8 170 c 128,-1,23
 450 135 450 135 552.6 135 c 0,24,25
 708.3 135 708.3 135 792.9 203 c 128,-1,26
 877.5 271 877.5 271 877.5 397 c 0,27,28
 877.5 507 877.5 507 816.75 569 c 128,-1,29
 756 631 756 631 617.4 662 c 2,30,-1
 506.7 686 l 2,31,32
 303.3 731 303.3 731 212.4 827 c 128,-1,33
 121.5 923 121.5 923 121.5 1094 c 0,34,35
 121.5 1292 121.5 1292 247.05 1406 c 128,-1,36
 372.6 1520 372.6 1520 593.1 1520 c 0,37,38
 687.6 1520 687.6 1520 785.7 1501 c 128,-1,39
 883.8 1482 883.8 1482 986.4 1444 c 1,0,-1
EndSplineSet
EndChar
StartChar: T
Encoding: 84 84 84
Width: 1125
Flags: W
AnchorPoint: "half" 0 1520 basechar 0
AnchorPoint: "below" 564.3 0 basechar 0
AnchorPoint: "above" 564.3 1520 basechar 0
Fore
-5.40039 1493 m 1,0,-1
 1131.3 1493 l 1,1,-1
 1131.3 1323 l 1,2,-1
 654.3 1323 l 1,3,-1
 654.3 0 l 1,4,-1
 471.6 0 l 1,5,-1
 471.6 1323 l 1,6,-1
 -5.40039 1323 l 1,7,-1
 -5.40039 1493 l 1,0,-1
EndSplineSet
EndChar
StartChar: U
Encoding: 85 85 85
Width: 1349
Flags: W
AnchorPoint: "half" 0 1520 basechar 0
AnchorPoint: "cedilla" 675 0 basechar 0
AnchorPoint: "below" 675 0 basechar 0
AnchorPoint: "above" 675 1520 basechar 0
Fore
160.2 1493 m 1,0,-1
 342.9 1493 l 1,1,-1
 342.9 586 l 2,2,3
 342.9 346 342.9 346 421.2 240.5 c 128,-1,4
 499.5 135 499.5 135 675 135 c 0,5,6
 849.6 135 849.6 135 927.9 240.5 c 128,-1,7
 1006.2 346 1006.2 346 1006.2 586 c 2,8,-1
 1006.2 1493 l 1,9,-1
 1188.9 1493 l 1,10,-1
 1188.9 561 l 2,11,12
 1188.9 269 1188.9 269 1058.85 120 c 128,-1,13
 928.8 -29 928.8 -29 675 -29 c 0,14,15
 420.3 -29 420.3 -29 290.25 120 c 128,-1,16
 160.2 269 160.2 269 160.2 561 c 2,17,-1
 160.2 1493 l 1,0,-1
EndSplineSet
EndChar
StartChar: V
Encoding: 86 86 86
Width: 1260
Flags: W
AnchorPoint: "half" 0 1520 basechar 0
AnchorPoint: "below" 630 0 basechar 0
AnchorPoint: "above" 630 1520 basechar 0
Fore
527.4 0 m 1,0,-1
 14.4004 1493 l 1,1,-1
 204.3 1493 l 1,2,-1
 630 236 l 1,3,-1
 1056.6 1493 l 1,4,-1
 1245.6 1493 l 1,5,-1
 733.5 0 l 1,6,-1
 527.4 0 l 1,0,-1
EndSplineSet
EndChar
StartChar: W
Encoding: 87 87 87
Width: 1822
Flags: W
AnchorPoint: "half" 0 1520 basechar 0
AnchorPoint: "below" 911.7 0 basechar 0
AnchorPoint: "above" 911.7 1520 basechar 0
Fore
61.2002 1493 m 1,0,-1
 244.8 1493 l 1,1,-1
 527.4 231 l 1,2,-1
 809.1 1493 l 1,3,-1
 1013.4 1493 l 1,4,-1
 1296 231 l 1,5,-1
 1577.7 1493 l 1,6,-1
 1762.2 1493 l 1,7,-1
 1424.7 0 l 1,8,-1
 1196.1 0 l 1,9,-1
 912.6 1296 l 1,10,-1
 626.4 0 l 1,11,-1
 397.8 0 l 1,12,-1
 61.2002 1493 l 1,0,-1
EndSplineSet
EndChar
StartChar: X
Encoding: 88 88 88
Width: 1262
Flags: W
AnchorPoint: "half" 0 1520 basechar 0
AnchorPoint: "below" 645.3 0 basechar 0
AnchorPoint: "above" 645.3 1520 basechar 0
Fore
116.1 1493 m 1,0,-1
 311.4 1493 l 1,1,-1
 645.3 938 l 1,2,-1
 981 1493 l 1,3,-1
 1176.3 1493 l 1,4,-1
 744.3 776 l 1,5,-1
 1205.1 0 l 1,6,-1
 1009.8 0 l 1,7,-1
 631.8 635 l 1,8,-1
 251.1 0 l 1,9,-1
 54.9004 0 l 1,10,-1
 534.6 797 l 1,11,-1
 116.1 1493 l 1,0,-1
EndSplineSet
EndChar
StartChar: Y
Encoding: 89 89 89
Width: 1125
Flags: W
AnchorPoint: "half" 0 1520 basechar 0
AnchorPoint: "below" 563.4 0 basechar 0
AnchorPoint: "above" 563.4 1520 basechar 0
Fore
-3.59961 1493 m 1,0,-1
 191.7 1493 l 1,1,-1
 564.3 879 l 1,2,-1
 934.2 1493 l 1,3,-1
 1129.5 1493 l 1,4,-1
 654.3 711 l 1,5,-1
 654.3 0 l 1,6,-1
 471.6 0 l 1,7,-1
 471.6 711 l 1,8,-1
 -3.59961 1493 l 1,0,-1
EndSplineSet
EndChar
StartChar: Z
Encoding: 90 90 90
Width: 1262
Flags: W
AnchorPoint: "half" 0 1520 basechar 0
AnchorPoint: "below" 631.8 0 basechar 0
AnchorPoint: "above" 631.8 1520 basechar 0
Fore
103.5 1493 m 1,0,-1
 1159.2 1493 l 1,1,-1
 1159.2 1339 l 1,2,-1
 309.6 170 l 1,3,-1
 1179.9 170 l 1,4,-1
 1179.9 0 l 1,5,-1
 82.7998 0 l 1,6,-1
 82.7998 154 l 1,7,-1
 932.4 1323 l 1,8,-1
 103.5 1323 l 1,9,-1
 103.5 1493 l 1,0,-1
EndSplineSet
EndChar
StartChar: bracketleft
Encoding: 91 91 91
Width: 719
Flags: W
Fore
158.4 1556 m 1,0,-1
 540 1556 l 1,1,-1
 540 1413 l 1,2,-1
 324 1413 l 1,3,-1
 324 -127 l 1,4,-1
 540 -127 l 1,5,-1
 540 -270 l 1,6,-1
 158.4 -270 l 1,7,-1
 158.4 1556 l 1,0,-1
EndSplineSet
EndChar
StartChar: backslash
Encoding: 92 92 92
Width: 621
Flags: W
Fore
153 1493 m 1,0,-1
 621 -190 l 1,1,-1
 468 -190 l 1,2,-1
 0 1493 l 1,3,-1
 153 1493 l 1,0,-1
EndSplineSet
EndChar
StartChar: bracketright
Encoding: 93 93 93
Width: 719
Flags: W
Fore
560.7 1556 m 1,0,-1
 560.7 -270 l 1,1,-1
 179.1 -270 l 1,2,-1
 179.1 -127 l 1,3,-1
 394.2 -127 l 1,4,-1
 394.2 1413 l 1,5,-1
 179.1 1413 l 1,6,-1
 179.1 1556 l 1,7,-1
 560.7 1556 l 1,0,-1
EndSplineSet
EndChar
StartChar: asciicircum
Encoding: 94 94 94
Width: 1544
Flags: W
Fore
860.4 1493 m 1,0,-1
 1349.1 936 l 1,1,-1
 1168.2 936 l 1,2,-1
 772.2 1331 l 1,3,-1
 376.2 936 l 1,4,-1
 195.3 936 l 1,5,-1
 684 1493 l 1,6,-1
 860.4 1493 l 1,0,-1
EndSplineSet
EndChar
StartChar: underscore
Encoding: 95 95 95
Width: 921
Flags: W
Fore
939.6 -340 m 1,0,-1
 939.6 -483 l 1,1,-1
 -18 -483 l 1,2,-1
 -18 -340 l 1,3,-1
 939.6 -340 l 1,0,-1
EndSplineSet
EndChar
StartChar: grave
Encoding: 96 96 96
Width: 921
Flags: W
Fore
330.3 1638 m 1,0,-1
 584.1 1264 l 1,1,-1
 446.4 1264 l 1,2,-1
 153 1638 l 1,3,-1
 330.3 1638 l 1,0,-1
EndSplineSet
EndChar
StartChar: a
Encoding: 97 97 97
Width: 1129
Flags: W
AnchorPoint: "half" 0 1520 basechar 0
AnchorPoint: "cedilla" 879.3 0 basechar 0
AnchorPoint: "below" 527.4 0 basechar 0
AnchorPoint: "above" 527.4 1147 basechar 0 35
Fore
631.8 563 m 2,0,1
 431.1 563 431.1 563 353.7 512 c 128,-1,2
 276.3 461 276.3 461 276.3 338 c 0,3,4
 276.3 240 276.3 240 334.35 182.5 c 128,-1,5
 392.4 125 392.4 125 492.3 125 c 0,6,7
 630 125 630 125 713.25 233.5 c 128,-1,8
 796.5 342 796.5 342 796.5 522 c 2,9,-1
 796.5 563 l 1,10,-1
 631.8 563 l 2,0,1
962.1 639 m 2,11,-1
 962.1 0 l 1,12,-1
 796.5 0 l 1,13,-1
 796.5 170 l 1,14,15
 739.8 68 739.8 68 655.2 19.5 c 128,-1,16
 570.6 -29 570.6 -29 448.2 -29 c 0,17,18
 293.4 -29 293.4 -29 202.05 67.5 c 128,-1,19
 110.7 164 110.7 164 110.7 326 c 0,20,21
 110.7 515 110.7 515 224.55 611 c 128,-1,22
 338.4 707 338.4 707 564.3 707 c 2,23,-1
 796.5 707 l 1,24,-1
 796.5 725 l 2,25,26
 796.5 852 796.5 852 721.35 921.5 c 128,-1,27
 646.2 991 646.2 991 510.3 991 c 0,28,29
 423.9 991 423.9 991 342 968 c 128,-1,30
 260.1 945 260.1 945 184.5 899 c 1,31,-1
 184.5 1069 l 1,32,33
 275.4 1108 275.4 1108 360.9 1127.5 c 128,-1,34
 446.4 1147 446.4 1147 527.4 1147 c 0,35,36
 746.1 1147 746.1 1147 854.1 1021 c 128,-1,37
 962.1 895 962.1 895 962.1 639 c 2,11,-1
EndSplineSet
Substitution2: "'salt' Stylistic Alternatives in Latin lookup 28" uni0251
Substitution2: "'aalt' Access All Alternates in Latin lookup 27" uni0251
EndChar
StartChar: b
Encoding: 98 98 98
Width: 1170
Flags: W
AnchorPoint: "half" 0 1520 basechar 0
AnchorPoint: "below" 625.5 0 basechar 0
AnchorPoint: "above" 250.2 1520 basechar 0
Fore
897.3 559 m 0,0,1
 897.3 762 897.3 762 822.15 877.5 c 128,-1,2
 747 993 747 993 615.6 993 c 0,3,4
 484.2 993 484.2 993 409.05 877.5 c 128,-1,5
 333.9 762 333.9 762 333.9 559 c 0,6,7
 333.9 356 333.9 356 409.05 240.5 c 128,-1,8
 484.2 125 484.2 125 615.6 125 c 0,9,10
 747 125 747 125 822.15 240.5 c 128,-1,11
 897.3 356 897.3 356 897.3 559 c 0,0,1
333.9 950 m 1,12,13
 386.1 1050 386.1 1050 465.75 1098.5 c 128,-1,14
 545.4 1147 545.4 1147 656.1 1147 c 0,15,16
 839.7 1147 839.7 1147 954.45 985 c 128,-1,17
 1069.2 823 1069.2 823 1069.2 559 c 0,18,19
 1069.2 295 1069.2 295 954.45 133 c 128,-1,20
 839.7 -29 839.7 -29 656.1 -29 c 0,21,22
 545.4 -29 545.4 -29 465.75 19.5 c 128,-1,23
 386.1 68 386.1 68 333.9 168 c 1,24,-1
 333.9 0 l 1,25,-1
 167.4 0 l 1,26,-1
 167.4 1556 l 1,27,-1
 333.9 1556 l 1,28,-1
 333.9 950 l 1,12,13
EndSplineSet
EndChar
StartChar: c
Encoding: 99 99 99
Width: 1013
Flags: W
AnchorPoint: "half" 0 1520 basechar 0
AnchorPoint: "cedilla" 610.2 0 basechar 0
AnchorPoint: "below" 608.4 0 basechar 0
AnchorPoint: "above" 608.4 1147 basechar 0 23
Fore
899.1 1077 m 1,0,-1
 899.1 905 l 1,1,2
 828.9 948 828.9 948 758.25 969.5 c 128,-1,3
 687.6 991 687.6 991 615.6 991 c 0,4,5
 454.5 991 454.5 991 365.4 877.5 c 128,-1,6
 276.3 764 276.3 764 276.3 559 c 0,7,8
 276.3 354 276.3 354 365.4 240.5 c 128,-1,9
 454.5 127 454.5 127 615.6 127 c 0,10,11
 687.6 127 687.6 127 758.25 148.5 c 128,-1,12
 828.9 170 828.9 170 899.1 213 c 1,13,-1
 899.1 43 l 1,14,15
 829.8 7 829.8 7 755.55 -11 c 128,-1,16
 681.3 -29 681.3 -29 597.6 -29 c 0,17,18
 369.9 -29 369.9 -29 235.8 130 c 128,-1,19
 101.7 289 101.7 289 101.7 559 c 0,20,21
 101.7 833 101.7 833 237.15 990 c 128,-1,22
 372.6 1147 372.6 1147 608.4 1147 c 0,23,24
 684.9 1147 684.9 1147 757.8 1129.5 c 128,-1,25
 830.7 1112 830.7 1112 899.1 1077 c 1,0,-1
EndSplineSet
EndChar
StartChar: d
Encoding: 100 100 100
Width: 1170
Flags: W
AnchorPoint: "half" 0 1520 basechar 0
AnchorPoint: "below" 552.6 0 basechar 0
AnchorPoint: "above" 919.8 1520 basechar 0
Fore
837 950 m 1,0,-1
 837 1556 l 1,1,-1
 1002.6 1556 l 1,2,-1
 1002.6 0 l 1,3,-1
 837 0 l 1,4,-1
 837 168 l 1,5,6
 784.8 68 784.8 68 705.15 19.5 c 128,-1,7
 625.5 -29 625.5 -29 513.9 -29 c 0,8,9
 331.2 -29 331.2 -29 216.45 133 c 128,-1,10
 101.7 295 101.7 295 101.7 559 c 0,11,12
 101.7 823 101.7 823 216.45 985 c 128,-1,13
 331.2 1147 331.2 1147 513.9 1147 c 0,14,15
 625.5 1147 625.5 1147 705.15 1098.5 c 128,-1,16
 784.8 1050 784.8 1050 837 950 c 1,0,-1
272.7 559 m 0,17,18
 272.7 356 272.7 356 347.85 240.5 c 128,-1,19
 423 125 423 125 554.4 125 c 0,20,21
 685.8 125 685.8 125 761.4 240.5 c 128,-1,22
 837 356 837 356 837 559 c 0,23,24
 837 762 837 762 761.4 877.5 c 128,-1,25
 685.8 993 685.8 993 554.4 993 c 0,26,27
 423 993 423 993 347.85 877.5 c 128,-1,28
 272.7 762 272.7 762 272.7 559 c 0,17,18
EndSplineSet
EndChar
StartChar: e
Encoding: 101 101 101
Width: 1134
Flags: W
AnchorPoint: "half" 0 1520 basechar 0
AnchorPoint: "cedilla" 595.8 0 basechar 0
AnchorPoint: "below" 595.8 0 basechar 0
AnchorPoint: "above" 595.8 1147 basechar 0 18
Fore
1035.9 606 m 2,0,-1
 1035.9 516 l 1,1,-1
 274.5 516 l 1,2,3
 285.3 326 285.3 326 377.55 226.5 c 128,-1,4
 469.8 127 469.8 127 634.5 127 c 0,5,6
 729.9 127 729.9 127 819.45 153 c 128,-1,7
 909 179 909 179 997.2 231 c 1,8,-1
 997.2 57 l 1,9,10
 908.1 15 908.1 15 814.5 -7 c 128,-1,11
 720.9 -29 720.9 -29 624.6 -29 c 0,12,13
 383.4 -29 383.4 -29 242.55 127 c 128,-1,14
 101.7 283 101.7 283 101.7 549 c 0,15,16
 101.7 824 101.7 824 235.35 985.5 c 128,-1,17
 369 1147 369 1147 595.8 1147 c 0,18,19
 799.2 1147 799.2 1147 917.55 1001.5 c 128,-1,20
 1035.9 856 1035.9 856 1035.9 606 c 2,0,-1
870.3 660 m 1,21,22
 868.5 811 868.5 811 794.25 901 c 128,-1,23
 720 991 720 991 597.6 991 c 0,24,25
 459 991 459 991 375.75 904 c 128,-1,26
 292.5 817 292.5 817 279.9 659 c 1,27,-1
 870.3 660 l 1,21,22
EndSplineSet
EndChar
StartChar: f
Encoding: 102 102 102
Width: 648
Flags: W
AnchorPoint: "half" 0 1520 basechar 0
AnchorPoint: "below" 283.5 0 basechar 0
AnchorPoint: "above" 283.5 1520 basechar 0
Fore
684 1556 m 1,0,-1
 684 1403 l 1,1,-1
 525.6 1403 l 2,2,3
 436.5 1403 436.5 1403 401.85 1363 c 128,-1,4
 367.2 1323 367.2 1323 367.2 1219 c 2,5,-1
 367.2 1120 l 1,6,-1
 639.9 1120 l 1,7,-1
 639.9 977 l 1,8,-1
 367.2 977 l 1,9,-1
 367.2 0 l 1,10,-1
 200.7 0 l 1,11,-1
 200.7 977 l 1,12,-1
 42.2998 977 l 1,13,-1
 42.2998 1120 l 1,14,-1
 200.7 1120 l 1,15,-1
 200.7 1198 l 2,16,17
 200.7 1385 200.7 1385 279 1470.5 c 128,-1,18
 357.3 1556 357.3 1556 527.4 1556 c 2,19,-1
 684 1556 l 1,0,-1
EndSplineSet
EndChar
StartChar: g
Encoding: 103 103 103
Width: 1170
Flags: W
AnchorPoint: "half" 0 1520 basechar 0
AnchorPoint: "below" 610.2 -430 basechar 0
AnchorPoint: "above" 556.2 1147 basechar 0
Fore
837 573 m 0,0,1
 837 773 837 773 762.75 883 c 128,-1,2
 688.5 993 688.5 993 554.4 993 c 0,3,4
 421.2 993 421.2 993 346.95 883 c 128,-1,5
 272.7 773 272.7 773 272.7 573 c 0,6,7
 272.7 374 272.7 374 346.95 264 c 128,-1,8
 421.2 154 421.2 154 554.4 154 c 0,9,10
 688.5 154 688.5 154 762.75 264 c 128,-1,11
 837 374 837 374 837 573 c 0,0,1
1002.6 139 m 2,12,13
 1002.6 -147 1002.6 -147 888.3 -286.5 c 128,-1,14
 774 -426 774 -426 538.2 -426 c 0,15,16
 450.9 -426 450.9 -426 373.5 -411.5 c 128,-1,17
 296.1 -397 296.1 -397 223.2 -367 c 1,18,-1
 223.2 -188 l 1,19,20
 296.1 -232 296.1 -232 367.2 -253 c 128,-1,21
 438.3 -274 438.3 -274 512.1 -274 c 0,22,23
 675 -274 675 -274 756 -179.5 c 128,-1,24
 837 -85 837 -85 837 106 c 2,25,-1
 837 197 l 1,26,27
 785.7 98 785.7 98 705.6 49 c 128,-1,28
 625.5 0 625.5 0 513.9 0 c 0,29,30
 328.5 0 328.5 0 215.1 157 c 128,-1,31
 101.7 314 101.7 314 101.7 573 c 0,32,33
 101.7 833 101.7 833 215.1 990 c 128,-1,34
 328.5 1147 328.5 1147 513.9 1147 c 0,35,36
 625.5 1147 625.5 1147 705.6 1098 c 128,-1,37
 785.7 1049 785.7 1049 837 950 c 1,38,-1
 837 1120 l 1,39,-1
 1002.6 1120 l 1,40,-1
 1002.6 139 l 2,12,13
EndSplineSet
EndChar
StartChar: h
Encoding: 104 104 104
Width: 1168
Flags: W
AnchorPoint: "half" 0 1520 basechar 0
AnchorPoint: "below" 610.2 0 basechar 0
AnchorPoint: "above" 250.2 1520 basechar 0
Fore
1011.6 676 m 2,0,-1
 1011.6 0 l 1,1,-1
 846 0 l 1,2,-1
 846 670 l 2,3,4
 846 829 846 829 790.2 908 c 128,-1,5
 734.4 987 734.4 987 622.8 987 c 0,6,7
 488.7 987 488.7 987 411.3 892 c 128,-1,8
 333.9 797 333.9 797 333.9 633 c 2,9,-1
 333.9 0 l 1,10,-1
 167.4 0 l 1,11,-1
 167.4 1556 l 1,12,-1
 333.9 1556 l 1,13,-1
 333.9 946 l 1,14,15
 393.3 1047 393.3 1047 473.85 1097 c 128,-1,16
 554.4 1147 554.4 1147 659.7 1147 c 0,17,18
 833.4 1147 833.4 1147 922.5 1027.5 c 128,-1,19
 1011.6 908 1011.6 908 1011.6 676 c 2,0,-1
EndSplineSet
EndChar
StartChar: i
Encoding: 105 105 105
Width: 512
Flags: W
AnchorPoint: "half" 0 1520 basechar 0
AnchorPoint: "cedilla" 258.3 0 basechar 0
AnchorPoint: "below" 258.3 0 basechar 0
AnchorPoint: "above" 258.3 1583 basechar 0
Fore
173.7 1120 m 1,0,-1
 339.3 1120 l 1,1,-1
 339.3 0 l 1,2,-1
 173.7 0 l 1,3,-1
 173.7 1120 l 1,0,-1
173.7 1556 m 1,4,-1
 339.3 1556 l 1,5,-1
 339.3 1323 l 1,6,-1
 173.7 1323 l 1,7,-1
 173.7 1556 l 1,4,-1
EndSplineSet
Substitution2: "Single Substitution - Dotless Form" dotlessi
EndChar
StartChar: j
Encoding: 106 106 106
Width: 512
Flags: W
AnchorPoint: "half" 0 1520 basechar 0
AnchorPoint: "below" 258.3 -430 basechar 0
AnchorPoint: "above" 258.3 1583 basechar 0
Fore
173.7 1120 m 1,0,-1
 339.3 1120 l 1,1,-1
 339.3 -20 l 2,2,3
 339.3 -234 339.3 -234 265.95 -330 c 128,-1,4
 192.6 -426 192.6 -426 29.7002 -426 c 2,5,-1
 -33.2998 -426 l 1,6,-1
 -33.2998 -270 l 1,7,-1
 10.7998 -270 l 2,8,9
 105.3 -270 105.3 -270 139.5 -221.5 c 128,-1,10
 173.7 -173 173.7 -173 173.7 -20 c 2,11,-1
 173.7 1120 l 1,0,-1
173.7 1556 m 1,12,-1
 339.3 1556 l 1,13,-1
 339.3 1323 l 1,14,-1
 173.7 1323 l 1,15,-1
 173.7 1556 l 1,12,-1
EndSplineSet
Substitution2: "Single Substitution - Dotless Form" dotlessj
EndChar
StartChar: k
Encoding: 107 107 107
Width: 1067
Flags: W
AnchorPoint: "half" 0 1520 basechar 0
AnchorPoint: "below" 610.2 0 basechar 0
AnchorPoint: "above" 250.2 1520 basechar 0
Fore
167.4 1556 m 1,0,-1
 333.9 1556 l 1,1,-1
 333.9 637 l 1,2,-1
 828 1120 l 1,3,-1
 1039.5 1120 l 1,4,-1
 504.9 596 l 1,5,-1
 1062 0 l 1,6,-1
 846 0 l 1,7,-1
 333.9 547 l 1,8,-1
 333.9 0 l 1,9,-1
 167.4 0 l 1,10,-1
 167.4 1556 l 1,0,-1
EndSplineSet
EndChar
StartChar: l
Encoding: 108 108 108
Width: 512
Flags: W
AnchorPoint: "half" 0 1520 basechar 0
AnchorPoint: "below" 250.2 0 basechar 0
AnchorPoint: "above" 250.2 1520 basechar 0
Fore
173.7 1556 m 1,0,-1
 339.3 1556 l 1,1,-1
 339.3 0 l 1,2,-1
 173.7 0 l 1,3,-1
 173.7 1556 l 1,0,-1
EndSplineSet
AlternateSubs2: "'aalt' Access All Alternates in Latin lookup 29" l.alt
Substitution2: "'salt' Stylistic Alternatives in Latin lookup 28" l.alt
EndChar
StartChar: m
Encoding: 109 109 109
Width: 1795
Flags: W
AnchorPoint: "half" 0 1520 basechar 0
AnchorPoint: "below" 900.9 0 basechar 0
AnchorPoint: "above" 900.9 1147 basechar 0
Fore
958.5 905 m 1,0,1
 1020.6 1029 1020.6 1029 1107 1088 c 128,-1,2
 1193.4 1147 1193.4 1147 1310.4 1147 c 0,3,4
 1467.9 1147 1467.9 1147 1553.4 1024.5 c 128,-1,5
 1638.9 902 1638.9 902 1638.9 676 c 2,6,-1
 1638.9 0 l 1,7,-1
 1472.4 0 l 1,8,-1
 1472.4 670 l 2,9,10
 1472.4 831 1472.4 831 1421.1 909 c 128,-1,11
 1369.8 987 1369.8 987 1264.5 987 c 0,12,13
 1135.8 987 1135.8 987 1061.1 892 c 128,-1,14
 986.4 797 986.4 797 986.4 633 c 2,15,-1
 986.4 0 l 1,16,-1
 819.9 0 l 1,17,-1
 819.9 670 l 2,18,19
 819.9 832 819.9 832 768.6 909.5 c 128,-1,20
 717.3 987 717.3 987 610.2 987 c 0,21,22
 483.3 987 483.3 987 408.6 891.5 c 128,-1,23
 333.9 796 333.9 796 333.9 633 c 2,24,-1
 333.9 0 l 1,25,-1
 167.4 0 l 1,26,-1
 167.4 1120 l 1,27,-1
 333.9 1120 l 1,28,-1
 333.9 946 l 1,29,30
 390.6 1049 390.6 1049 469.8 1098 c 128,-1,31
 549 1147 549 1147 657.9 1147 c 0,32,33
 767.7 1147 767.7 1147 844.65 1085 c 128,-1,34
 921.6 1023 921.6 1023 958.5 905 c 1,0,1
EndSplineSet
EndChar
StartChar: n
Encoding: 110 110 110
Width: 1168
Flags: W
AnchorPoint: "half" 0 1520 basechar 0
AnchorPoint: "below" 610.2 0 basechar 0
AnchorPoint: "above" 584.1 1147 basechar 0
Fore
1011.6 676 m 2,0,-1
 1011.6 0 l 1,1,-1
 846 0 l 1,2,-1
 846 670 l 2,3,4
 846 829 846 829 790.2 908 c 128,-1,5
 734.4 987 734.4 987 622.8 987 c 0,6,7
 488.7 987 488.7 987 411.3 892 c 128,-1,8
 333.9 797 333.9 797 333.9 633 c 2,9,-1
 333.9 0 l 1,10,-1
 167.4 0 l 1,11,-1
 167.4 1120 l 1,12,-1
 333.9 1120 l 1,13,-1
 333.9 946 l 1,14,15
 393.3 1047 393.3 1047 473.85 1097 c 128,-1,16
 554.4 1147 554.4 1147 659.7 1147 c 0,17,18
 833.4 1147 833.4 1147 922.5 1027.5 c 128,-1,19
 1011.6 908 1011.6 908 1011.6 676 c 2,0,-1
EndSplineSet
EndChar
StartChar: o
Encoding: 111 111 111
Width: 1127
Flags: W
AnchorPoint: "half" 0 1520 basechar 0
AnchorPoint: "cedilla" 564.3 0 basechar 0
AnchorPoint: "below" 564.3 0 basechar 0
AnchorPoint: "above" 564.3 1147 basechar 0 12
Fore
564.3 991 m 0,0,1
 431.1 991 431.1 991 353.7 875.5 c 128,-1,2
 276.3 760 276.3 760 276.3 559 c 0,3,4
 276.3 358 276.3 358 353.25 242.5 c 128,-1,5
 430.2 127 430.2 127 564.3 127 c 0,6,7
 696.6 127 696.6 127 774 243 c 128,-1,8
 851.4 359 851.4 359 851.4 559 c 0,9,10
 851.4 758 851.4 758 774 874.5 c 128,-1,11
 696.6 991 696.6 991 564.3 991 c 0,0,1
564.3 1147 m 0,12,13
 780.3 1147 780.3 1147 903.6 991 c 128,-1,14
 1026.9 835 1026.9 835 1026.9 559 c 0,15,16
 1026.9 284 1026.9 284 903.6 127.5 c 128,-1,17
 780.3 -29 780.3 -29 564.3 -29 c 0,18,19
 347.4 -29 347.4 -29 224.55 127.5 c 128,-1,20
 101.7 284 101.7 284 101.7 559 c 0,21,22
 101.7 835 101.7 835 224.55 991 c 128,-1,23
 347.4 1147 347.4 1147 564.3 1147 c 0,12,13
EndSplineSet
EndChar
StartChar: p
Encoding: 112 112 112
Width: 1170
Flags: W
AnchorPoint: "half" 0 1520 basechar 0
AnchorPoint: "below" 610.2 -430 basechar 0
AnchorPoint: "above" 610.2 1147 basechar 0
Fore
333.9 168 m 1,0,-1
 333.9 -426 l 1,1,-1
 167.4 -426 l 1,2,-1
 167.4 1120 l 1,3,-1
 333.9 1120 l 1,4,-1
 333.9 950 l 1,5,6
 386.1 1050 386.1 1050 465.75 1098.5 c 128,-1,7
 545.4 1147 545.4 1147 656.1 1147 c 0,8,9
 839.7 1147 839.7 1147 954.45 985 c 128,-1,10
 1069.2 823 1069.2 823 1069.2 559 c 0,11,12
 1069.2 295 1069.2 295 954.45 133 c 128,-1,13
 839.7 -29 839.7 -29 656.1 -29 c 0,14,15
 545.4 -29 545.4 -29 465.75 19.5 c 128,-1,16
 386.1 68 386.1 68 333.9 168 c 1,0,-1
897.3 559 m 0,17,18
 897.3 762 897.3 762 822.15 877.5 c 128,-1,19
 747 993 747 993 615.6 993 c 0,20,21
 484.2 993 484.2 993 409.05 877.5 c 128,-1,22
 333.9 762 333.9 762 333.9 559 c 0,23,24
 333.9 356 333.9 356 409.05 240.5 c 128,-1,25
 484.2 125 484.2 125 615.6 125 c 0,26,27
 747 125 747 125 822.15 240.5 c 128,-1,28
 897.3 356 897.3 356 897.3 559 c 0,17,18
EndSplineSet
EndChar
StartChar: q
Encoding: 113 113 113
Width: 1170
Flags: W
AnchorPoint: "half" 0 1520 basechar 0
AnchorPoint: "below" 583.2 -430 basechar 0
AnchorPoint: "above" 560.7 1147 basechar 0
Fore
272.7 559 m 0,0,1
 272.7 356 272.7 356 347.85 240.5 c 128,-1,2
 423 125 423 125 554.4 125 c 0,3,4
 685.8 125 685.8 125 761.4 240.5 c 128,-1,5
 837 356 837 356 837 559 c 0,6,7
 837 762 837 762 761.4 877.5 c 128,-1,8
 685.8 993 685.8 993 554.4 993 c 0,9,10
 423 993 423 993 347.85 877.5 c 128,-1,11
 272.7 762 272.7 762 272.7 559 c 0,0,1
837 168 m 1,12,13
 784.8 68 784.8 68 705.15 19.5 c 128,-1,14
 625.5 -29 625.5 -29 513.9 -29 c 0,15,16
 331.2 -29 331.2 -29 216.45 133 c 128,-1,17
 101.7 295 101.7 295 101.7 559 c 0,18,19
 101.7 823 101.7 823 216.45 985 c 128,-1,20
 331.2 1147 331.2 1147 513.9 1147 c 0,21,22
 625.5 1147 625.5 1147 705.15 1098.5 c 128,-1,23
 784.8 1050 784.8 1050 837 950 c 1,24,-1
 837 1120 l 1,25,-1
 1002.6 1120 l 1,26,-1
 1002.6 -426 l 1,27,-1
 837 -426 l 1,28,-1
 837 168 l 1,12,13
EndSplineSet
EndChar
StartChar: r
Encoding: 114 114 114
Width: 757
Flags: W
AnchorPoint: "half" 0 1520 basechar 0
AnchorPoint: "below" 481.5 0 basechar 0
AnchorPoint: "above" 481.5 1147 basechar 0
Fore
757.8 948 m 1,0,1
 729.9 966 729.9 966 697.05 974.5 c 128,-1,2
 664.2 983 664.2 983 624.6 983 c 0,3,4
 484.2 983 484.2 983 409.05 881.5 c 128,-1,5
 333.9 780 333.9 780 333.9 590 c 2,6,-1
 333.9 0 l 1,7,-1
 167.4 0 l 1,8,-1
 167.4 1120 l 1,9,-1
 333.9 1120 l 1,10,-1
 333.9 946 l 1,11,12
 386.1 1048 386.1 1048 469.8 1097.5 c 128,-1,13
 553.5 1147 553.5 1147 673.2 1147 c 0,14,15
 690.3 1147 690.3 1147 711 1144.5 c 128,-1,16
 731.7 1142 731.7 1142 756.9 1137 c 1,17,-1
 757.8 948 l 1,0,1
EndSplineSet
EndChar
StartChar: s
Encoding: 115 115 115
Width: 960
Flags: W
AnchorPoint: "half" 0 1520 basechar 0
AnchorPoint: "cedilla" 502.2 0 basechar 0
AnchorPoint: "below" 494.1 0 basechar 0
AnchorPoint: "above" 495.9 1147 basechar 0
Fore
816.3 1087 m 1,0,-1
 816.3 913 l 1,1,2
 746.1 953 746.1 953 670.5 973 c 128,-1,3
 594.9 993 594.9 993 513.9 993 c 0,4,5
 390.6 993 390.6 993 328.95 951 c 128,-1,6
 267.3 909 267.3 909 267.3 825 c 0,7,8
 267.3 761 267.3 761 311.4 724.5 c 128,-1,9
 355.5 688 355.5 688 488.7 655 c 2,10,-1
 545.4 641 l 2,11,12
 721.8 599 721.8 599 796.05 522.5 c 128,-1,13
 870.3 446 870.3 446 870.3 309 c 0,14,15
 870.3 153 870.3 153 759.15 62 c 128,-1,16
 648 -29 648 -29 453.6 -29 c 0,17,18
 372.6 -29 372.6 -29 284.85 -11.5 c 128,-1,19
 197.1 6 197.1 6 99.9004 41 c 1,20,-1
 99.9004 231 l 1,21,22
 191.7 178 191.7 178 280.8 151.5 c 128,-1,23
 369.9 125 369.9 125 457.2 125 c 0,24,25
 574.2 125 574.2 125 637.2 169.5 c 128,-1,26
 700.2 214 700.2 214 700.2 295 c 0,27,28
 700.2 370 700.2 370 654.75 410 c 128,-1,29
 609.3 450 609.3 450 455.4 487 c 2,30,-1
 397.8 502 l 1,31,32
 243.9 538 243.9 538 175.5 612.5 c 128,-1,33
 107.1 687 107.1 687 107.1 817 c 0,34,35
 107.1 975 107.1 975 207.9 1061 c 128,-1,36
 308.7 1147 308.7 1147 494.1 1147 c 0,37,38
 585.9 1147 585.9 1147 666.9 1132 c 128,-1,39
 747.9 1117 747.9 1117 816.3 1087 c 1,0,-1
EndSplineSet
EndChar
StartChar: t
Encoding: 116 116 116
Width: 722
Flags: W
AnchorPoint: "half" 0 1520 basechar 0
AnchorPoint: "below" 450 0 basechar 0
AnchorPoint: "above" 253.8 1520 basechar 0
Fore
337.5 1438 m 1,0,-1
 337.5 1120 l 1,1,-1
 678.6 1120 l 1,2,-1
 678.6 977 l 1,3,-1
 337.5 977 l 1,4,-1
 337.5 369 l 2,5,6
 337.5 232 337.5 232 371.25 193 c 128,-1,7
 405 154 405 154 508.5 154 c 2,8,-1
 678.6 154 l 1,9,-1
 678.6 0 l 1,10,-1
 508.5 0 l 2,11,12
 316.8 0 316.8 0 243.9 79.5 c 128,-1,13
 171 159 171 159 171 369 c 2,14,-1
 171 977 l 1,15,-1
 49.5 977 l 1,16,-1
 49.5 1120 l 1,17,-1
 171 1120 l 1,18,-1
 171 1438 l 1,19,-1
 337.5 1438 l 1,0,-1
EndSplineSet
EndChar
StartChar: u
Encoding: 117 117 117
Width: 1168
Flags: W
AnchorPoint: "half" 0 1520 basechar 0
AnchorPoint: "cedilla" 573.3 0 basechar 0
AnchorPoint: "below" 573.3 0 basechar 0
AnchorPoint: "above" 573.3 1147 basechar 0 20
Fore
156.6 442 m 2,0,-1
 156.6 1120 l 1,1,-1
 322.2 1120 l 1,2,-1
 322.2 449 l 2,3,4
 322.2 290 322.2 290 378 210.5 c 128,-1,5
 433.8 131 433.8 131 545.4 131 c 0,6,7
 679.5 131 679.5 131 757.35 226 c 128,-1,8
 835.2 321 835.2 321 835.2 485 c 2,9,-1
 835.2 1120 l 1,10,-1
 1000.8 1120 l 1,11,-1
 1000.8 0 l 1,12,-1
 835.2 0 l 1,13,-1
 835.2 172 l 1,14,15
 774.9 70 774.9 70 695.25 20.5 c 128,-1,16
 615.6 -29 615.6 -29 510.3 -29 c 0,17,18
 336.6 -29 336.6 -29 246.6 91 c 128,-1,19
 156.6 211 156.6 211 156.6 442 c 2,0,-1
573.3 1147 m 25,20,-1
EndSplineSet
EndChar
StartChar: v
Encoding: 118 118 118
Width: 1090
Flags: W
AnchorPoint: "half" 0 1520 basechar 0
AnchorPoint: "below" 545.4 0 basechar 0
AnchorPoint: "above" 545.4 1147 basechar 0
Fore
54.9004 1120 m 1,0,-1
 230.4 1120 l 1,1,-1
 545.4 180 l 1,2,-1
 860.4 1120 l 1,3,-1
 1035.9 1120 l 1,4,-1
 657.9 0 l 1,5,-1
 432.9 0 l 1,6,-1
 54.9004 1120 l 1,0,-1
EndSplineSet
EndChar
StartChar: w
Encoding: 119 119 119
Width: 1507
Flags: W
AnchorPoint: "half" 0 1520 basechar 0
AnchorPoint: "below" 755.1 0 basechar 0
AnchorPoint: "above" 755.1 1147 basechar 0
Fore
77.4004 1120 m 1,0,-1
 243 1120 l 1,1,-1
 450 246 l 1,2,-1
 656.1 1120 l 1,3,-1
 851.4 1120 l 1,4,-1
 1058.4 246 l 1,5,-1
 1264.5 1120 l 1,6,-1
 1430.1 1120 l 1,7,-1
 1166.4 0 l 1,8,-1
 971.1 0 l 1,9,-1
 754.2 918 l 1,10,-1
 536.4 0 l 1,11,-1
 341.1 0 l 1,12,-1
 77.4004 1120 l 1,0,-1
EndSplineSet
EndChar
StartChar: x
Encoding: 120 120 120
Width: 1090
Flags: W
AnchorPoint: "half" 0 1520 basechar 0
AnchorPoint: "below" 549 0 basechar 0
AnchorPoint: "above" 549 1147 basechar 0
Fore
1011.6 1120 m 1,0,-1
 647.1 575 l 1,1,-1
 1030.5 0 l 1,2,-1
 835.2 0 l 1,3,-1
 541.8 440 l 1,4,-1
 248.4 0 l 1,5,-1
 53.0996 0 l 1,6,-1
 444.6 586 l 1,7,-1
 86.4004 1120 l 1,8,-1
 281.7 1120 l 1,9,-1
 549 721 l 1,10,-1
 816.3 1120 l 1,11,-1
 1011.6 1120 l 1,0,-1
EndSplineSet
EndChar
StartChar: y
Encoding: 121 121 121
Width: 1090
Flags: W
AnchorPoint: "half" 0 1520 basechar 0
AnchorPoint: "below" 547.2 -430 basechar 0
AnchorPoint: "above" 547.2 1147 basechar 0
Fore
593.1 -104 m 1,0,1
 522.9 -304 522.9 -304 456.3 -365 c 128,-1,2
 389.7 -426 389.7 -426 278.1 -426 c 2,3,-1
 145.8 -426 l 1,4,-1
 145.8 -272 l 1,5,-1
 243 -272 l 2,6,7
 311.4 -272 311.4 -272 349.2 -236 c 128,-1,8
 387 -200 387 -200 432.9 -66 c 1,9,-1
 462.6 18 l 1,10,-1
 54.9004 1120 l 1,11,-1
 230.4 1120 l 1,12,-1
 545.4 244 l 1,13,-1
 860.4 1120 l 1,14,-1
 1035.9 1120 l 1,15,-1
 593.1 -104 l 1,0,1
EndSplineSet
EndChar
StartChar: z
Encoding: 122 122 122
Width: 967
Flags: W
AnchorPoint: "half" 0 1520 basechar 0
AnchorPoint: "below" 481.5 0 basechar 0
AnchorPoint: "above" 481.5 1147 basechar 0
Fore
101.7 1120 m 1,0,-1
 888.3 1120 l 1,1,-1
 888.3 952 l 1,2,-1
 265.5 147 l 1,3,-1
 888.3 147 l 1,4,-1
 888.3 0 l 1,5,-1
 79.2002 0 l 1,6,-1
 79.2002 168 l 1,7,-1
 702 973 l 1,8,-1
 101.7 973 l 1,9,-1
 101.7 1120 l 1,0,-1
EndSplineSet
EndChar
StartChar: braceleft
Encoding: 123 123 123
Width: 1172
Flags: W
Fore
942.3 -190 m 1,0,-1
 942.3 -334 l 1,1,-1
 886.5 -334 l 2,2,3
 662.4 -334 662.4 -334 586.35 -260 c 128,-1,4
 510.3 -186 510.3 -186 510.3 35 c 2,5,-1
 510.3 274 l 2,6,7
 510.3 425 510.3 425 461.7 483 c 128,-1,8
 413.1 541 413.1 541 285.3 541 c 2,9,-1
 230.4 541 l 1,10,-1
 230.4 684 l 1,11,-1
 285.3 684 l 2,12,13
 414 684 414 684 462.15 741.5 c 128,-1,14
 510.3 799 510.3 799 510.3 948 c 2,15,-1
 510.3 1188 l 2,16,17
 510.3 1409 510.3 1409 586.35 1482.5 c 128,-1,18
 662.4 1556 662.4 1556 886.5 1556 c 2,19,-1
 942.3 1556 l 1,20,-1
 942.3 1413 l 1,21,-1
 881.1 1413 l 2,22,23
 754.2 1413 754.2 1413 715.5 1369 c 128,-1,24
 676.8 1325 676.8 1325 676.8 1184 c 2,25,-1
 676.8 936 l 2,26,27
 676.8 779 676.8 779 635.85 708 c 128,-1,28
 594.9 637 594.9 637 495.9 612 c 1,29,30
 595.8 585 595.8 585 636.3 514 c 128,-1,31
 676.8 443 676.8 443 676.8 287 c 2,32,-1
 676.8 39 l 2,33,34
 676.8 -102 676.8 -102 715.5 -146 c 128,-1,35
 754.2 -190 754.2 -190 881.1 -190 c 2,36,-1
 942.3 -190 l 1,0,-1
EndSplineSet
EndChar
StartChar: bar
Encoding: 124 124 124
Width: 621
Flags: W
Fore
387 1565 m 1,0,-1
 387 -483 l 1,1,-1
 234 -483 l 1,2,-1
 234 1565 l 1,3,-1
 387 1565 l 1,0,-1
EndSplineSet
EndChar
StartChar: braceright
Encoding: 125 125 125
Width: 1172
Flags: W
Fore
230.4 -190 m 1,0,-1
 293.4 -190 l 2,1,2
 419.4 -190 419.4 -190 457.65 -147 c 128,-1,3
 495.9 -104 495.9 -104 495.9 39 c 2,4,-1
 495.9 287 l 2,5,6
 495.9 443 495.9 443 536.4 514 c 128,-1,7
 576.9 585 576.9 585 676.8 612 c 1,8,9
 576.9 637 576.9 637 536.4 708 c 128,-1,10
 495.9 779 495.9 779 495.9 936 c 2,11,-1
 495.9 1184 l 2,12,13
 495.9 1326 495.9 1326 457.65 1369.5 c 128,-1,14
 419.4 1413 419.4 1413 293.4 1413 c 2,15,-1
 230.4 1413 l 1,16,-1
 230.4 1556 l 1,17,-1
 287.1 1556 l 2,18,19
 511.2 1556 511.2 1556 586.35 1482.5 c 128,-1,20
 661.5 1409 661.5 1409 661.5 1188 c 2,21,-1
 661.5 948 l 2,22,23
 661.5 799 661.5 799 710.1 741.5 c 128,-1,24
 758.7 684 758.7 684 886.5 684 c 2,25,-1
 942.3 684 l 1,26,-1
 942.3 541 l 1,27,-1
 886.5 541 l 2,28,29
 758.7 541 758.7 541 710.1 483 c 128,-1,30
 661.5 425 661.5 425 661.5 274 c 2,31,-1
 661.5 35 l 2,32,33
 661.5 -186 661.5 -186 586.35 -260 c 128,-1,34
 511.2 -334 511.2 -334 287.1 -334 c 2,35,-1
 230.4 -334 l 1,36,-1
 230.4 -190 l 1,0,-1
EndSplineSet
EndChar
StartChar: asciitilde
Encoding: 126 126 126
Width: 1544
Flags: W
Fore
1349.1 817 m 1,0,-1
 1349.1 639 l 1,1,2
 1254.6 560 1254.6 560 1174.05 526 c 128,-1,3
 1093.5 492 1093.5 492 1006.2 492 c 0,4,5
 907.2 492 907.2 492 775.8 551 c 0,6,7
 765.9 555 765.9 555 761.4 557 c 0,8,9
 755.1 560 755.1 560 741.6 565 c 0,10,11
 602.1 627 602.1 627 517.5 627 c 0,12,13
 438.3 627 438.3 627 360.9 588.5 c 128,-1,14
 283.5 550 283.5 550 195.3 467 c 1,15,-1
 195.3 645 l 1,16,17
 289.8 724 289.8 724 370.35 758.5 c 128,-1,18
 450.9 793 450.9 793 538.2 793 c 0,19,20
 637.2 793 637.2 793 769.5 733 c 0,21,22
 778.5 729 778.5 729 783 727 c 0,23,24
 790.2 724 790.2 724 802.8 719 c 0,25,26
 942.3 657 942.3 657 1026.9 657 c 0,27,28
 1104.3 657 1104.3 657 1180.35 695 c 128,-1,29
 1256.4 733 1256.4 733 1349.1 817 c 1,0,-1
EndSplineSet
EndChar
StartChar: exclamdown
Encoding: 161 161 161
Width: 738
Flags: W
Fore
460.8 1239 m 1,0,-1
 278.1 1239 l 1,1,-1
 278.1 1493 l 1,2,-1
 460.8 1493 l 1,3,-1
 460.8 1239 l 1,0,-1
460.8 0 m 1,4,-1
 278.1 0 l 1,5,-1
 278.1 655 l 1,6,-1
 297 1012 l 1,7,-1
 442.8 1012 l 1,8,-1
 460.8 655 l 1,9,-1
 460.8 0 l 1,4,-1
EndSplineSet
EndChar
StartChar: cent
Encoding: 162 162 162
Width: 1172
Flags: W
Fore
610.2 131 m 1,0,-1
 610.2 987 l 1,1,2
 477.9 969 477.9 969 404.1 856 c 128,-1,3
 330.3 743 330.3 743 330.3 559 c 0,4,5
 330.3 374 330.3 374 404.1 261 c 128,-1,6
 477.9 148 477.9 148 610.2 131 c 1,0,-1
953.1 1077 m 1,7,-1
 953.1 905 l 1,8,9
 886.5 946 886.5 946 825.3 967 c 128,-1,10
 764.1 988 764.1 988 702.9 991 c 1,11,-1
 702 127 l 1,12,13
 765 132 765 132 826.65 153 c 128,-1,14
 888.3 174 888.3 174 953.1 213 c 1,15,-1
 953.1 43 l 1,16,17
 894.6 13 894.6 13 832.95 -4.5 c 128,-1,18
 771.3 -22 771.3 -22 702 -29 c 1,19,-1
 702 -313 l 1,20,-1
 610.2 -313 l 1,21,-1
 610.2 -25 l 1,22,23
 393.3 -5 393.3 -5 274.05 148.5 c 128,-1,24
 154.8 302 154.8 302 154.8 559 c 0,25,26
 154.8 817 154.8 817 274.05 970 c 128,-1,27
 393.3 1123 393.3 1123 610.2 1145 c 1,28,-1
 610.2 1432 l 1,29,-1
 702 1432 l 1,30,-1
 702.9 1145 l 1,31,32
 768.6 1141 768.6 1141 830.25 1124.5 c 128,-1,33
 891.9 1108 891.9 1108 953.1 1077 c 1,7,-1
EndSplineSet
EndChar
StartChar: sterling
Encoding: 163 163 163
Width: 1172
Flags: W
Fore
991.8 1460 m 1,0,-1
 991.8 1278 l 1,1,2
 923.4 1319 923.4 1319 862.2 1339.5 c 128,-1,3
 801 1360 801 1360 746.1 1360 c 0,4,5
 612.9 1360 612.9 1360 560.7 1282.5 c 128,-1,6
 508.5 1205 508.5 1205 508.5 993 c 2,7,-1
 508.5 778 l 1,8,-1
 860.4 778 l 1,9,-1
 860.4 635 l 1,10,-1
 508.5 635 l 1,11,-1
 508.5 170 l 1,12,-1
 1009.8 170 l 1,13,-1
 1009.8 0 l 1,14,-1
 116.1 0 l 1,15,-1
 116.1 170 l 1,16,-1
 328.5 170 l 1,17,-1
 328.5 635 l 1,18,-1
 149.4 635 l 1,19,-1
 149.4 778 l 1,20,-1
 328.5 778 l 1,21,-1
 328.5 1016 l 2,22,23
 328.5 1277 328.5 1277 424.8 1398.5 c 128,-1,24
 521.1 1520 521.1 1520 729.9 1520 c 0,25,26
 784.8 1520 784.8 1520 852.75 1504.5 c 128,-1,27
 920.7 1489 920.7 1489 991.8 1460 c 1,0,-1
EndSplineSet
EndChar
StartChar: currency
Encoding: 164 164 164
Width: 1172
Flags: W
Fore
801.9 993 m 1,0,-1
 988.2 1202 l 1,1,-1
 1090.8 1087 l 1,2,-1
 905.4 881 l 1,3,4
 938.7 822 938.7 822 954.9 762.5 c 128,-1,5
 971.1 703 971.1 703 971.1 641 c 0,6,7
 971.1 578 971.1 578 954 520.5 c 128,-1,8
 936.9 463 936.9 463 900.9 406 c 1,9,-1
 1089 199 l 1,10,-1
 986.4 86 l 1,11,-1
 800.1 293 l 1,12,13
 747 253 747 253 694.8 234 c 128,-1,14
 642.6 215 642.6 215 587.7 215 c 0,15,16
 535.5 215 535.5 215 481.5 233.5 c 128,-1,17
 427.5 252 427.5 252 372.6 289 c 1,18,-1
 186.3 82 l 1,19,-1
 84.5996 197 l 1,20,-1
 270.9 403 l 1,21,22
 237.6 465 237.6 465 220.95 524 c 128,-1,23
 204.3 583 204.3 583 204.3 641 c 0,24,25
 204.3 705 204.3 705 221.4 763 c 128,-1,26
 238.5 821 238.5 821 272.7 877 c 1,27,-1
 86.4004 1083 l 1,28,-1
 189.9 1198 l 1,29,-1
 376.2 991 l 1,30,31
 425.7 1030 425.7 1030 477.9 1048.5 c 128,-1,32
 530.1 1067 530.1 1067 587.7 1067 c 0,33,34
 641.7 1067 641.7 1067 694.35 1049 c 128,-1,35
 747 1031 747 1031 801.9 993 c 1,0,-1
829.8 643 m 0,36,37
 829.8 755 829.8 755 760.05 832 c 128,-1,38
 690.3 909 690.3 909 587.7 909 c 0,39,40
 486.9 909 486.9 909 415.8 832 c 128,-1,41
 344.7 755 344.7 755 344.7 643 c 0,42,43
 344.7 529 344.7 529 415.35 451 c 128,-1,44
 486 373 486 373 587.7 373 c 0,45,46
 689.4 373 689.4 373 759.6 451.5 c 128,-1,47
 829.8 530 829.8 530 829.8 643 c 0,36,37
EndSplineSet
EndChar
StartChar: yen
Encoding: 165 165 165
Width: 1172
Flags: W
Fore
1048.5 455 m 1,0,-1
 676.8 455 l 1,1,-1
 676.8 0 l 1,2,-1
 495.9 0 l 1,3,-1
 495.9 455 l 1,4,-1
 121.5 455 l 1,5,-1
 121.5 578 l 1,6,-1
 495.9 578 l 1,7,-1
 495.9 629 l 1,8,-1
 420.3 784 l 1,9,-1
 121.5 784 l 1,10,-1
 121.5 907 l 1,11,-1
 359.1 907 l 1,12,-1
 73.7998 1493 l 1,13,-1
 244.8 1493 l 1,14,-1
 585.9 793 l 1,15,-1
 925.2 1493 l 1,16,-1
 1097.1 1493 l 1,17,-1
 810.9 907 l 1,18,-1
 1048.5 907 l 1,19,-1
 1048.5 784 l 1,20,-1
 750.6 784 l 1,21,-1
 675 629 l 1,22,-1
 675 578 l 1,23,-1
 1048.5 578 l 1,24,-1
 1048.5 455 l 1,0,-1
EndSplineSet
EndChar
StartChar: brokenbar
Encoding: 166 166 166
Width: 621
Flags: W
Fore
387 408 m 1,0,-1
 387 -350 l 1,1,-1
 234 -350 l 1,2,-1
 234 408 l 1,3,-1
 387 408 l 1,0,-1
387 1432 m 1,4,-1
 387 674 l 1,5,-1
 234 674 l 1,6,-1
 234 1432 l 1,7,-1
 387 1432 l 1,4,-1
EndSplineSet
EndChar
StartChar: section
Encoding: 167 167 167
Width: 921
Flags: W
Fore
341.1 936 m 1,0,1
 284.4 890 284.4 890 256.5 845 c 128,-1,2
 228.6 800 228.6 800 228.6 754 c 0,3,4
 228.6 678 228.6 678 291.15 611.5 c 128,-1,5
 353.7 545 353.7 545 578.7 410 c 1,6,7
 635.4 455 635.4 455 663.3 500.5 c 128,-1,8
 691.2 546 691.2 546 691.2 592 c 0,9,10
 691.2 667 691.2 667 626.85 735 c 128,-1,11
 562.5 803 562.5 803 341.1 936 c 1,0,1
746.1 1462 m 1,12,-1
 746.1 1298 l 1,13,14
 671.4 1337 671.4 1337 607.05 1356.5 c 128,-1,15
 542.7 1376 542.7 1376 492.3 1376 c 0,16,17
 405 1376 405 1376 356.4 1336 c 128,-1,18
 307.8 1296 307.8 1296 307.8 1225 c 0,19,20
 307.8 1135 307.8 1135 493.2 1020 c 0,21,22
 516.6 1005 516.6 1005 529.2 997 c 0,23,24
 719.1 878 719.1 878 778.05 801 c 128,-1,25
 837 724 837 724 837 623 c 0,26,27
 837 533 837 533 795.6 463 c 128,-1,28
 754.2 393 754.2 393 670.5 340 c 1,29,30
 726.3 288 726.3 288 751.95 233.5 c 128,-1,31
 777.6 179 777.6 179 777.6 115 c 0,32,33
 777.6 -27 777.6 -27 685.8 -111 c 128,-1,34
 594 -195 594 -195 438.3 -195 c 0,35,36
 372.6 -195 372.6 -195 303.3 -180.5 c 128,-1,37
 234 -166 234 -166 154.8 -137 c 1,38,-1
 154.8 27 l 1,39,40
 233.1 -12 233.1 -12 299.7 -31.5 c 128,-1,41
 366.3 -51 366.3 -51 418.5 -51 c 0,42,43
 510.3 -51 510.3 -51 561.15 -9 c 128,-1,44
 612 33 612 33 612 109 c 0,45,46
 612 211 612 211 413.1 334 c 2,47,-1
 390.6 348 l 2,48,49
 198 468 198 468 140.4 544.5 c 128,-1,50
 82.7998 621 82.7998 621 82.7998 723 c 0,51,52
 82.7998 814 82.7998 814 124.65 885.5 c 128,-1,53
 166.5 957 166.5 957 248.4 1006 c 1,54,55
 195.3 1050 195.3 1050 168.75 1106 c 128,-1,56
 142.2 1162 142.2 1162 142.2 1231 c 0,57,58
 142.2 1361 142.2 1361 232.2 1440.5 c 128,-1,59
 322.2 1520 322.2 1520 471.6 1520 c 0,60,61
 537.3 1520 537.3 1520 606.15 1505.5 c 128,-1,62
 675 1491 675 1491 746.1 1462 c 1,12,-1
EndSplineSet
EndChar
StartChar: dieresis
Encoding: 168 168 168
Width: 921
Flags: W
Fore
545.4 1552 m 1,0,-1
 728.1 1552 l 1,1,-1
 728.1 1350 l 1,2,-1
 545.4 1350 l 1,3,-1
 545.4 1552 l 1,0,-1
193.5 1552 m 1,4,-1
 376.2 1552 l 1,5,-1
 376.2 1350 l 1,6,-1
 193.5 1350 l 1,7,-1
 193.5 1552 l 1,4,-1
EndSplineSet
LCarets2: 1 0 
EndChar
StartChar: copyright
Encoding: 169 169 169
Width: 1843
Flags: W
Fore
921.6 1485 m 0,0,1
 1058.4 1485 1058.4 1485 1176.75 1430 c 128,-1,2
 1295.1 1375 1295.1 1375 1393.2 1266 c 0,3,4
 1491.3 1157 1491.3 1157 1539.9 1026 c 128,-1,5
 1588.5 895 1588.5 895 1588.5 741 c 0,6,7
 1588.5 589 1588.5 589 1539.9 458.5 c 128,-1,8
 1491.3 328 1491.3 328 1393.2 219 c 0,9,10
 1295.1 110 1295.1 110 1176.75 55 c 128,-1,11
 1058.4 0 1058.4 0 921.6 0 c 0,12,13
 784.8 0 784.8 0 666.45 55 c 128,-1,14
 548.1 110 548.1 110 450 219 c 0,15,16
 351.9 328 351.9 328 303.3 458.5 c 128,-1,17
 254.7 589 254.7 589 254.7 741 c 0,18,19
 254.7 895 254.7 895 303.3 1026 c 128,-1,20
 351.9 1157 351.9 1157 450 1266 c 0,21,22
 548.1 1375 548.1 1375 666.45 1430 c 128,-1,23
 784.8 1485 784.8 1485 921.6 1485 c 0,0,1
921.6 1382 m 0,24,25
 803.7 1382 803.7 1382 702 1335 c 128,-1,26
 600.3 1288 600.3 1288 515.7 1194 c 0,27,28
 431.1 1100 431.1 1100 387.9 985.5 c 128,-1,29
 344.7 871 344.7 871 344.7 741 c 0,30,31
 344.7 612 344.7 612 387.9 498.5 c 128,-1,32
 431.1 385 431.1 385 515.7 291 c 0,33,34
 600.3 197 600.3 197 702 149.5 c 128,-1,35
 803.7 102 803.7 102 921.6 102 c 0,36,37
 1040.4 102 1040.4 102 1142.55 149.5 c 128,-1,38
 1244.7 197 1244.7 197 1329.3 291 c 0,39,40
 1413 384 1413 384 1454.85 497 c 128,-1,41
 1496.7 610 1496.7 610 1496.7 741 c 0,42,43
 1496.7 874 1496.7 874 1454.4 987.5 c 128,-1,44
 1412.1 1101 1412.1 1101 1329.3 1194 c 0,45,46
 1244.7 1288 1244.7 1288 1142.55 1335 c 128,-1,47
 1040.4 1382 1040.4 1382 921.6 1382 c 0,24,25
1190.7 1137 m 1,48,-1
 1190.7 1008 l 1,49,50
 1131.3 1041 1131.3 1041 1072.8 1057 c 128,-1,51
 1014.3 1073 1014.3 1073 954.9 1073 c 0,52,53
 820.8 1073 820.8 1073 745.65 985.5 c 128,-1,54
 670.5 898 670.5 898 670.5 741 c 0,55,56
 670.5 582 670.5 582 747.45 495 c 128,-1,57
 824.4 408 824.4 408 963.9 408 c 0,58,59
 1021.5 408 1021.5 408 1076.4 423.5 c 128,-1,60
 1131.3 439 1131.3 439 1190.7 473 c 1,61,-1
 1190.7 346 l 1,62,63
 1130.4 317 1130.4 317 1068.75 303 c 128,-1,64
 1007.1 289 1007.1 289 944.1 289 c 0,65,66
 749.7 289 749.7 289 636.75 411 c 128,-1,67
 523.8 533 523.8 533 523.8 741 c 0,68,69
 523.8 950 523.8 950 636.75 1071 c 128,-1,70
 749.7 1192 749.7 1192 944.1 1192 c 0,71,72
 1009.8 1192 1009.8 1192 1071 1178 c 128,-1,73
 1132.2 1164 1132.2 1164 1190.7 1137 c 1,48,-1
EndSplineSet
EndChar
StartChar: ordfeminine
Encoding: 170 170 170
Width: 868
Flags: W
Fore
125.1 592 m 1,0,-1
 744.3 592 l 1,1,-1
 744.3 469 l 1,2,-1
 125.1 469 l 1,3,-1
 125.1 592 l 1,0,-1
742.5 1165 m 2,4,-1
 742.5 717 l 1,5,-1
 608.4 717 l 1,6,-1
 608.4 829 l 1,7,8
 568.8 766 568.8 766 504 732 c 128,-1,9
 439.2 698 439.2 698 355.5 698 c 0,10,11
 240.3 698 240.3 698 171.9 765.5 c 128,-1,12
 103.5 833 103.5 833 103.5 946 c 0,13,14
 103.5 1081 103.5 1081 189.45 1150 c 128,-1,15
 275.4 1219 275.4 1219 444.6 1219 c 2,16,-1
 608.4 1219 l 1,17,-1
 608.4 1223 l 2,18,19
 608.4 1314 608.4 1314 555.75 1359.5 c 128,-1,20
 503.1 1405 503.1 1405 397.8 1405 c 0,21,22
 342 1405 342 1405 280.8 1388 c 128,-1,23
 219.6 1371 219.6 1371 158.4 1337 c 1,24,-1
 158.4 1464 l 1,25,26
 224.1 1492 224.1 1492 289.35 1506 c 128,-1,27
 354.6 1520 354.6 1520 416.7 1520 c 0,28,29
 581.4 1520 581.4 1520 661.95 1432 c 128,-1,30
 742.5 1344 742.5 1344 742.5 1165 c 2,4,-1
494.1 1104 m 2,31,32
 349.2 1104 349.2 1104 292.5 1070.5 c 128,-1,33
 235.8 1037 235.8 1037 235.8 958 c 0,34,35
 235.8 894 235.8 894 279.9 855.5 c 128,-1,36
 324 817 324 817 397.8 817 c 0,37,38
 491.4 817 491.4 817 549.9 889 c 128,-1,39
 608.4 961 608.4 961 608.4 1075 c 2,40,-1
 608.4 1104 l 1,41,-1
 494.1 1104 l 2,31,32
EndSplineSet
EndChar
StartChar: guillemotleft
Encoding: 171 171 171
Width: 1127
Flags: W
Fore
954.9 1059 m 1,0,-1
 954.9 868 l 1,1,-1
 684 600 l 1,2,-1
 954.9 332 l 1,3,-1
 954.9 141 l 1,4,-1
 532.8 559 l 1,5,-1
 532.8 641 l 1,6,-1
 954.9 1059 l 1,0,-1
564.3 1059 m 1,7,-1
 564.3 868 l 1,8,-1
 293.4 600 l 1,9,-1
 564.3 332 l 1,10,-1
 564.3 141 l 1,11,-1
 142.2 559 l 1,12,-1
 142.2 641 l 1,13,-1
 564.3 1059 l 1,7,-1
EndSplineSet
EndChar
StartChar: logicalnot
Encoding: 172 172 172
Width: 1544
Flags: W
Fore
195.3 862 m 1,0,-1
 1349.1 862 l 1,1,-1
 1349.1 287 l 1,2,-1
 1197.9 287 l 1,3,-1
 1197.9 692 l 1,4,-1
 195.3 692 l 1,5,-1
 195.3 862 l 1,0,-1
EndSplineSet
EndChar
StartChar: sfthyphen
Encoding: 173 173 173
Width: 665
Flags: W
Fore
90 643 m 1,0,-1
 575.1 643 l 1,1,-1
 575.1 479 l 1,2,-1
 90 479 l 1,3,-1
 90 643 l 1,0,-1
EndSplineSet
EndChar
StartChar: registered
Encoding: 174 174 174
Width: 1843
Flags: W
Fore
921.6 1382 m 0,0,1
 803.7 1382 803.7 1382 702 1335 c 128,-1,2
 600.3 1288 600.3 1288 515.7 1194 c 0,3,4
 431.1 1100 431.1 1100 387.9 985.5 c 128,-1,5
 344.7 871 344.7 871 344.7 741 c 0,6,7
 344.7 612 344.7 612 387.9 498.5 c 128,-1,8
 431.1 385 431.1 385 515.7 291 c 0,9,10
 600.3 197 600.3 197 702 149.5 c 128,-1,11
 803.7 102 803.7 102 921.6 102 c 0,12,13
 1040.4 102 1040.4 102 1142.55 149.5 c 128,-1,14
 1244.7 197 1244.7 197 1329.3 291 c 0,15,16
 1413 384 1413 384 1454.85 497 c 128,-1,17
 1496.7 610 1496.7 610 1496.7 741 c 0,18,19
 1496.7 874 1496.7 874 1454.4 987.5 c 128,-1,20
 1412.1 1101 1412.1 1101 1329.3 1194 c 0,21,22
 1244.7 1288 1244.7 1288 1142.55 1335 c 128,-1,23
 1040.4 1382 1040.4 1382 921.6 1382 c 0,0,1
921.6 1485 m 0,24,25
 1058.4 1485 1058.4 1485 1176.75 1430 c 128,-1,26
 1295.1 1375 1295.1 1375 1393.2 1266 c 0,27,28
 1491.3 1157 1491.3 1157 1539.9 1026 c 128,-1,29
 1588.5 895 1588.5 895 1588.5 741 c 0,30,31
 1588.5 589 1588.5 589 1539.9 458.5 c 128,-1,32
 1491.3 328 1491.3 328 1393.2 219 c 0,33,34
 1295.1 110 1295.1 110 1176.75 55 c 128,-1,35
 1058.4 0 1058.4 0 921.6 0 c 0,36,37
 784.8 0 784.8 0 666.45 55 c 128,-1,38
 548.1 110 548.1 110 450 219 c 0,39,40
 351.9 328 351.9 328 303.3 458.5 c 128,-1,41
 254.7 589 254.7 589 254.7 741 c 0,42,43
 254.7 895 254.7 895 303.3 1026 c 128,-1,44
 351.9 1157 351.9 1157 450 1266 c 0,45,46
 548.1 1375 548.1 1375 666.45 1430 c 128,-1,47
 784.8 1485 784.8 1485 921.6 1485 c 0,24,25
897.3 1071 m 2,48,-1
 786.6 1071 l 1,49,-1
 786.6 795 l 1,50,-1
 897.3 795 l 2,51,52
 996.3 795 996.3 795 1035.45 826 c 128,-1,53
 1074.6 857 1074.6 857 1074.6 932 c 0,54,55
 1074.6 1008 1074.6 1008 1035 1039.5 c 128,-1,56
 995.4 1071 995.4 1071 897.3 1071 c 2,48,-1
903.6 1174 m 2,57,58
 1062 1174 1062 1174 1140.3 1114.5 c 128,-1,59
 1218.6 1055 1218.6 1055 1218.6 934 c 0,60,61
 1218.6 848 1218.6 848 1171.35 792 c 128,-1,62
 1124.1 736 1124.1 736 1037.7 719 c 1,63,64
 1059.3 711 1059.3 711 1089.45 672.5 c 128,-1,65
 1119.6 634 1119.6 634 1161 561 c 1,66,-1
 1284.3 338 l 1,67,-1
 1129.5 338 l 1,68,-1
 1013.4 547 l 2,69,70
 960.3 643 960.3 643 927.45 668.5 c 128,-1,71
 894.6 694 894.6 694 846 694 c 2,72,-1
 786.6 694 l 1,73,-1
 786.6 338 l 1,74,-1
 647.1 338 l 1,75,-1
 647.1 1174 l 1,76,-1
 903.6 1174 l 2,57,58
EndSplineSet
EndChar
StartChar: macron
Encoding: 175 175 175
Width: 921
Flags: W
Fore
191.7 1526 m 1,0,-1
 729.9 1526 l 1,1,-1
 729.9 1378 l 1,2,-1
 191.7 1378 l 1,3,-1
 191.7 1526 l 1,0,-1
EndSplineSet
LCarets2: 1 0 
EndChar
StartChar: degree
Encoding: 176 176 176
Width: 921
Flags: W
Fore
460.8 1391 m 0,0,1
 388.8 1391 388.8 1391 339.3 1335.5 c 128,-1,2
 289.8 1280 289.8 1280 289.8 1200 c 0,3,4
 289.8 1121 289.8 1121 339.3 1066.5 c 128,-1,5
 388.8 1012 388.8 1012 460.8 1012 c 0,6,7
 532.8 1012 532.8 1012 582.3 1066.5 c 128,-1,8
 631.8 1121 631.8 1121 631.8 1200 c 0,9,10
 631.8 1279 631.8 1279 581.85 1335 c 128,-1,11
 531.9 1391 531.9 1391 460.8 1391 c 0,0,1
460.8 1520 m 0,12,13
 518.4 1520 518.4 1520 571.5 1495.5 c 128,-1,14
 624.6 1471 624.6 1471 663.3 1425 c 1,15,16
 704.7 1380 704.7 1380 725.4 1323 c 128,-1,17
 746.1 1266 746.1 1266 746.1 1200 c 0,18,19
 746.1 1068 746.1 1068 662.85 976.5 c 128,-1,20
 579.6 885 579.6 885 459 885 c 0,21,22
 337.5 885 337.5 885 256.5 975 c 128,-1,23
 175.5 1065 175.5 1065 175.5 1200 c 0,24,25
 175.5 1334 175.5 1334 258.3 1427 c 128,-1,26
 341.1 1520 341.1 1520 460.8 1520 c 0,12,13
EndSplineSet
EndChar
StartChar: plusminus
Encoding: 177 177 177
Width: 1544
Flags: W
Fore
847.8 1284 m 1,0,-1
 847.8 897 l 1,1,-1
 1349.1 897 l 1,2,-1
 1349.1 727 l 1,3,-1
 847.8 727 l 1,4,-1
 847.8 340 l 1,5,-1
 696.6 340 l 1,6,-1
 696.6 727 l 1,7,-1
 195.3 727 l 1,8,-1
 195.3 897 l 1,9,-1
 696.6 897 l 1,10,-1
 696.6 1284 l 1,11,-1
 847.8 1284 l 1,0,-1
195.3 170 m 1,12,-1
 1349.1 170 l 1,13,-1
 1349.1 0 l 1,14,-1
 195.3 0 l 1,15,-1
 195.3 170 l 1,12,-1
EndSplineSet
EndChar
StartChar: twosuperior
Encoding: 178 178 178
Width: 738
Flags: W
Fore
241.2 782 m 1,0,-1
 622.8 782 l 1,1,-1
 622.8 668 l 1,2,-1
 84.5996 668 l 1,3,-1
 84.5996 778 l 1,4,5
 115.2 809 115.2 809 171.9 865 c 0,6,7
 481.5 1170 481.5 1170 481.5 1264 c 0,8,9
 481.5 1330 481.5 1330 434.7 1370.5 c 128,-1,10
 387.9 1411 387.9 1411 311.4 1411 c 0,11,12
 264.6 1411 264.6 1411 209.7 1393.5 c 128,-1,13
 154.8 1376 154.8 1376 90 1341 c 1,14,-1
 90 1464 l 1,15,16
 159.3 1492 159.3 1492 219.15 1506 c 128,-1,17
 279 1520 279 1520 330.3 1520 c 0,18,19
 460.8 1520 460.8 1520 539.1 1454 c 128,-1,20
 617.4 1388 617.4 1388 617.4 1280 c 0,21,22
 617.4 1141 617.4 1141 319.5 857 c 0,23,24
 269.1 809 269.1 809 241.2 782 c 1,0,-1
EndSplineSet
EndChar
StartChar: threesuperior
Encoding: 179 179 179
Width: 738
Flags: W
Fore
471.6 1120 m 1,0,1
 554.4 1102 554.4 1102 599.85 1047.5 c 128,-1,2
 645.3 993 645.3 993 645.3 911 c 0,3,4
 645.3 787 645.3 787 559.8 720 c 128,-1,5
 474.3 653 474.3 653 315 653 c 0,6,7
 263.7 653 263.7 653 207.45 663.5 c 128,-1,8
 151.2 674 151.2 674 88.2002 694 c 1,9,-1
 88.2002 815 l 1,10,11
 135 788 135 788 188.55 775 c 128,-1,12
 242.1 762 242.1 762 302.4 762 c 0,13,14
 400.5 762 400.5 762 454.5 801.5 c 128,-1,15
 508.5 841 508.5 841 508.5 911 c 0,16,17
 508.5 985 508.5 985 458.55 1023 c 128,-1,18
 408.6 1061 408.6 1061 311.4 1061 c 2,19,-1
 234 1061 l 1,20,-1
 234 1169 l 1,21,-1
 318.6 1169 l 2,22,23
 403.2 1169 403.2 1169 446.85 1200.5 c 128,-1,24
 490.5 1232 490.5 1232 490.5 1292 c 0,25,26
 490.5 1350 490.5 1350 445.5 1380.5 c 128,-1,27
 400.5 1411 400.5 1411 315 1411 c 0,28,29
 279 1411 279 1411 233.1 1402 c 128,-1,30
 187.2 1393 187.2 1393 114.3 1370 c 1,31,-1
 114.3 1485 l 1,32,33
 180 1502 180 1502 237.6 1511 c 128,-1,34
 295.2 1520 295.2 1520 344.7 1520 c 0,35,36
 474.3 1520 474.3 1520 550.35 1461 c 128,-1,37
 626.4 1402 626.4 1402 626.4 1303 c 0,38,39
 626.4 1234 626.4 1234 585.9 1186 c 128,-1,40
 545.4 1138 545.4 1138 471.6 1120 c 1,0,1
EndSplineSet
EndChar
StartChar: acute
Encoding: 180 180 180
Width: 921
Flags: W
Fore
585.9 1638 m 1,0,-1
 765 1638 l 1,1,-1
 471.6 1262 l 1,2,-1
 333.9 1262 l 1,3,-1
 585.9 1638 l 1,0,-1
EndSplineSet
LCarets2: 1 0 
EndChar
StartChar: mu
Encoding: 181 181 181
Width: 1172
Flags: W
Fore
156.6 -426 m 1,0,-1
 156.6 1120 l 1,1,-1
 322.2 1120 l 1,2,-1
 322.2 424 l 2,3,4
 322.2 279 322.2 279 384.3 205 c 128,-1,5
 446.4 131 446.4 131 567.9 131 c 0,6,7
 701.1 131 701.1 131 768.15 215 c 128,-1,8
 835.2 299 835.2 299 835.2 467 c 2,9,-1
 835.2 1120 l 1,10,-1
 1000.8 1120 l 1,11,-1
 1000.8 258 l 2,12,13
 1000.8 198 1000.8 198 1016.55 169.5 c 128,-1,14
 1032.3 141 1032.3 141 1065.6 141 c 0,15,16
 1073.7 141 1073.7 141 1088.1 146.5 c 128,-1,17
 1102.5 152 1102.5 152 1127.7 164 c 1,18,-1
 1127.7 16 l 1,19,20
 1090.8 -7 1090.8 -7 1057.95 -18 c 128,-1,21
 1025.1 -29 1025.1 -29 993.6 -29 c 0,22,23
 931.5 -29 931.5 -29 894.6 10 c 128,-1,24
 857.7 49 857.7 49 844.2 129 c 1,25,26
 799.2 50 799.2 50 733.95 10.5 c 128,-1,27
 668.7 -29 668.7 -29 580.5 -29 c 0,28,29
 488.7 -29 488.7 -29 424.35 10 c 128,-1,30
 360 49 360 49 322.2 127 c 1,31,-1
 322.2 -426 l 1,32,-1
 156.6 -426 l 1,0,-1
EndSplineSet
EndChar
StartChar: paragraph
Encoding: 182 182 182
Width: 1172
Flags: W
Fore
569.7 1493 m 2,0,-1
 972.9 1493 l 1,1,-1
 972.9 -197 l 1,2,-1
 846 -197 l 1,3,-1
 846 1370 l 1,4,-1
 675 1370 l 1,5,-1
 675 -197 l 1,6,-1
 547.2 -197 l 1,7,-1
 547.2 649 l 1,8,9
 353.7 666 353.7 666 247.95 776.5 c 128,-1,10
 142.2 887 142.2 887 142.2 1071 c 0,11,12
 142.2 1261 142.2 1261 259.2 1377 c 128,-1,13
 376.2 1493 376.2 1493 569.7 1493 c 2,0,-1
EndSplineSet
EndChar
StartChar: periodcentered
Encoding: 183 183 183
Width: 585
Flags: W
Fore
197.1 838 m 1,0,-1
 387 838 l 1,1,-1
 387 584 l 1,2,-1
 197.1 584 l 1,3,-1
 197.1 838 l 1,0,-1
EndSplineSet
EndChar
StartChar: cedilla
Encoding: 184 184 184
Width: 921
Flags: W
Fore
536.4 0 m 1,0,1
 585.9 -62 585.9 -62 610.2 -114.5 c 128,-1,2
 634.5 -167 634.5 -167 634.5 -215 c 0,3,4
 634.5 -304 634.5 -304 580.5 -349.5 c 128,-1,5
 526.5 -395 526.5 -395 420.3 -395 c 0,6,7
 378.9 -395 378.9 -395 339.75 -389 c 128,-1,8
 300.6 -383 300.6 -383 261.9 -371 c 1,9,-1
 261.9 -240 l 1,10,11
 292.5 -257 292.5 -257 325.8 -264.5 c 128,-1,12
 359.1 -272 359.1 -272 401.4 -272 c 0,13,14
 454.5 -272 454.5 -272 481.5 -248 c 128,-1,15
 508.5 -224 508.5 -224 508.5 -178 c 0,16,17
 508.5 -148 508.5 -148 489.15 -104.5 c 128,-1,18
 469.8 -61 469.8 -61 429.3 0 c 1,19,-1
 536.4 0 l 1,0,1
EndSplineSet
LCarets2: 1 0 
EndChar
StartChar: onesuperior
Encoding: 185 185 185
Width: 738
Flags: W
Fore
140.4 778 m 1,0,-1
 324 778 l 1,1,-1
 324 1389 l 1,2,-1
 123.3 1348 l 1,3,-1
 123.3 1464 l 1,4,-1
 330.3 1503 l 1,5,-1
 453.6 1503 l 1,6,-1
 453.6 778 l 1,7,-1
 638.1 778 l 1,8,-1
 638.1 668 l 1,9,-1
 140.4 668 l 1,10,-1
 140.4 778 l 1,0,-1
EndSplineSet
EndChar
StartChar: ordmasculine
Encoding: 186 186 186
Width: 868
Flags: W
Fore
125.1 592 m 1,0,-1
 744.3 592 l 1,1,-1
 744.3 469 l 1,2,-1
 125.1 469 l 1,3,-1
 125.1 592 l 1,0,-1
434.7 1520 m 0,4,5
 595.8 1520 595.8 1520 688.5 1409.5 c 128,-1,6
 781.2 1299 781.2 1299 781.2 1108 c 0,7,8
 781.2 917 781.2 917 688.5 807.5 c 128,-1,9
 595.8 698 595.8 698 434.7 698 c 0,10,11
 273.6 698 273.6 698 180 808 c 128,-1,12
 86.4004 918 86.4004 918 86.4004 1108 c 0,13,14
 86.4004 1299 86.4004 1299 180 1409.5 c 128,-1,15
 273.6 1520 273.6 1520 434.7 1520 c 0,4,5
434.7 1405 m 0,16,17
 340.2 1405 340.2 1405 283.5 1324.5 c 128,-1,18
 226.8 1244 226.8 1244 226.8 1108 c 0,19,20
 226.8 975 226.8 975 283.95 895 c 128,-1,21
 341.1 815 341.1 815 434.7 815 c 0,22,23
 529.2 815 529.2 815 585.45 895 c 128,-1,24
 641.7 975 641.7 975 641.7 1108 c 0,25,26
 641.7 1245 641.7 1245 585.9 1325 c 128,-1,27
 530.1 1405 530.1 1405 434.7 1405 c 0,16,17
EndSplineSet
EndChar
StartChar: guillemotright
Encoding: 187 187 187
Width: 1127
Flags: W
Fore
173.7 1059 m 1,0,-1
 595.8 641 l 1,1,-1
 595.8 559 l 1,2,-1
 173.7 141 l 1,3,-1
 173.7 332 l 1,4,-1
 444.6 600 l 1,5,-1
 173.7 868 l 1,6,-1
 173.7 1059 l 1,0,-1
564.3 1059 m 1,7,-1
 986.4 641 l 1,8,-1
 986.4 559 l 1,9,-1
 564.3 141 l 1,10,-1
 564.3 332 l 1,11,-1
 835.2 600 l 1,12,-1
 564.3 868 l 1,13,-1
 564.3 1059 l 1,7,-1
EndSplineSet
EndChar
StartChar: questiondown
Encoding: 191 191 191
Width: 978
Flags: W
Fore
450 1092 m 1,0,-1
 621 1092 l 1,1,-1
 621 936 l 2,2,3
 621 835 621 835 596.25 770 c 128,-1,4
 571.5 705 571.5 705 490.5 618 c 2,5,-1
 409.5 530 l 1,6,7
 357.3 477 357.3 477 334.35 430 c 128,-1,8
 311.4 383 311.4 383 311.4 334 c 0,9,10
 311.4 245 311.4 245 370.35 190 c 128,-1,11
 429.3 135 429.3 135 527.4 135 c 0,12,13
 597.6 135 597.6 135 678.6 170 c 128,-1,14
 759.6 205 759.6 205 846 272 c 1,15,-1
 846 84 l 1,16,17
 761.4 27 761.4 27 675 -1 c 128,-1,18
 588.6 -29 588.6 -29 495.9 -29 c 0,19,20
 330.3 -29 330.3 -29 229.5 68 c 128,-1,21
 128.7 165 128.7 165 128.7 324 c 0,22,23
 128.7 400 128.7 400 161.55 468.5 c 128,-1,24
 194.4 537 194.4 537 274.5 623 c 2,25,-1
 353.7 709 l 2,26,27
 396.9 756 396.9 756 414 782.5 c 128,-1,28
 431.1 809 431.1 809 438.3 834 c 0,29,30
 444.6 855 444.6 855 447.3 885 c 128,-1,31
 450 915 450 915 450 969 c 2,32,-1
 450 1092 l 1,0,-1
626.4 1239 m 1,33,-1
 444.6 1239 l 1,34,-1
 444.6 1493 l 1,35,-1
 626.4 1493 l 1,36,-1
 626.4 1239 l 1,33,-1
EndSplineSet
EndChar
StartChar: Aring
Encoding: 197 197 197
Width: 1260
Flags: W
Fore
766.8 1626 m 0,0,1
 766.8 1689 766.8 1689 726.75 1733.5 c 128,-1,2
 686.7 1778 686.7 1778 630 1778 c 0,3,4
 572.4 1778 572.4 1778 533.25 1734.5 c 128,-1,5
 494.1 1691 494.1 1691 494.1 1626 c 0,6,7
 494.1 1563 494.1 1563 533.7 1519 c 128,-1,8
 573.3 1475 573.3 1475 630 1475 c 0,9,10
 686.7 1475 686.7 1475 726.75 1519 c 128,-1,11
 766.8 1563 766.8 1563 766.8 1626 c 0,0,1
630 1294 m 1,12,-1
 385.2 551 l 1,13,-1
 875.7 551 l 1,14,-1
 630 1294 l 1,12,-1
494.1 1397 m 1,15,16
 439.2 1438 439.2 1438 411.3 1495.5 c 128,-1,17
 383.4 1553 383.4 1553 383.4 1626 c 0,18,19
 383.4 1741 383.4 1741 454.95 1821 c 128,-1,20
 526.5 1901 526.5 1901 630 1901 c 0,21,22
 732.6 1901 732.6 1901 805.05 1820.5 c 128,-1,23
 877.5 1740 877.5 1740 877.5 1626 c 0,24,25
 877.5 1556 877.5 1556 849.15 1497 c 128,-1,26
 820.8 1438 820.8 1438 766.8 1397 c 1,27,-1
 1245.6 0 l 1,28,-1
 1056.6 0 l 1,29,-1
 934.2 383 l 1,30,-1
 328.5 383 l 1,31,-1
 206.1 0 l 1,32,-1
 14.4004 0 l 1,33,-1
 494.1 1397 l 1,15,16
EndSplineSet
EndChar
StartChar: AE
Encoding: 198 198 198
Width: 1795
Flags: W
Fore
1660.5 1493 m 1,0,-1
 1660.5 1323 l 1,1,-1
 993.6 1323 l 1,2,-1
 993.6 881 l 1,3,-1
 1633.5 881 l 1,4,-1
 1633.5 711 l 1,5,-1
 993.6 711 l 1,6,-1
 993.6 170 l 1,7,-1
 1677.6 170 l 1,8,-1
 1677.6 0 l 1,9,-1
 810.9 0 l 1,10,-1
 810.9 383 l 1,11,-1
 335.7 383 l 1,12,-1
 191.7 0 l 1,13,-1
 7.2002 0 l 1,14,-1
 569.7 1493 l 1,15,-1
 1660.5 1493 l 1,0,-1
694.8 1335 m 1,16,-1
 397.8 551 l 1,17,-1
 810.9 551 l 1,18,-1
 810.9 1335 l 1,19,-1
 694.8 1335 l 1,16,-1
EndSplineSet
EndChar
StartChar: Eth
Encoding: 208 208 208
Width: 1428
Flags: W
Fore
189.9 1493 m 1,0,-1
 564.3 1493 l 2,1,2
 954 1493 954 1493 1136.7 1312.5 c 128,-1,3
 1319.4 1132 1319.4 1132 1319.4 748 c 0,4,5
 1319.4 362 1319.4 362 1136.25 181 c 128,-1,6
 953.1 0 953.1 0 564.3 0 c 2,7,-1
 189.9 0 l 1,8,-1
 189.9 700 l 1,9,-1
 9 700 l 1,10,-1
 9 844 l 1,11,-1
 189.9 844 l 1,12,-1
 189.9 1493 l 1,0,-1
372.6 1327 m 1,13,-1
 372.6 844 l 1,14,-1
 675 844 l 1,15,-1
 675 700 l 1,16,-1
 372.6 700 l 1,17,-1
 372.6 166 l 1,18,-1
 591.3 166 l 2,19,20
 869.4 166 869.4 166 998.55 306 c 128,-1,21
 1127.7 446 1127.7 446 1127.7 748 c 0,22,23
 1127.7 1048 1127.7 1048 998.55 1187.5 c 128,-1,24
 869.4 1327 869.4 1327 591.3 1327 c 2,25,-1
 372.6 1327 l 1,13,-1
EndSplineSet
EndChar
StartChar: multiply
Encoding: 215 215 215
Width: 1544
Flags: W
Fore
1292.4 1100 m 1,0,-1
 881.1 641 l 1,1,-1
 1292.4 184 l 1,2,-1
 1185.3 63 l 1,3,-1
 772.2 522 l 1,4,-1
 359.1 63 l 1,5,-1
 252.9 184 l 1,6,-1
 663.3 641 l 1,7,-1
 252.9 1100 l 1,8,-1
 359.1 1221 l 1,9,-1
 772.2 762 l 1,10,-1
 1185.3 1221 l 1,11,-1
 1292.4 1100 l 1,0,-1
EndSplineSet
EndChar
StartChar: Oslash
Encoding: 216 216 216
Width: 1450
Flags: W
AnchorPoint: "above" 726.3 1520 basechar 0
Fore
1085.4 1112 m 1,0,-1
 440.1 266 l 1,1,2
 495.9 202 495.9 202 568.35 168.5 c 128,-1,3
 640.8 135 640.8 135 726.3 135 c 0,4,5
 924.3 135 924.3 135 1039.95 299 c 128,-1,6
 1155.6 463 1155.6 463 1155.6 745 c 0,7,8
 1155.6 857 1155.6 857 1138.05 949 c 128,-1,9
 1120.5 1041 1120.5 1041 1085.4 1112 c 1,0,-1
1011.6 1225 m 1,10,11
 956.7 1289 956.7 1289 884.25 1322.5 c 128,-1,12
 811.8 1356 811.8 1356 726.3 1356 c 0,13,14
 528.3 1356 528.3 1356 411.75 1192 c 128,-1,15
 295.2 1028 295.2 1028 295.2 745 c 0,16,17
 295.2 633 295.2 633 312.75 539 c 128,-1,18
 330.3 445 330.3 445 365.4 377 c 1,19,-1
 1011.6 1225 l 1,10,11
244.8 219 m 1,20,21
 174.6 321 174.6 321 139.05 453 c 128,-1,22
 103.5 585 103.5 585 103.5 745 c 0,23,24
 103.5 1099 103.5 1099 273.15 1309.5 c 128,-1,25
 442.8 1520 442.8 1520 726.3 1520 c 0,26,27
 843.3 1520 843.3 1520 942.75 1481.5 c 128,-1,28
 1042.2 1443 1042.2 1443 1120.5 1368 c 1,29,-1
 1266.3 1559 l 1,30,-1
 1358.1 1470 l 1,31,-1
 1205.1 1272 l 1,32,33
 1275.3 1169 1275.3 1169 1311.3 1036 c 128,-1,34
 1347.3 903 1347.3 903 1347.3 745 c 0,35,36
 1347.3 392 1347.3 392 1178.1 181.5 c 128,-1,37
 1008.9 -29 1008.9 -29 726.3 -29 c 0,38,39
 611.1 -29 611.1 -29 511.65 8.5 c 128,-1,40
 412.2 46 412.2 46 330.3 121 c 1,41,-1
 184.5 -70 l 1,42,-1
 91.7998 18 l 1,43,-1
 244.8 219 l 1,20,21
EndSplineSet
EndChar
StartChar: Thorn
Encoding: 222 222 222
Width: 1115
Flags: W
Fore
180.9 1493 m 1,0,-1
 362.7 1493 l 1,1,-1
 362.7 1229 l 1,2,-1
 591.3 1229 l 2,3,4
 817.2 1229 817.2 1229 932.85 1116.5 c 128,-1,5
 1048.5 1004 1048.5 1004 1048.5 784 c 0,6,7
 1048.5 564 1048.5 564 932.85 451 c 128,-1,8
 817.2 338 817.2 338 591.3 338 c 2,9,-1
 362.7 338 l 1,10,-1
 362.7 0 l 1,11,-1
 180.9 0 l 1,12,-1
 180.9 1493 l 1,0,-1
362.7 1063 m 1,13,-1
 362.7 504 l 1,14,-1
 591.3 504 l 2,15,16
 718.2 504 718.2 504 787.5 577 c 128,-1,17
 856.8 650 856.8 650 856.8 784 c 0,18,19
 856.8 918 856.8 918 787.95 990.5 c 128,-1,20
 719.1 1063 719.1 1063 591.3 1063 c 2,21,-1
 362.7 1063 l 1,13,-1
EndSplineSet
EndChar
StartChar: germandbls
Encoding: 223 223 223
Width: 1161
Flags: W
Fore
167.4 1137 m 2,0,1
 167.4 1337 167.4 1337 274.95 1446.5 c 128,-1,2
 382.5 1556 382.5 1556 578.7 1556 c 0,3,4
 765.9 1556 765.9 1556 864.45 1440 c 128,-1,5
 963 1324 963 1324 965.7 1100 c 1,6,7
 829.8 1092 829.8 1092 754.2 1034.5 c 128,-1,8
 678.6 977 678.6 977 678.6 881 c 0,9,10
 678.6 834 678.6 834 704.7 793.5 c 128,-1,11
 730.8 753 730.8 753 789.3 711 c 2,12,-1
 840.6 674 l 2,13,14
 990 568 990 568 1033.2 497 c 128,-1,15
 1076.4 426 1076.4 426 1076.4 326 c 0,16,17
 1076.4 154 1076.4 154 975.15 62.5 c 128,-1,18
 873.9 -29 873.9 -29 684 -29 c 0,19,20
 626.4 -29 626.4 -29 565.2 -16.5 c 128,-1,21
 504 -4 504 -4 438.3 20 c 1,22,-1
 438.3 184 l 1,23,24
 510.3 154 510.3 154 573.3 139.5 c 128,-1,25
 636.3 125 636.3 125 694.8 125 c 0,26,27
 799.2 125 799.2 125 853.2 172.5 c 128,-1,28
 907.2 220 907.2 220 907.2 311 c 0,29,30
 907.2 374 907.2 374 880.65 416 c 128,-1,31
 854.1 458 854.1 458 763.2 520 c 2,32,-1
 680.4 575 l 2,33,34
 594 634 594 634 554.85 701.5 c 128,-1,35
 515.7 769 515.7 769 515.7 860 c 0,36,37
 515.7 987 515.7 987 590.85 1073 c 128,-1,38
 666 1159 666 1159 801.9 1188 c 1,39,40
 794.7 1291 794.7 1291 735.75 1347 c 128,-1,41
 676.8 1403 676.8 1403 575.1 1403 c 0,42,43
 458.1 1403 458.1 1403 396.9 1333.5 c 128,-1,44
 335.7 1264 335.7 1264 335.7 1133 c 2,45,-1
 335.7 0 l 1,46,-1
 167.4 0 l 1,47,-1
 167.4 1137 l 2,0,1
EndSplineSet
EndChar
StartChar: ae
Encoding: 230 230 230
Width: 1809
Flags: W
AnchorPoint: "below" 895.5 0 basechar 0
AnchorPoint: "above" 895.5 1147 basechar 0
Fore
1546.2 660 m 1,0,1
 1545.3 811 1545.3 811 1471.05 901 c 128,-1,2
 1396.8 991 1396.8 991 1273.5 991 c 0,3,4
 1135.8 991 1135.8 991 1052.55 904 c 128,-1,5
 969.3 817 969.3 817 956.7 659 c 1,6,-1
 1546.2 660 l 1,0,1
895.5 963 m 1,7,8
 962.1 1053 962.1 1053 1057.5 1100 c 128,-1,9
 1152.9 1147 1152.9 1147 1271.7 1147 c 0,10,11
 1475.1 1147 1475.1 1147 1593.9 1001.5 c 128,-1,12
 1712.7 856 1712.7 856 1712.7 606 c 2,13,-1
 1712.7 516 l 1,14,-1
 951.3 516 l 1,15,16
 962.1 325 962.1 325 1053.9 225 c 128,-1,17
 1145.7 125 1145.7 125 1310.4 125 c 0,18,19
 1404 125 1404 125 1494 151.5 c 128,-1,20
 1584 178 1584 178 1674 231 c 1,21,-1
 1674 57 l 1,22,23
 1584 15 1584 15 1490.4 -7 c 128,-1,24
 1396.8 -29 1396.8 -29 1301.4 -29 c 0,25,26
 1151.1 -29 1151.1 -29 1039.5 31.5 c 128,-1,27
 927.9 92 927.9 92 858.6 211 c 1,28,29
 792.9 91 792.9 91 695.7 31 c 128,-1,30
 598.5 -29 598.5 -29 469.8 -29 c 0,31,32
 299.7 -29 299.7 -29 205.2 64.5 c 128,-1,33
 110.7 158 110.7 158 110.7 326 c 0,34,35
 110.7 515 110.7 515 224.55 611 c 128,-1,36
 338.4 707 338.4 707 564.3 707 c 2,37,-1
 796.5 707 l 1,38,-1
 796.5 725 l 2,39,40
 796.5 852 796.5 852 721.35 921.5 c 128,-1,41
 646.2 991 646.2 991 510.3 991 c 0,42,43
 423.9 991 423.9 991 342 968 c 128,-1,44
 260.1 945 260.1 945 184.5 899 c 1,45,-1
 184.5 1069 l 1,46,47
 275.4 1108 275.4 1108 360.9 1127.5 c 128,-1,48
 446.4 1147 446.4 1147 527.4 1147 c 0,49,50
 655.2 1147 655.2 1147 751.05 1099 c 128,-1,51
 846.9 1051 846.9 1051 895.5 963 c 1,7,8
631.8 563 m 2,52,53
 431.1 563 431.1 563 353.7 512 c 128,-1,54
 276.3 461 276.3 461 276.3 338 c 0,55,56
 276.3 240 276.3 240 334.35 182.5 c 128,-1,57
 392.4 125 392.4 125 492.3 125 c 0,58,59
 630 125 630 125 713.25 233.5 c 128,-1,60
 796.5 342 796.5 342 796.5 522 c 2,61,-1
 796.5 563 l 1,62,-1
 631.8 563 l 2,52,53
EndSplineSet
EndChar
StartChar: eth
Encoding: 240 240 240
Width: 1127
Flags: W
AnchorPoint: "above" 573.3 1520 basechar 0
AnchorPoint: "below" 573.3 0 basechar 0
Fore
754.2 915 m 1,0,1
 709.2 932 709.2 932 669.6 940 c 128,-1,2
 630 948 630 948 593.1 948 c 0,3,4
 442.8 948 442.8 948 359.55 840 c 128,-1,5
 276.3 732 276.3 732 276.3 537 c 0,6,7
 276.3 349 276.3 349 354.6 238 c 128,-1,8
 432.9 127 432.9 127 564.3 127 c 0,9,10
 694.8 127 694.8 127 773.1 238 c 128,-1,11
 851.4 349 851.4 349 851.4 537 c 0,12,13
 851.4 659 851.4 659 827.1 753 c 128,-1,14
 802.8 847 802.8 847 754.2 915 c 1,0,1
810.9 1141 m 2,15,16
 924.3 998 924.3 998 975.6 854 c 128,-1,17
 1026.9 710 1026.9 710 1026.9 537 c 0,18,19
 1026.9 282 1026.9 282 899.1 126.5 c 128,-1,20
 771.3 -29 771.3 -29 564.3 -29 c 0,21,22
 356.4 -29 356.4 -29 229.05 126.5 c 128,-1,23
 101.7 282 101.7 282 101.7 537 c 0,24,25
 101.7 787 101.7 787 225.9 942.5 c 128,-1,26
 350.1 1098 350.1 1098 549 1098 c 0,27,28
 565.2 1098 565.2 1098 588.6 1095.5 c 128,-1,29
 612 1093 612 1093 649.8 1088 c 1,30,-1
 506.7 1268 l 1,31,-1
 219.6 1161 l 1,32,-1
 189.9 1260 l 1,33,-1
 442.8 1352 l 1,34,-1
 279.9 1556 l 1,35,-1
 485.1 1556 l 1,36,-1
 599.4 1411 l 1,37,-1
 899.1 1522 l 1,38,-1
 928.8 1425 l 1,39,-1
 663.3 1327 l 1,40,-1
 810.9 1141 l 2,15,16
EndSplineSet
EndChar
StartChar: divide
Encoding: 247 247 247
Width: 1544
Flags: W
Fore
661.5 1135 m 1,0,-1
 882.9 1135 l 1,1,-1
 882.9 889 l 1,2,-1
 661.5 889 l 1,3,-1
 661.5 1135 l 1,0,-1
661.5 395 m 1,4,-1
 882.9 395 l 1,5,-1
 882.9 150 l 1,6,-1
 661.5 150 l 1,7,-1
 661.5 395 l 1,4,-1
195.3 727 m 1,8,-1
 1349.1 727 l 1,9,-1
 1349.1 557 l 1,10,-1
 195.3 557 l 1,11,-1
 195.3 727 l 1,8,-1
EndSplineSet
EndChar
StartChar: oslash
Encoding: 248 248 248
Width: 1127
Flags: W
AnchorPoint: "below" 573.3 0 basechar 0
AnchorPoint: "above" 573.3 1147 basechar 0
Fore
814.5 801 m 1,0,-1
 376.2 209 l 1,1,2
 413.1 167 413.1 167 459.45 147 c 128,-1,3
 505.8 127 505.8 127 564.3 127 c 0,4,5
 696.6 127 696.6 127 774 243 c 128,-1,6
 851.4 359 851.4 359 851.4 559 c 0,7,8
 851.4 638 851.4 638 842.4 696.5 c 128,-1,9
 833.4 755 833.4 755 814.5 801 c 1,0,-1
750.6 909 m 1,10,11
 712.8 950 712.8 950 666.45 970.5 c 128,-1,12
 620.1 991 620.1 991 564.3 991 c 0,13,14
 428.4 991 428.4 991 352.35 873.5 c 128,-1,15
 276.3 756 276.3 756 276.3 545 c 0,16,17
 276.3 473 276.3 473 284.85 418 c 128,-1,18
 293.4 363 293.4 363 311.4 317 c 1,19,-1
 750.6 909 l 1,10,11
198.9 166 m 1,20,21
 150.3 243 150.3 243 126 341.5 c 128,-1,22
 101.7 440 101.7 440 101.7 559 c 0,23,24
 101.7 835 101.7 835 224.55 991 c 128,-1,25
 347.4 1147 347.4 1147 564.3 1147 c 0,26,27
 648 1147 648 1147 719.55 1121.5 c 128,-1,28
 791.1 1096 791.1 1096 851.4 1044 c 1,29,-1
 976.5 1212 l 1,30,-1
 1062 1133 l 1,31,-1
 930.6 954 l 1,32,33
 978.3 877 978.3 877 1002.6 778 c 128,-1,34
 1026.9 679 1026.9 679 1026.9 559 c 0,35,36
 1026.9 284 1026.9 284 903.6 127.5 c 128,-1,37
 780.3 -29 780.3 -29 564.3 -29 c 0,38,39
 477.9 -29 477.9 -29 405.45 -3 c 128,-1,40
 333 23 333 23 276.3 74 c 1,41,-1
 151.2 -94 l 1,42,-1
 64.7998 -16 l 1,43,-1
 198.9 166 l 1,20,21
EndSplineSet
EndChar
StartChar: thorn
Encoding: 254 254 254
Width: 1170
Flags: W
AnchorPoint: "above" 250.2 1520 basechar 0
Fore
333.9 168 m 1,0,-1
 333.9 -426 l 1,1,-1
 167.4 -426 l 1,2,-1
 167.4 1556 l 1,3,-1
 333.9 1556 l 1,4,-1
 333.9 950 l 1,5,6
 386.1 1050 386.1 1050 465.75 1098.5 c 128,-1,7
 545.4 1147 545.4 1147 656.1 1147 c 0,8,9
 839.7 1147 839.7 1147 954.45 985 c 128,-1,10
 1069.2 823 1069.2 823 1069.2 559 c 0,11,12
 1069.2 295 1069.2 295 954.45 133 c 128,-1,13
 839.7 -29 839.7 -29 656.1 -29 c 0,14,15
 545.4 -29 545.4 -29 465.75 19.5 c 128,-1,16
 386.1 68 386.1 68 333.9 168 c 1,0,-1
897.3 559 m 0,17,18
 897.3 762 897.3 762 822.15 877.5 c 128,-1,19
 747 993 747 993 615.6 993 c 0,20,21
 484.2 993 484.2 993 409.05 877.5 c 128,-1,22
 333.9 762 333.9 762 333.9 559 c 0,23,24
 333.9 356 333.9 356 409.05 240.5 c 128,-1,25
 484.2 125 484.2 125 615.6 125 c 0,26,27
 747 125 747 125 822.15 240.5 c 128,-1,28
 897.3 356 897.3 356 897.3 559 c 0,17,18
EndSplineSet
EndChar
StartChar: dcroat
Encoding: 273 273 273
Width: 1170
Flags: W
Fore
837 950 m 1,0,-1
 837 1284 l 1,1,-1
 543.6 1284 l 1,2,-1
 543.6 1409 l 1,3,-1
 837 1409 l 1,4,-1
 837 1556 l 1,5,-1
 1002.6 1556 l 1,6,-1
 1002.6 1409 l 1,7,-1
 1141.2 1409 l 1,8,-1
 1141.2 1284 l 1,9,-1
 1002.6 1284 l 1,10,-1
 1002.6 0 l 1,11,-1
 837 0 l 1,12,-1
 837 168 l 1,13,14
 784.8 68 784.8 68 705.15 19.5 c 128,-1,15
 625.5 -29 625.5 -29 513.9 -29 c 0,16,17
 331.2 -29 331.2 -29 216.45 133 c 128,-1,18
 101.7 295 101.7 295 101.7 559 c 0,19,20
 101.7 823 101.7 823 216.45 985 c 128,-1,21
 331.2 1147 331.2 1147 513.9 1147 c 0,22,23
 625.5 1147 625.5 1147 705.15 1098.5 c 128,-1,24
 784.8 1050 784.8 1050 837 950 c 1,0,-1
272.7 559 m 0,25,26
 272.7 356 272.7 356 347.85 240.5 c 128,-1,27
 423 125 423 125 554.4 125 c 0,28,29
 685.8 125 685.8 125 761.4 240.5 c 128,-1,30
 837 356 837 356 837 559 c 0,31,32
 837 762 837 762 761.4 877.5 c 128,-1,33
 685.8 993 685.8 993 554.4 993 c 0,34,35
 423 993 423 993 347.85 877.5 c 128,-1,36
 272.7 762 272.7 762 272.7 559 c 0,25,26
EndSplineSet
EndChar
StartChar: Hbar
Encoding: 294 294 294
Width: 1688
Flags: W
AnchorPoint: "above" 844.2 1520 basechar 0
Fore
332.1 1493 m 1,0,-1
 513.9 1493 l 1,1,-1
 513.9 1269 l 1,2,-1
 1174.5 1269 l 1,3,-1
 1174.5 1493 l 1,4,-1
 1356.3 1493 l 1,5,-1
 1356.3 1269 l 1,6,-1
 1507.5 1269 l 1,7,-1
 1507.5 1105 l 1,8,-1
 1356.3 1105 l 1,9,-1
 1356.3 0 l 1,10,-1
 1174.5 0 l 1,11,-1
 1174.5 711 l 1,12,-1
 513.9 711 l 1,13,-1
 513.9 0 l 1,14,-1
 332.1 0 l 1,15,-1
 332.1 1105 l 1,16,-1
 180.9 1105 l 1,17,-1
 180.9 1269 l 1,18,-1
 332.1 1269 l 1,19,-1
 332.1 1493 l 1,0,-1
513.9 1105 m 1,20,-1
 513.9 881 l 1,21,-1
 1174.5 881 l 1,22,-1
 1174.5 1105 l 1,23,-1
 513.9 1105 l 1,20,-1
EndSplineSet
EndChar
StartChar: hbar
Encoding: 295 295 295
Width: 1280
Flags: W
AnchorPoint: "below" 648 0 basechar 0
AnchorPoint: "above" 303.3 1520 basechar 0
Fore
1064.7 676 m 2,0,-1
 1064.7 0 l 1,1,-1
 899.1 0 l 1,2,-1
 899.1 670 l 2,3,4
 899.1 829 899.1 829 843.3 908 c 128,-1,5
 787.5 987 787.5 987 675.9 987 c 0,6,7
 541.8 987 541.8 987 464.4 892 c 128,-1,8
 387 797 387 797 387 633 c 2,9,-1
 387 0 l 1,10,-1
 220.5 0 l 1,11,-1
 220.5 1270 l 1,12,-1
 108 1270 l 1,13,-1
 108 1434 l 1,14,-1
 220.5 1434 l 1,15,-1
 220.5 1556 l 1,16,-1
 387 1556 l 1,17,-1
 387 1434 l 1,18,-1
 703.8 1434 l 1,19,-1
 703.8 1270 l 1,20,-1
 387 1270 l 1,21,-1
 387 946 l 1,22,23
 446.4 1047 446.4 1047 526.95 1097 c 128,-1,24
 607.5 1147 607.5 1147 712.8 1147 c 0,25,26
 886.5 1147 886.5 1147 975.6 1027.5 c 128,-1,27
 1064.7 908 1064.7 908 1064.7 676 c 2,0,-1
EndSplineSet
EndChar
StartChar: dotlessi
Encoding: 305 305 305
Width: 512
Flags: W
AnchorPoint: "below" 258.3 0 basechar 0
AnchorPoint: "cedilla" 258.3 0 basechar 0
AnchorPoint: "above" 256.5 1147 basechar 0 4
Fore
173.7 1120 m 1,0,-1
 339.3 1120 l 1,1,-1
 339.3 0 l 1,2,-1
 173.7 0 l 1,3,-1
 173.7 1120 l 1,0,-1
256.5 1147 m 25,4,-1
EndSplineSet
EndChar
StartChar: kgreenlandic
Encoding: 312 312 312
Width: 1067
Flags: W
AnchorPoint: "below" 610.2 0 basechar 0
AnchorPoint: "above" 610.2 1147 basechar 0
Fore
167.4 1120 m 1,0,-1
 333.9 1120 l 1,1,-1
 333.9 635 l 1,2,-1
 828 1120 l 1,3,-1
 1039.5 1120 l 1,4,-1
 504.9 594 l 1,5,-1
 1062 0 l 1,6,-1
 846 0 l 1,7,-1
 333.9 545 l 1,8,-1
 333.9 0 l 1,9,-1
 167.4 0 l 1,10,-1
 167.4 1120 l 1,0,-1
EndSplineSet
EndChar
StartChar: Lslash
Encoding: 321 321 321
Width: 1035
Flags: W
Fore
189.9 1493 m 1,0,-1
 372.6 1493 l 1,1,-1
 372.6 877 l 1,2,-1
 654.3 1096 l 1,3,-1
 726.3 985 l 1,4,-1
 372.6 711 l 1,5,-1
 372.6 170 l 1,6,-1
 1026.9 170 l 1,7,-1
 1026.9 0 l 1,8,-1
 189.9 0 l 1,9,-1
 189.9 571 l 1,10,-1
 56.7002 465 l 1,11,-1
 -12.5996 575 l 1,12,-1
 189.9 733 l 1,13,-1
 189.9 1493 l 1,0,-1
EndSplineSet
EndChar
StartChar: lslash
Encoding: 322 322 322
Width: 523
Flags: W
Fore
179.1 1556 m 1,0,-1
 344.7 1556 l 1,1,-1
 344.7 954 l 1,2,-1
 457.2 1044 l 1,3,-1
 525.6 938 l 1,4,-1
 344.7 797 l 1,5,-1
 344.7 0 l 1,6,-1
 179.1 0 l 1,7,-1
 179.1 666 l 1,8,-1
 68.4004 578 l 1,9,-1
 1.7998 684 l 1,10,-1
 179.1 825 l 1,11,-1
 179.1 1556 l 1,0,-1
EndSplineSet
EndChar
StartChar: Eng
Encoding: 330 330 330
Width: 1378
Flags: W
Fore
993.6 895 m 2,0,1
 993.6 1323 993.6 1323 717.3 1323 c 0,2,3
 556.2 1323 556.2 1323 459.45 1195.5 c 128,-1,4
 362.7 1068 362.7 1068 362.7 846 c 2,5,-1
 362.7 0 l 1,6,-1
 180.9 0 l 1,7,-1
 180.9 1493 l 1,8,-1
 362.7 1493 l 1,9,-1
 362.7 1252 l 1,10,11
 432.9 1386 432.9 1386 527.4 1453 c 0,12,13
 622.8 1520 622.8 1520 760.5 1520 c 0,14,15
 964.8 1520 964.8 1520 1069.65 1360.5 c 128,-1,16
 1174.5 1201 1174.5 1201 1174.5 893 c 2,17,-1
 1174.5 -20 l 2,18,19
 1174.5 -233.033 1174.5 -233.033 1101.16 -330 c 0,20,21
 1027.81 -426 1027.81 -426 864.913 -426 c 2,22,-1
 786.6 -426 l 1,23,-1
 786.6 -270 l 1,24,-1
 830.7 -270 l 2,25,26
 922.788 -270 922.788 -270 958.194 -224.887 c 128,-1,27
 993.6 -179.775 993.6 -179.775 993.6 -20 c 2,28,-1
 993.6 895 l 2,0,1
EndSplineSet
Substitution2: "'salt' Stylistic Alternatives in Latin lookup 28" Eng.alt
Substitution2: "'locl' Localized Forms in Latin lookup 4" Eng.alt
Substitution2: "'aalt' Access All Alternates in Latin lookup 27" Eng.alt
EndChar
StartChar: eng
Encoding: 331 331 331
Width: 1168
Flags: W
AnchorPoint: "below" 584.1 -430 basechar 0
AnchorPoint: "above" 584.1 1147 basechar 0
Fore
1011.6 676 m 2,0,-1
 1011.6 -20 l 2,1,2
 1011.6 -234 1011.6 -234 937.8 -330 c 0,3,4
 864.9 -426 864.9 -426 702 -426 c 2,5,-1
 473.4 -426 l 1,6,-1
 473.4 -270 l 1,7,-1
 683.1 -270 l 2,8,9
 777.6 -270 777.6 -270 811.8 -222 c 0,10,11
 846 -173 846 -173 846 -20 c 2,12,-1
 846 670 l 2,13,14
 846 829 846 829 790.2 908 c 128,-1,15
 734.4 987 734.4 987 622.8 987 c 0,16,17
 488.7 987 488.7 987 411.3 892 c 128,-1,18
 333.9 797 333.9 797 333.9 633 c 2,19,-1
 333.9 0 l 1,20,-1
 167.4 0 l 1,21,-1
 167.4 1120 l 1,22,-1
 333.9 1120 l 1,23,-1
 333.9 946 l 1,24,25
 393.3 1047 393.3 1047 473.4 1097 c 0,26,27
 554.4 1147 554.4 1147 659.7 1147 c 0,28,29
 833.4 1147 833.4 1147 922.5 1028 c 0,30,31
 1011.6 908 1011.6 908 1011.6 676 c 2,0,-1
EndSplineSet
EndChar
StartChar: OE
Encoding: 338 338 338
Width: 1971
Flags: W
Fore
1837.8 1493 m 1,0,-1
 1837.8 1323 l 1,1,-1
 1170 1323 l 1,2,-1
 1170 881 l 1,3,-1
 1809.9 881 l 1,4,-1
 1809.9 711 l 1,5,-1
 1170 711 l 1,6,-1
 1170 170 l 1,7,-1
 1854 170 l 1,8,-1
 1854 0 l 1,9,-1
 895.5 0 l 2,10,11
 505.8 0 505.8 0 304.65 190 c 128,-1,12
 103.5 380 103.5 380 103.5 748 c 0,13,14
 103.5 1113 103.5 1113 304.65 1303 c 128,-1,15
 505.8 1493 505.8 1493 895.5 1493 c 2,16,-1
 1837.8 1493 l 1,0,-1
988.2 1323 m 1,17,-1
 872.1 1323 l 2,18,19
 583.2 1323 583.2 1323 439.2 1179.5 c 128,-1,20
 295.2 1036 295.2 1036 295.2 748 c 0,21,22
 295.2 459 295.2 459 439.2 314.5 c 128,-1,23
 583.2 170 583.2 170 872.1 170 c 2,24,-1
 988.2 170 l 1,25,-1
 988.2 1323 l 1,17,-1
EndSplineSet
EndChar
StartChar: oe
Encoding: 339 339 339
Width: 1885
Flags: W
AnchorPoint: "above" 939.6 1147 basechar 0
Fore
1621.8 660 m 1,0,1
 1620 812 1620 812 1546.2 901.5 c 128,-1,2
 1472.4 991 1472.4 991 1349.1 991 c 0,3,4
 1211.4 991 1211.4 991 1128.15 904 c 128,-1,5
 1044.9 817 1044.9 817 1032.3 659 c 1,6,-1
 1621.8 660 l 1,0,1
1788.3 606 m 2,7,-1
 1788.3 516 l 1,8,-1
 1026.9 516 l 1,9,10
 1037.7 326 1037.7 326 1129.5 226.5 c 128,-1,11
 1221.3 127 1221.3 127 1386 127 c 0,12,13
 1481.4 127 1481.4 127 1571.4 153 c 128,-1,14
 1661.4 179 1661.4 179 1749.6 231 c 1,15,-1
 1749.6 57 l 1,16,17
 1659.6 15 1659.6 15 1566 -7 c 128,-1,18
 1472.4 -29 1472.4 -29 1377 -29 c 0,19,20
 1233 -29 1233 -29 1124.1 26 c 128,-1,21
 1015.2 81 1015.2 81 942.3 190 c 1,22,23
 878.4 80 878.4 80 784.35 25.5 c 128,-1,24
 690.3 -29 690.3 -29 564.3 -29 c 0,25,26
 347.4 -29 347.4 -29 224.55 127.5 c 128,-1,27
 101.7 284 101.7 284 101.7 559 c 0,28,29
 101.7 835 101.7 835 224.55 991 c 128,-1,30
 347.4 1147 347.4 1147 564.3 1147 c 0,31,32
 690.3 1147 690.3 1147 785.25 1091.5 c 128,-1,33
 880.2 1036 880.2 1036 939.6 928 c 1,34,35
 1009.8 1035 1009.8 1035 1114.2 1091 c 128,-1,36
 1218.6 1147 1218.6 1147 1347.3 1147 c 0,37,38
 1550.7 1147 1550.7 1147 1669.5 1001.5 c 128,-1,39
 1788.3 856 1788.3 856 1788.3 606 c 2,7,-1
564.3 991 m 0,40,41
 431.1 991 431.1 991 353.7 875.5 c 128,-1,42
 276.3 760 276.3 760 276.3 559 c 0,43,44
 276.3 358 276.3 358 353.25 242.5 c 128,-1,45
 430.2 127 430.2 127 564.3 127 c 0,46,47
 696.6 127 696.6 127 774 243 c 128,-1,48
 851.4 359 851.4 359 851.4 559 c 0,49,50
 851.4 758 851.4 758 774 874.5 c 128,-1,51
 696.6 991 696.6 991 564.3 991 c 0,40,41
EndSplineSet
EndChar
StartChar: Tbar
Encoding: 358 358 358
Width: 1125
Flags: W
Fore
-5.40039 1493 m 1,0,-1
 1131.3 1493 l 1,1,-1
 1131.3 1323 l 1,2,-1
 654.3 1323 l 1,3,-1
 654.3 747 l 1,4,-1
 892.8 747 l 1,5,-1
 892.8 577 l 1,6,-1
 654.3 577 l 1,7,-1
 654.3 0 l 1,8,-1
 471.6 0 l 1,9,-1
 471.6 577 l 1,10,-1
 233.1 577 l 1,11,-1
 233.1 747 l 1,12,-1
 471.6 747 l 1,13,-1
 471.6 1323 l 1,14,-1
 -5.40039 1323 l 1,15,-1
 -5.40039 1493 l 1,0,-1
EndSplineSet
EndChar
StartChar: tbar
Encoding: 359 359 359
Width: 722
Flags: W
Fore
337.5 1438 m 1,0,-1
 337.5 1120 l 1,1,-1
 678.6 1120 l 1,2,-1
 678.6 977 l 1,3,-1
 337.5 977 l 1,4,-1
 337.5 744 l 1,5,-1
 508.5 744 l 1,6,-1
 508.5 602 l 1,7,-1
 337.5 602 l 1,8,-1
 337.5 369 l 2,9,10
 337.5 232 337.5 232 370.8 193 c 0,11,12
 405 154 405 154 508.5 154 c 2,13,-1
 678.6 154 l 1,14,-1
 678.6 0 l 1,15,-1
 508.5 0 l 2,16,17
 316.8 0 316.8 0 243.9 80 c 0,18,19
 171 159 171 159 171 369 c 2,20,-1
 171 602 l 1,21,-1
 49.5 602 l 1,22,-1
 49.5 744 l 1,23,-1
 171 744 l 1,24,-1
 171 977 l 1,25,-1
 49.5 977 l 1,26,-1
 49.5 1120 l 1,27,-1
 171 1120 l 1,28,-1
 171 1438 l 1,29,-1
 337.5 1438 l 1,0,-1
EndSplineSet
EndChar
StartChar: longs
Encoding: 383 383 383
Width: 648
Flags: W
Fore
367.2 0 m 1,0,-1
 200.7 0 l 1,1,-1
 200.7 977 l 1,2,-1
 42.2998 977 l 1,3,-1
 42.2998 1120 l 1,4,-1
 200.7 1120 l 1,5,-1
 200.7 1198 l 2,6,7
 200.7 1385 200.7 1385 279 1470.5 c 128,-1,8
 357.3 1556 357.3 1556 527.4 1556 c 2,9,-1
 684 1556 l 1,10,-1
 684 1403 l 1,11,-1
 525.6 1403 l 2,12,13
 436.5 1403 436.5 1403 401.85 1363 c 0,14,15
 367.2 1321.93 367.2 1321.93 367.2 1219 c 2,16,-1
 367.2 0 l 1,0,-1
EndSplineSet
EndChar
StartChar: uni0180
Encoding: 384 384 384
Width: 1170
Flags: W
AnchorPoint: "above" 250.2 1520 basechar 0
Fore
897.3 559 m 0,0,1
 897.3 762 897.3 762 822.15 877.5 c 0,2,3
 747 993 747 993 615.6 993 c 0,4,5
 484.2 993 484.2 993 409.05 877.5 c 0,6,7
 333.9 762 333.9 762 333.9 559 c 0,8,9
 333.9 356 333.9 356 409.05 240.5 c 0,10,11
 484.2 125 484.2 125 615.6 125 c 0,12,13
 747 125 747 125 822.15 240.5 c 0,14,15
 897.3 356 897.3 356 897.3 559 c 0,0,1
333.9 950 m 1,16,17
 386.1 1050.01 386.1 1050.01 465.75 1098.5 c 0,18,19
 545.408 1147 545.408 1147 656.1 1147 c 0,20,21
 839.7 1147 839.7 1147 954.45 985 c 0,22,23
 1069.2 823 1069.2 823 1069.2 559 c 0,24,25
 1069.2 295 1069.2 295 954.45 133 c 0,26,27
 839.7 -29 839.7 -29 656.1 -29 c 0,28,29
 545.4 -29 545.4 -29 465.75 19.5 c 0,30,31
 386.1 68 386.1 68 333.9 168 c 1,32,-1
 333.9 0 l 1,33,-1
 167.4 0 l 1,34,-1
 167.4 1284 l 1,35,-1
 28.7998 1284 l 1,36,-1
 28.7998 1409 l 1,37,-1
 167.4 1409 l 1,38,-1
 167.4 1556 l 1,39,-1
 333.9 1556 l 1,40,-1
 333.9 1409 l 1,41,-1
 626.4 1409 l 1,42,-1
 626.4 1284 l 1,43,-1
 333.9 1284 l 1,44,-1
 333.9 950 l 1,16,17
EndSplineSet
EndChar
StartChar: uni0181
Encoding: 385 385 385
Width: 1354
Flags: W
Fore
452.7 713 m 1,0,-1
 452.7 166 l 1,1,-1
 744.3 166 l 2,2,3
 891.005 166 891.005 166 961.65 233.5 c 128,-1,4
 1032.3 301.009 1032.3 301.009 1032.3 440 c 0,5,6
 1032.3 579.992 1032.3 579.992 961.65 646.5 c 128,-1,7
 891.004 713 891.004 713 744.3 713 c 2,8,-1
 452.7 713 l 1,0,-1
452.7 1327 m 1,9,-1
 452.7 877 l 1,10,-1
 721.8 877 l 2,11,12
 855 877 855 877 920.25 932.5 c 128,-1,13
 985.5 988.004 985.5 988.004 985.5 1102 c 0,14,15
 985.5 1215 985.5 1215 920.25 1271 c 128,-1,16
 854.989 1327 854.989 1327 721.8 1327 c 2,17,-1
 452.7 1327 l 1,9,-1
270.9 1493 m 2,18,-1
 735.3 1493 l 2,19,20
 943.209 1493 943.209 1493 1055.7 1397 c 128,-1,21
 1168.2 1301 1168.2 1301 1168.2 1124 c 0,22,23
 1168.2 986.989 1168.2 986.989 1110.6 906 c 128,-1,24
 1052.99 824.999 1052.99 824.999 941.4 805 c 1,25,26
 1075.5 772.998 1075.5 772.998 1149.75 671.5 c 128,-1,27
 1224 570 1224 570 1224 418 c 0,28,29
 1224 217.993 1224 217.993 1101.6 109 c 128,-1,30
 979.191 0 979.191 0 753.3 0 c 2,31,-1
 270.9 0 l 1,32,-1
 271.223 1327.52 l 1,33,34
 152.459 1327.52 152.459 1327.52 99.1777 1280.25 c 128,-1,35
 45.9004 1232.99 45.9004 1232.99 45.9004 1128 c 2,36,-1
 45.9004 1079 l 1,37,-1
 -94.5 1079 l 1,38,-1
 -94.5 1149 l 2,39,40
 -94.5 1330.01 -94.5 1330.01 -8.09961 1411.5 c 128,-1,41
 78.3066 1493 78.3066 1493 270.9 1493 c 2,18,-1
EndSplineSet
EndChar
StartChar: uni0183
Encoding: 387 387 387
Width: 1170
Flags: W
AnchorPoint: "above" 250.2 1520 basechar 0
AnchorPoint: "below" 625.5 0 basechar 0
Fore
333.9 950 m 1,0,1
 386.1 1050.01 386.1 1050.01 465.75 1098.5 c 0,2,3
 545.408 1147 545.408 1147 656.1 1147 c 0,4,5
 839.7 1147 839.7 1147 954.45 985 c 0,6,7
 1069.2 823 1069.2 823 1069.2 559 c 0,8,9
 1069.2 295 1069.2 295 954.45 133 c 0,10,11
 839.7 -29 839.7 -29 656.1 -29 c 0,12,13
 545.4 -29 545.4 -29 465.75 19.5 c 0,14,15
 386.1 68 386.1 68 333.9 168 c 1,16,-1
 333.9 0 l 1,17,-1
 167.4 0 l 1,18,-1
 167.4 1556 l 1,19,-1
 928.8 1556 l 1,20,-1
 928.8 1390 l 1,21,-1
 333.9 1390.55 l 1,22,-1
 333.9 950 l 1,0,1
897.3 559 m 0,23,24
 897.3 762 897.3 762 822.15 877.5 c 0,25,26
 747 993 747 993 615.6 993 c 0,27,28
 484.2 993 484.2 993 409.05 877.5 c 0,29,30
 333.9 762 333.9 762 333.9 559 c 0,31,32
 333.9 356 333.9 356 409.05 240.5 c 0,33,34
 484.2 125 484.2 125 615.6 125 c 0,35,36
 747 125 747 125 822.15 240.5 c 0,37,38
 897.3 356 897.3 356 897.3 559 c 0,23,24
EndSplineSet
EndChar
StartChar: uni0184
Encoding: 388 388 388
Width: 1264
Flags: W
Fore
942.3 439 m 24,0,1
 942.3 578 942.3 578 871.2 646 c 0,2,3
 801 713 801 713 654.3 713 c 2,4,-1
 362.7 713 l 1,5,-1
 362.7 166 l 1,6,-1
 654.3 166 l 2,7,8
 801 166 801 166 871.2 234 c 0,9,10
 942.3 301 942.3 301 942.3 439 c 24,0,1
362.7 1493 m 9,11,-1
 362.7 879 l 1,12,-1
 663.3 879 l 2,13,14
 889.2 879 889.2 879 1011.6 770 c 128,-1,15
 1134 661 1134 661 1134 439 c 24,16,17
 1134 218 1134 218 1011.6 109 c 128,-1,18
 889.2 0 889.2 0 663.3 0 c 2,19,-1
 180.9 0 l 1,20,-1
 180.9 1092 l 1,21,-1
 0 1092 l 1,22,-1
 280.8 1493 l 1,23,-1
 362.7 1493 l 9,11,-1
EndSplineSet
EndChar
StartChar: uni0185
Encoding: 389 389 389
Width: 1170
Flags: W
Fore
333.9 950 m 1,0,1
 386.1 1050.01 386.1 1050.01 465.75 1098.5 c 128,-1,2
 545.408 1147 545.408 1147 656.1 1147 c 0,3,4
 839.7 1147 839.7 1147 954.45 985 c 128,-1,5
 1069.2 823 1069.2 823 1069.2 559 c 0,6,7
 1069.2 295 1069.2 295 954.45 133 c 128,-1,8
 839.7 -29 839.7 -29 656.1 -29 c 0,9,10
 545.4 -29 545.4 -29 465.75 19.5 c 128,-1,11
 386.1 68 386.1 68 333.9 168 c 1,12,-1
 333.9 0 l 1,13,-1
 167.4 0 l 1,14,-1
 167.4 1092 l 1,15,-1
 0 1092 l 1,16,-1
 261 1556.55 l 1,17,-1
 333.9 1556.55 l 1,18,-1
 333.9 950 l 1,0,1
897.3 559 m 0,19,20
 897.3 762 897.3 762 822.15 877.5 c 128,-1,21
 747 993 747 993 615.6 993 c 0,22,23
 484.2 993 484.2 993 409.05 877.5 c 128,-1,24
 333.9 762 333.9 762 333.9 559 c 0,25,26
 333.9 356 333.9 356 409.05 240.5 c 128,-1,27
 484.2 125 484.2 125 615.6 125 c 0,28,29
 747 125 747 125 822.15 240.5 c 128,-1,30
 897.3 356 897.3 356 897.3 559 c 0,19,20
EndSplineSet
EndChar
StartChar: uni0186
Encoding: 390 390 390
Width: 1296
Flags: W
AnchorPoint: "above" 543.6 1520 basechar 0
Fore
103.5 1378 m 1,0,1
 197.1 1449 197.1 1449 303.75 1484.5 c 128,-1,2
 410.4 1520 410.4 1520 531 1520 c 0,3,4
 836.1 1520 836.1 1520 1011.6 1312.5 c 128,-1,5
 1187.1 1105 1187.1 1105 1187.1 745 c 0,6,7
 1187.1 386 1187.1 386 1011.6 178.5 c 128,-1,8
 836.1 -29 836.1 -29 531 -29 c 0,9,10
 412.2 -29 412.2 -29 305.55 7 c 128,-1,11
 198.9 43 198.9 43 103.5 115 c 1,12,-1
 103.5 326 l 1,13,14
 195.3 231 195.3 231 299.25 184 c 128,-1,15
 403.2 137 403.2 137 520.2 137 c 0,16,17
 750.6 137 750.6 137 873 293.5 c 128,-1,18
 995.4 450 995.4 450 995.4 745 c 0,19,20
 995.4 1041 995.4 1041 873 1197.5 c 128,-1,21
 750.6 1354 750.6 1354 520.2 1354 c 0,22,23
 403.2 1354 403.2 1354 299.25 1307 c 128,-1,24
 195.3 1260 195.3 1260 103.5 1165 c 1,25,-1
 103.5 1378 l 1,0,1
EndSplineSet
EndChar
StartChar: uni0187
Encoding: 391 391 391
Width: 1287
Flags: W
AnchorPoint: "above" 759.6 1520 basechar 0
Fore
1187.1 1378 m 2,0,-1
 1187.1 1165 l 1,1,2
 1095.3 1260 1095.3 1260 991.35 1307 c 128,-1,3
 887.4 1354 887.4 1354 770.4 1354 c 8,4,5
 540 1354 540 1354 417.6 1197.5 c 128,-1,6
 295.2 1041 295.2 1041 295.2 745 c 0,7,8
 295.2 450 295.2 450 417.6 293.5 c 128,-1,9
 540 137 540 137 770.4 137 c 0,10,11
 887.4 137 887.4 137 991.35 184 c 128,-1,12
 1095.3 231 1095.3 231 1187.1 326 c 1,13,-1
 1187.1 115 l 1,14,15
 1091.7 43 1091.7 43 985.05 7 c 128,-1,16
 878.4 -29 878.4 -29 759.6 -29 c 0,17,18
 454.5 -29 454.5 -29 279 178.5 c 128,-1,19
 103.5 386 103.5 386 103.5 745 c 0,20,21
 103.5 1105 103.5 1105 279 1312.5 c 128,-1,22
 454.5 1520 454.5 1520 759.6 1520 c 24,23,24
 846 1520 846 1520 986.4 1484 c 0,25,26
 998.1 1481 998.1 1481 1008.9 1477 c 1,27,28
 1023.3 1672 1023.3 1672 1098 1770 c 0,29,30
 1189.8 1892 1189.8 1892 1394.1 1892 c 2,31,-1
 1463.4 1892 l 1,32,-1
 1463.4 1722 l 1,33,-1
 1406.7 1722 l 2,34,35
 1286.1 1722 1286.1 1722 1236.6 1647 c 128,-1,36
 1187.1 1572 1187.1 1572 1187.1 1378 c 2,0,-1
EndSplineSet
EndChar
StartChar: uni0188
Encoding: 392 392 392
Width: 1013
Flags: W
Fore
899.1 1150 m 2,0,-1
 899.1 905 l 1,1,2
 828.9 948 828.9 948 758.25 969.5 c 128,-1,3
 687.6 991 687.6 991 615.6 991 c 0,4,5
 454.5 991 454.5 991 365.4 877.5 c 128,-1,6
 276.3 764 276.3 764 276.3 559 c 0,7,8
 276.3 354 276.3 354 365.4 240.5 c 128,-1,9
 454.5 127 454.5 127 615.6 127 c 0,10,11
 687.6 127 687.6 127 758.25 148.5 c 128,-1,12
 828.9 170 828.9 170 899.1 213 c 1,13,-1
 899.1 43 l 1,14,15
 829.8 7 829.8 7 755.55 -11 c 128,-1,16
 681.3 -29 681.3 -29 597.6 -29 c 0,17,18
 369.9 -29 369.9 -29 235.8 130 c 128,-1,19
 101.7 289 101.7 289 101.7 559 c 0,20,21
 101.7 833 101.7 833 237.15 990 c 128,-1,22
 372.6 1147 372.6 1147 608.4 1147 c 24,23,24
 672.079 1147 672.079 1147 735.3 1135 c 9,25,-1
 735.3 1150 l 18,26,27
 735.3 1364 735.3 1364 807.75 1460 c 128,-1,28
 880.2 1556 880.2 1556 1043.1 1556 c 2,29,-1
 1105.2 1556 l 1,30,-1
 1105.2 1400 l 1,31,-1
 1062 1400 l 2,32,33
 967.5 1400 967.5 1400 933.3 1351.5 c 128,-1,34
 899.1 1303 899.1 1303 899.1 1150 c 2,0,-1
EndSplineSet
EndChar
StartChar: uni018A
Encoding: 394 394 394
Width: 1509
Flags: W
Fore
452.7 1327 m 1,0,-1
 452.7 166 l 1,1,-1
 672.3 166 l 2,2,3
 950.391 166 950.391 166 1079.55 306 c 128,-1,4
 1208.7 445.992 1208.7 445.992 1208.7 748 c 0,5,6
 1208.7 1048 1208.7 1048 1079.55 1187.5 c 128,-1,7
 950.391 1327 950.391 1327 672.3 1327 c 2,8,-1
 452.7 1327 l 1,0,-1
270.9 1493 m 2,9,-1
 644.4 1493 l 2,10,11
 1035 1493 1035 1493 1217.7 1312.5 c 128,-1,12
 1400.4 1132 1400.4 1132 1400.4 748 c 0,13,14
 1400.4 362 1400.4 362 1216.8 181 c 128,-1,15
 1033.2 0 1033.2 0 644.4 0 c 2,16,-1
 270.9 0 l 1,17,-1
 271.223 1327.52 l 1,18,19
 152.459 1327.52 152.459 1327.52 99.1777 1280.25 c 128,-1,20
 45.9004 1232.99 45.9004 1232.99 45.9004 1128 c 2,21,-1
 45.9004 1079 l 1,22,-1
 -94.5 1079 l 1,23,-1
 -94.5 1149 l 2,24,25
 -94.5 1330.01 -94.5 1330.01 -8.09961 1411.5 c 128,-1,26
 78.3066 1493 78.3066 1493 270.9 1493 c 2,9,-1
EndSplineSet
EndChar
StartChar: uni018B
Encoding: 395 395 395
Width: 1264
Flags: W
Fore
372.6 439 m 24,0,1
 372.6 166 372.6 166 660.6 166 c 2,2,-1
 952.2 166 l 1,3,-1
 952.2 713 l 1,4,-1
 660.6 713 l 2,5,6
 513.9 713 513.9 713 443.25 645.5 c 128,-1,7
 372.6 578 372.6 578 372.6 439 c 24,0,1
372.6 1493 m 25,8,-1
 1134 1493 l 1,9,-1
 1134 0 l 1,10,-1
 651.6 0 l 2,11,12
 425.7 0 425.7 0 303.3 109 c 128,-1,13
 180.9 218 180.9 218 180.9 439.5 c 0,14,15
 180.9 661 180.9 661 303.3 770 c 128,-1,16
 425.7 879 425.7 879 651.6 879 c 2,17,-1
 952.2 879 l 1,18,-1
 952.2 1327 l 1,19,-1
 372.6 1327 l 1,20,-1
 372.6 1493 l 25,8,-1
EndSplineSet
EndChar
StartChar: uni018C
Encoding: 396 396 396
Width: 1170
Flags: W
AnchorPoint: "above" 919.8 1520 basechar 0
AnchorPoint: "below" 552.6 0 basechar 0
Fore
242.1 1390 m 1,0,-1
 242.1 1556 l 1,1,-1
 1002.6 1556 l 1,2,-1
 1002.6 0 l 1,3,-1
 837 0 l 1,4,-1
 837 168 l 1,5,6
 784.8 68 784.8 68 705.15 19.5 c 128,-1,7
 625.5 -29 625.5 -29 513.9 -29 c 0,8,9
 331.2 -29 331.2 -29 216.45 133 c 128,-1,10
 101.7 295 101.7 295 101.7 559 c 0,11,12
 101.7 823 101.7 823 216.45 985 c 128,-1,13
 331.2 1147 331.2 1147 513.9 1147 c 0,14,15
 625.5 1147 625.5 1147 705.15 1098.5 c 128,-1,16
 784.8 1050 784.8 1050 837 950 c 1,17,-1
 837 1391 l 1,18,-1
 242.1 1390 l 1,0,-1
272.7 559 m 0,19,20
 272.7 356 272.7 356 347.85 240.5 c 128,-1,21
 423 125 423 125 554.4 125 c 0,22,23
 685.8 125 685.8 125 761.4 240.5 c 128,-1,24
 837 356 837 356 837 559 c 0,25,26
 837 762 837 762 761.4 877.5 c 128,-1,27
 685.8 993 685.8 993 554.4 993 c 0,28,29
 423 993 423 993 347.85 877.5 c 128,-1,30
 272.7 762 272.7 762 272.7 559 c 0,19,20
EndSplineSet
EndChar
StartChar: uni018D
Encoding: 397 397 397
Width: 1127
Flags: W
Fore
787.5 66 m 1,0,1
 928.8 -13 928.8 -13 928.8 -154 c 0,2,3
 928.8 -426 928.8 -426 531.9 -426 c 0,4,5
 333 -426 333 -426 225 -356 c 1,6,-1
 225 -203 l 17,7,8
 316.8 -273 316.8 -273 538.2 -273 c 0,9,10
 759.6 -273 759.6 -273 759.6 -156 c 0,11,12
 759.6 -64 759.6 -64 522 -16 c 0,13,14
 334.8 21 334.8 21 229.5 133 c 0,15,16
 101.7 268 101.7 268 101.7 539 c 0,17,18
 101.7 810 101.7 810 225 966.5 c 128,-1,19
 348.3 1123 348.3 1123 563.85 1123 c 0,20,21
 779.4 1123 779.4 1123 903.15 966.5 c 128,-1,22
 1026.9 810 1026.9 810 1026 535 c 24,23,24
 1026 379 1026 379 956.25 249 c 128,-1,25
 886.5 119 886.5 119 787.5 66 c 1,0,1
851.4 535 m 24,26,27
 852.3 738 852.3 738 775.35 852.5 c 128,-1,28
 698.4 967 698.4 967 565.2 967 c 0,29,30
 432 967 432 967 354.6 851 c 128,-1,31
 277.2 735 277.2 735 277.2 540.5 c 0,32,33
 277.2 346 277.2 346 361.8 246.5 c 128,-1,34
 446.4 147 446.4 147 559.8 136 c 0,35,36
 617.4 130 617.4 130 663.3 116 c 1,37,38
 752.4 158 752.4 158 801.9 268 c 128,-1,39
 851.4 378 851.4 378 851.4 535 c 24,26,27
EndSplineSet
EndChar
StartChar: uni018E
Encoding: 398 398 398
Width: 1164
Flags: W
AnchorPoint: "above" 540 1520 basechar 0
Fore
983.7 1493 m 1,0,-1
 983.7 0 l 1,1,-1
 117.9 0 l 1,2,-1
 117.9 170 l 1,3,-1
 801.9 170 l 1,4,-1
 801.9 711 l 1,5,-1
 162 711 l 1,6,-1
 162 881 l 1,7,-1
 801.9 881 l 1,8,-1
 801.9 1323 l 1,9,-1
 134.1 1323 l 1,10,-1
 134.1 1493 l 1,11,-1
 983.7 1493 l 1,0,-1
EndSplineSet
EndChar
StartChar: uni018F
Encoding: 399 399 399
Width: 1450
Flags: W
Fore
105.3 780 m 1,0,-1
 1155.6 780 l 17,1,2
 1155.6 1048 1155.6 1048 1031.85 1201 c 128,-1,3
 908.1 1354 908.1 1354 661.5 1354 c 0,4,5
 536.4 1354 536.4 1354 423 1306 c 128,-1,6
 309.6 1258 309.6 1258 208.8 1163 c 1,7,-1
 208.8 1378 l 1,8,9
 308.7 1448 308.7 1448 427.05 1484 c 128,-1,10
 545.4 1520 545.4 1520 676.8 1520 c 0,11,12
 991.8 1520 991.8 1520 1169.55 1315.5 c 128,-1,13
 1347.3 1111 1347.3 1111 1347.3 745 c 24,14,15
 1347.3 392 1347.3 392 1178.1 181.5 c 128,-1,16
 1008.9 -29 1008.9 -29 726.3 -29 c 24,17,18
 430.2 -29 430.2 -29 267.75 190.5 c 128,-1,19
 105.3 410 105.3 410 105.3 780 c 1,0,-1
303.3 614 m 17,20,21
 315 419 315 419 429.75 277 c 128,-1,22
 544.5 135 544.5 135 726.3 135 c 24,23,24
 908.1 135 908.1 135 1022.85 277 c 128,-1,25
 1137.6 419 1137.6 419 1149.3 614 c 9,26,-1
 303.3 614 l 17,20,21
EndSplineSet
EndChar
StartChar: uni0190
Encoding: 400 400 400
Width: 1132
Flags: W
AnchorPoint: "above" 637.2 1520 basechar 0
Fore
424.8 805 m 1,0,1
 306.9 838 306.9 838 243 923.5 c 128,-1,2
 179.1 1009 179.1 1009 179.1 1133 c 0,3,4
 179.1 1311 179.1 1311 299.7 1415.5 c 128,-1,5
 420.3 1520 420.3 1520 627.3 1520 c 0,6,7
 707.4 1520 707.4 1520 797.85 1504 c 128,-1,8
 888.3 1488 888.3 1488 991.8 1456 c 1,9,-1
 991.8 1276 l 1,10,11
 889.2 1314 889.2 1314 803.7 1332 c 128,-1,12
 718.2 1350 718.2 1350 643.5 1350 c 0,13,14
 506.7 1350 506.7 1350 433.35 1288.5 c 128,-1,15
 360 1227 360 1227 360 1112 c 0,16,17
 360 1000 360 1000 431.1 940.5 c 128,-1,18
 502.2 881 502.2 881 636.3 881 c 2,19,-1
 800.1 881 l 1,20,-1
 800.1 715 l 1,21,-1
 643.5 715 l 2,22,23
 495 715 495 715 411.75 640.5 c 128,-1,24
 328.5 566 328.5 566 328.5 434 c 0,25,26
 328.5 291 328.5 291 418.05 216 c 128,-1,27
 507.6 141 507.6 141 678.6 141 c 0,28,29
 776.7 141 776.7 141 866.7 166 c 128,-1,30
 956.7 191 956.7 191 1032.3 240 c 1,31,-1
 1032.3 45 l 1,32,33
 936.9 8 936.9 8 847.35 -10.5 c 128,-1,34
 757.8 -29 757.8 -29 673.2 -29 c 0,35,36
 421.2 -29 421.2 -29 284.4 92 c 128,-1,37
 147.6 213 147.6 213 147.6 434 c 0,38,39
 147.6 578 147.6 578 220.95 676 c 128,-1,40
 294.3 774 294.3 774 424.8 805 c 1,0,1
EndSplineSet
EndChar
StartChar: uni0191
Encoding: 401 401 401
Width: 1060
Flags: W
AnchorPoint: "above" 603 1520 basechar 0
Fore
180.9 1493 m 1,0,-1
 953.1 1493 l 1,1,-1
 953.1 1323 l 1,2,-1
 362.7 1323 l 1,3,-1
 362.7 883 l 1,4,-1
 895.5 883 l 1,5,-1
 895.5 713 l 1,6,-1
 362.7 713 l 1,7,-1
 362.7 104 l 2,8,9
 362.7 -166.005 362.7 -166.005 270.45 -288 c 128,-1,10
 178.196 -410 178.196 -410 -26.0996 -410 c 2,11,-1
 -95.4004 -410 l 1,12,-1
 -95.4004 -240 l 1,13,-1
 -38.7002 -240 l 2,14,15
 81.9004 -240 81.9004 -240 131.4 -165 c 128,-1,16
 180.9 -90.001 180.9 -90.001 180.9 104 c 2,17,-1
 180.9 1493 l 1,0,-1
EndSplineSet
EndChar
StartChar: florin
Encoding: 402 402 402
Width: 648
Flags: W
AnchorPoint: "below" 279.9 -430 basechar 0
AnchorPoint: "above" 283.5 1520 basechar 0
Fore
684 1556 m 1,0,-1
 684 1403 l 1,1,-1
 525.6 1403 l 2,2,3
 436.496 1403 436.496 1403 401.85 1363 c 128,-1,4
 367.2 1322.99 367.2 1322.99 367.2 1219 c 2,5,-1
 367.2 1120 l 1,6,-1
 639.9 1120 l 1,7,-1
 639.9 977 l 1,8,-1
 367.2 977 l 1,9,-1
 367.2 -68 l 2,10,11
 367.2 -255 367.2 -255 288.9 -340.5 c 128,-1,12
 210.6 -426 210.6 -426 40.5 -426 c 2,13,-1
 -116.1 -426 l 1,14,-1
 -116.1 -273 l 1,15,-1
 42.2998 -273 l 2,16,17
 131.403 -273 131.403 -273 166.05 -233 c 128,-1,18
 200.7 -192.996 200.7 -192.996 200.7 -89 c 2,19,-1
 200.7 977 l 1,20,-1
 42.2998 977 l 1,21,-1
 42.2998 1120 l 1,22,-1
 200.7 1120 l 1,23,-1
 200.7 1198 l 2,24,25
 200.7 1385 200.7 1385 279 1470.5 c 128,-1,26
 357.3 1556 357.3 1556 527.4 1556 c 2,27,-1
 684 1556 l 1,0,-1
EndSplineSet
EndChar
StartChar: uni0193
Encoding: 403 403 403
Width: 1428
Flags: W
AnchorPoint: "above" 774 1520 basechar 0
Fore
1097.1 213 m 1,0,-1
 1097.1 614 l 1,1,-1
 800.1 614 l 1,2,-1
 800.1 780 l 1,3,-1
 1277.1 780 l 1,4,-1
 1277.1 139 l 1,5,6
 1171.8 56 1171.8 56 1044.9 13.5 c 128,-1,7
 918 -29 918 -29 774 -29 c 0,8,9
 459 -29 459 -29 281.25 175.5 c 128,-1,10
 103.5 379.999 103.5 379.999 103.5 745 c 0,11,12
 103.5 1111.01 103.5 1111.01 281.25 1315.5 c 128,-1,13
 459.013 1520 459.013 1520 774 1520 c 24,14,15
 855.468 1520 855.468 1520 928.845 1507.4 c 128,-1,16
 1002.22 1494.8 1002.22 1494.8 1063.8 1470 c 1,17,18
 1063.8 1658 1063.8 1658 1154.25 1775 c 128,-1,19
 1244.7 1892 1244.7 1892 1449 1892 c 2,20,-1
 1518.3 1892 l 1,21,-1
 1518.3 1722 l 1,22,-1
 1461.6 1722 l 2,23,24
 1341.01 1722 1341.01 1722 1291.5 1647 c 128,-1,25
 1242 1572.01 1242 1572.01 1242 1378 c 2,26,-1
 1242 1163 l 1,27,28
 1141.16 1258.02 1141.16 1258.02 1027.8 1306 c 128,-1,29
 914.382 1354 914.382 1354 789.3 1354 c 0,30,31
 542.7 1354 542.7 1354 418.95 1201 c 128,-1,32
 295.2 1048 295.2 1048 295.2 745 c 0,33,34
 295.2 443 295.2 443 418.95 290 c 128,-1,35
 542.7 137 542.7 137 789.3 137 c 0,36,37
 885.599 137 885.599 137 961.2 155.5 c 128,-1,38
 1036.79 173.997 1036.79 173.997 1097.1 213 c 1,0,-1
EndSplineSet
EndChar
StartChar: uni0194
Encoding: 404 404 404
Width: 1265
Flags: W
AnchorPoint: "above" 632.7 1520 basechar 0
Fore
632.7 -259 m 24,0,1
 681.663 -259 681.663 -259 720.9 -227.176 c 0,2,3
 746.1 -207.291 746.1 -207.291 746.1 -141 c 0,4,5
 746.1 -84 746.1 -84 718.2 -11 c 0,6,7
 672.048 110.078 672.048 110.078 632.509 201.775 c 1,8,9
 593.352 110.078 593.352 110.078 547.2 -11 c 0,10,11
 519.3 -84 519.3 -84 519.3 -141 c 0,12,13
 519.3 -207.291 519.3 -207.291 544.5 -227.176 c 0,14,15
 583.737 -259 583.737 -259 632.7 -259 c 24,0,1
632.7 630.685 m 1,16,-1
 1058.4 1493 l 1,17,-1
 1258.2 1493 l 1,18,-1
 734.698 420.432 l 1,19,20
 827.84 219.788 827.84 219.788 888.3 46 c 0,21,22
 929.7 -73 929.7 -73 929.7 -139 c 0,23,24
 929.7 -278.499 929.7 -278.499 862.2 -343.25 c 0,25,26
 771.768 -430 771.768 -430 632.7 -430 c 24,27,28
 493.632 -430 493.632 -430 403.2 -343.25 c 0,29,30
 335.7 -278.498 335.7 -278.498 335.7 -139 c 0,31,32
 335.7 -73 335.7 -73 377.1 46 c 0,33,34
 437.561 219.788 437.561 219.788 530.702 420.432 c 1,35,-1
 7.2002 1493 l 1,36,-1
 207 1493 l 1,37,-1
 632.7 630.685 l 1,16,-1
EndSplineSet
EndChar
StartChar: uni0195
Encoding: 405 405 405
Width: 1813
Flags: W
Fore
1220.4 156 m 2,0,1
 1354.5 156 1354.5 156 1430.1 254 c 0,2,3
 1508.4 355 1508.4 355 1508.4 510 c 0,4,5
 1508.4 732 1508.4 732 1441.8 844 c 0,6,7
 1386 939 1386 939 1277.1 972 c 1,8,-1
 1277.1 1120 l 1,9,10
 1478.7 1091 1478.7 1091 1576.8 948 c 0,11,12
 1676.7 803 1676.7 803 1676.7 527 c 0,13,14
 1676.7 282 1676.7 282 1547.1 141 c 128,-1,15
 1417.5 0 1417.5 0 1218.6 0 c 2,16,-1
 1155.6 0 l 2,17,18
 987.3 0 987.3 0 916.65 100 c 128,-1,19
 846 200 846 200 846 406 c 2,20,-1
 846 670 l 2,21,22
 846 829 846 829 790.2 908 c 128,-1,23
 734.4 987 734.4 987 622.8 987 c 0,24,25
 488.7 987 488.7 987 411.3 892 c 128,-1,26
 333.9 797 333.9 797 333.9 633 c 2,27,-1
 333.9 0 l 1,28,-1
 167.4 0 l 1,29,-1
 167.4 1556 l 1,30,-1
 333.9 1556 l 1,31,-1
 333.9 946 l 1,32,33
 393.3 1047 393.3 1047 473.85 1097 c 128,-1,34
 554.4 1147 554.4 1147 659.7 1147 c 0,35,36
 833.4 1147 833.4 1147 922.5 1027.5 c 128,-1,37
 1011.6 908 1011.6 908 1011.6 676 c 2,38,-1
 1011.6 406 l 2,39,40
 1011.6 259 1011.6 259 1045.8 207.5 c 128,-1,41
 1080 156 1080 156 1174.5 156 c 2,42,-1
 1220.4 156 l 2,0,1
EndSplineSet
EndChar
StartChar: uni0196
Encoding: 406 406 406
Width: 651
Flags: W
AnchorPoint: "above" 272.7 1520 basechar 0
Fore
180.9 1493 m 1,0,-1
 362.7 1493 l 1,1,-1
 362.7 514 l 2,2,3
 362.7 319.999 362.7 319.999 412.2 245 c 128,-1,4
 461.7 170 461.7 170 582.3 170 c 2,5,-1
 639 170 l 1,6,-1
 639 0 l 1,7,-1
 569.7 0 l 2,8,9
 365.4 0 365.4 0 273.15 122 c 128,-1,10
 180.9 244 180.9 244 180.9 514 c 2,11,-1
 180.9 1493 l 1,0,-1
EndSplineSet
EndChar
StartChar: uni0197
Encoding: 407 407 407
Width: 543
Flags: W
AnchorPoint: "below" 272.7 0 basechar 0
AnchorPoint: "above" 272.7 1520 basechar 0
Fore
180.9 1493 m 1,0,-1
 362.7 1493 l 1,1,-1
 362.7 747 l 1,2,-1
 534.6 747 l 1,3,-1
 534.6 577 l 1,4,-1
 362.7 577 l 1,5,-1
 362.7 0 l 1,6,-1
 180.9 0 l 1,7,-1
 180.9 577 l 1,8,-1
 9 577 l 1,9,-1
 9 747 l 1,10,-1
 180.9 747 l 1,11,-1
 180.9 1493 l 1,0,-1
EndSplineSet
EndChar
StartChar: uni0198
Encoding: 408 408 408
Width: 1374
Flags: W
Fore
1374.3 1096 m 25,0,-1
 1221.3 1096 l 25,1,-1
 1221.3 1217 l 18,2,3
 1221.3 1271 1221.3 1271 1188.45 1311 c 128,-1,4
 1155.6 1351 1155.6 1351 1121.4 1351 c 0,5,6
 1058.3 1351 1058.3 1351 1025.1 1316 c 2,7,-1
 532.8 797 l 1,8,-1
 1247.4 0 l 1,9,-1
 1008 0 l 1,10,-1
 362.7 719 l 1,11,-1
 362.7 0 l 1,12,-1
 180.9 0 l 1,13,-1
 180.9 1493 l 1,14,-1
 362.7 1493 l 1,15,-1
 362.7 862 l 1,16,-1
 920.7 1441 l 2,17,18
 996.831 1520 996.831 1520 1098.9 1520 c 0,19,20
 1221.3 1520 1221.3 1520 1297.8 1428 c 0,21,22
 1374.3 1337 1374.3 1337 1374.3 1227 c 10,23,-1
 1374.3 1096 l 25,0,-1
EndSplineSet
EndChar
StartChar: uni0199
Encoding: 409 409 409
Width: 1067
Flags: W
AnchorPoint: "above" 251.1 1520 basechar 0
Fore
166.5 1150 m 2,0,1
 166.5 1364 166.5 1364 239.85 1460 c 128,-1,2
 313.2 1556 313.2 1556 476.1 1556 c 2,3,-1
 648 1556 l 1,4,-1
 648 1400 l 1,5,-1
 496.8 1400 l 2,6,7
 402.3 1400 402.3 1400 368.1 1351.5 c 128,-1,8
 333.9 1303 333.9 1303 333.9 1150 c 2,9,-1
 333.9 637 l 1,10,-1
 828 1120 l 1,11,-1
 1039.5 1120 l 1,12,-1
 504.9 596 l 1,13,-1
 1062 0 l 1,14,-1
 846 0 l 1,15,-1
 333.9 547 l 1,16,-1
 333.9 0 l 1,17,-1
 167.4 0 l 1,18,-1
 166.5 1150 l 2,0,1
EndSplineSet
EndChar
StartChar: uni019A
Encoding: 410 410 410
Width: 512
Flags: W
AnchorPoint: "above" 250.2 1520 basechar 0
Fore
173.7 1556 m 1,0,-1
 339.3 1556 l 1,1,-1
 339.3 844 l 1,2,-1
 498.6 844 l 1,3,-1
 498.6 700 l 1,4,-1
 339.3 700 l 1,5,-1
 339.3 0 l 1,6,-1
 173.7 0 l 1,7,-1
 173.7 700 l 1,8,-1
 9 700 l 1,9,-1
 9 844 l 1,10,-1
 173.7 844 l 1,11,-1
 173.7 1556 l 1,0,-1
EndSplineSet
EndChar
StartChar: uni019B
Encoding: 411 411 411
Width: 1090
Flags: W
AnchorPoint: "above" 577.8 1520 basechar 0
Fore
54.9004 0 m 1,0,-1
 496.8 1074 l 1,1,-1
 432.9 1262 l 1,2,-1
 162.9 1161 l 1,3,-1
 133.2 1260 l 1,4,-1
 400.5 1359 l 1,5,-1
 333 1556 l 1,6,-1
 513 1556 l 1,7,-1
 559.8 1418 l 1,8,-1
 842.4 1522 l 1,9,-1
 872.1 1425 l 1,10,-1
 592.2 1321 l 1,11,-1
 1035.9 0 l 1,12,-1
 860.4 0 l 1,13,-1
 577.8 828 l 1,14,-1
 230.4 0 l 1,15,-1
 54.9004 0 l 1,0,-1
EndSplineSet
EndChar
StartChar: uni019C
Encoding: 412 412 412
Width: 1795
Flags: W
Fore
840.6 213 m 1,0,1
 778.5 89 778.5 89 692.1 30 c 128,-1,2
 605.7 -29 605.7 -29 488.7 -29 c 0,3,4
 331.2 -29 331.2 -29 245.7 94 c 128,-1,5
 160.2 216 160.2 216 160.2 442 c 2,6,-1
 160.2 1493 l 1,7,-1
 342.9 1493 l 1,8,-1
 342.9 452 l 2,9,10
 342.9 266 342.9 266 378 213 c 0,11,12
 429.3 135 429.3 135 534.6 135 c 0,12,13
 663.3 135 663.3 135 738 230 c 128,-1,14
 812.7 325 812.7 325 812.7 489 c 2,15,-1
 812.7 1493 l 1,16,-1
 995.4 1493 l 1,17,-1
 995.4 452 l 2,18,19
 995.4 290 995.4 290 1046.7 212 c 128,-1,20
 1098 135 1098 135 1205.1 135 c 0,21,22
 1315.8 135 1315.8 135 1390.5 230 c 128,-1,23
 1465.2 326 1465.2 326 1465.2 489 c 2,24,-1
 1465.2 1493 l 1,25,-1
 1647.9 1493 l 1,26,-1
 1647.9 -2 l 1,27,-1
 1465.2 -2 l 1,28,-1
 1465.2 172 l 1,29,30
 1408.5 69 1408.5 69 1329.3 20 c 128,-1,31
 1250.1 -29 1250.1 -29 1141.2 -29 c 0,32,33
 1031.4 -29 1031.4 -29 954 33 c 128,-1,34
 877.5 95 877.5 95 840.6 213 c 1,0,1
EndSplineSet
EndChar
StartChar: uni019D
Encoding: 413 413 413
Width: 1378
Flags: W
AnchorPoint: "above" 681.3 1520 basechar 0
Fore
180.9 1493 m 1,0,-1
 425.7 1493 l 1,1,-1
 1021.5 244 l 1,2,-1
 1021.5 1493 l 1,3,-1
 1197.9 1493 l 1,4,-1
 1197.9 0 l 1,5,-1
 953.1 0 l 1,6,-1
 357.3 1249 l 1,7,-1
 357.3 104 l 2,8,9
 357.3 -166 357.3 -166 265.05 -288 c 128,-1,10
 172.8 -410 172.8 -410 -31.4961 -410 c 2,11,-1
 -95.4004 -410 l 1,12,-1
 -95.4004 -240 l 1,13,-1
 -38.7002 -240 l 2,14,15
 81.9004 -240 81.9004 -240 131.4 -165 c 128,-1,16
 180.9 -90.001 180.9 -90.001 180.9 104 c 2,17,-1
 180.9 1493 l 1,0,-1
EndSplineSet
EndChar
StartChar: uni019F
Encoding: 415 415 415
Width: 1450
Flags: W
AnchorPoint: "above" 726.3 1520 basechar 0
AnchorPoint: "below" 726.3 0 basechar 0
Fore
103.5 745 m 0,0,1
 103.5 1099 103.5 1099 273.15 1309.5 c 128,-1,2
 442.8 1520 442.8 1520 725.85 1520 c 0,3,4
 1008.9 1520 1008.9 1520 1178.1 1309.5 c 128,-1,5
 1347.3 1099 1347.3 1099 1347.3 745.5 c 0,6,7
 1347.3 392 1347.3 392 1178.1 181.5 c 128,-1,8
 1008.9 -29 1008.9 -29 725.85 -29 c 0,9,10
 442.8 -29 442.8 -29 273.15 181 c 128,-1,11
 103.5 391 103.5 391 103.5 745 c 0,0,1
726.75 1356 m 24,12,13
 544.95 1356 544.95 1356 430.2 1214 c 128,-1,14
 315.45 1072 315.45 1072 303.75 877 c 9,15,-1
 1149.75 877 l 17,16,17
 1138.05 1072 1138.05 1072 1023.3 1214 c 128,-1,18
 908.55 1356 908.55 1356 726.75 1356 c 24,12,13
295.2 710 m 1,19,20
 302.4 453 302.4 453 415.35 294 c 128,-1,21
 528.3 135 528.3 135 726.3 135 c 0,22,23
 924.3 135 924.3 135 1035.9 293.5 c 128,-1,24
 1147.5 452 1147.5 452 1154.7 710 c 9,25,-1
 295.2 710 l 1,19,20
EndSplineSet
EndChar
StartChar: uni01A2
Encoding: 418 418 418
Width: 1748
Flags: W
Fore
1386.9 0 m 1,0,-1
 1386.9 979 l 2,1,2
 1386.9 1173 1386.9 1173 1337.4 1248 c 128,-1,3
 1287.9 1323 1287.9 1323 1178.1 1323 c 1,4,-1
 1178.1 182 l 1,5,6
 1008.9 -29 1008.9 -29 725.4 -29 c 0,7,8
 442.8 -29 442.8 -29 273.15 181 c 128,-1,9
 103.5 391 103.5 391 103.5 745 c 0,10,11
 103.5 1099 103.5 1099 273.15 1309.5 c 128,-1,12
 442.8 1520 442.8 1520 726.3 1520 c 0,13,14
 827.1 1520 827.1 1520 914.4 1493 c 1,15,-1
 1179.9 1493 l 2,16,17
 1384.2 1493 1384.2 1493 1476.45 1371 c 128,-1,18
 1568.7 1249 1568.7 1249 1568.7 979 c 2,19,-1
 1568.7 0 l 1,20,-1
 1386.9 0 l 1,0,-1
726.3 1356 m 0,21,22
 528.3 1356 528.3 1356 411.75 1192 c 128,-1,23
 295.2 1028 295.2 1028 295.2 746 c 0,24,25
 295.2 463 295.2 463 411.75 299 c 128,-1,26
 528.3 135 528.3 135 726.3 135 c 0,27,28
 883.8 135 883.8 135 999 238 c 1,29,-1
 999 1286 l 1,30,31
 874.8 1356 874.8 1356 726.3 1356 c 0,21,22
EndSplineSet
EndChar
StartChar: uni01A3
Encoding: 419 419 419
Width: 1399
Flags: W
Fore
1066.5 -426 m 1,0,-1
 1066.5 714 l 2,1,2
 1066.5 867 1066.5 867 1032.3 916 c 0,3,4
 998.1 964 998.1 964 903.6 964 c 1,5,-1
 903.6 128 l 1,6,7
 780.3 -29 780.3 -29 564.3 -29 c 0,8,9
 347.4 -29 347.4 -29 224.55 127.5 c 128,-1,10
 101.7 284 101.7 284 101.7 559 c 0,11,12
 101.7 835 101.7 835 224.55 991 c 128,-1,13
 347.4 1147 347.4 1147 564.3 1147 c 0,14,15
 654.3 1147 654.3 1147 728.1 1120 c 1,16,-1
 922.5 1120 l 2,17,18
 1085.4 1120 1085.4 1120 1159.2 1024 c 0,19,20
 1232.1 928 1232.1 928 1232.1 714 c 2,21,-1
 1232.1 -426 l 1,22,-1
 1066.5 -426 l 1,0,-1
564.3 991 m 0,23,24
 431.1 991 431.1 991 353.7 875.5 c 128,-1,25
 276.3 760 276.3 760 276.3 559 c 0,26,27
 276.3 358 276.3 358 353.25 242.5 c 128,-1,28
 430.2 127 430.2 127 564.3 127 c 0,29,30
 680.4 127 680.4 127 738 184.85 c 1,31,-1
 738 936.85 l 1,32,33
 662.4 991 662.4 991 564.3 991 c 0,23,24
EndSplineSet
EndChar
StartChar: uni01A4
Encoding: 420 420 420
Width: 1201
Flags: W
AnchorPoint: "above" 693 1520 basechar 0
Fore
452.7 1327 m 1,0,-1
 452.7 766 l 1,1,-1
 681.3 766 l 2,2,3
 808.2 766 808.2 766 877.5 839 c 128,-1,4
 946.8 912 946.8 912 946.8 1047 c 0,5,6
 946.8 1180.99 946.8 1180.99 877.5 1254 c 128,-1,7
 808.207 1327 808.207 1327 681.3 1327 c 2,8,-1
 452.7 1327 l 1,0,-1
270.9 1493 m 2,9,-1
 681.3 1493 l 2,10,11
 907.209 1493 907.209 1493 1022.85 1379.5 c 128,-1,12
 1138.5 1265.99 1138.5 1265.99 1138.5 1047 c 0,13,14
 1138.5 825.995 1138.5 825.995 1022.85 713 c 128,-1,15
 907.191 600 907.191 600 681.3 600 c 2,16,-1
 452.7 600 l 1,17,-1
 452.7 0 l 1,18,-1
 270.9 0 l 1,19,-1
 271.223 1327.52 l 1,20,21
 152.459 1327.52 152.459 1327.52 99.1777 1280.25 c 128,-1,22
 45.9004 1232.99 45.9004 1232.99 45.9004 1128 c 2,23,-1
 45.9004 1079 l 1,24,-1
 -94.5 1079 l 1,25,-1
 -94.5 1149 l 2,26,27
 -94.5 1330.01 -94.5 1330.01 -8.09961 1411.5 c 128,-1,28
 78.3066 1493 78.3066 1493 270.9 1493 c 2,9,-1
EndSplineSet
EndChar
StartChar: uni01A5
Encoding: 421 421 421
Width: 1170
Flags: W
Fore
333.9 168 m 1,0,-1
 333.9 -426 l 1,1,-1
 166.5 -426 l 1,2,-1
 166.5 1150 l 2,3,4
 166.5 1363.83 166.5 1363.83 239.85 1459.92 c 128,-1,5
 313.2 1556 313.2 1556 476.1 1556 c 2,6,-1
 704.7 1556 l 1,7,-1
 704.7 1400 l 1,8,-1
 496.8 1400 l 2,9,10
 402.3 1400 402.3 1400 368.1 1351.5 c 128,-1,11
 333.9 1303 333.9 1303 333.9 1150 c 10,12,-1
 333.9 950 l 1,13,14
 386.1 1050.01 386.1 1050.01 465.75 1098.5 c 128,-1,15
 545.424 1147 545.424 1147 656.1 1147 c 0,16,17
 839.7 1147 839.7 1147 954.45 985 c 128,-1,18
 1069.2 823 1069.2 823 1069.2 559 c 0,19,20
 1069.2 295 1069.2 295 954.45 133 c 128,-1,21
 839.7 -29 839.7 -29 656.1 -29 c 0,22,23
 545.4 -29 545.4 -29 465.75 19.5 c 128,-1,24
 386.1 68 386.1 68 333.9 168 c 1,0,-1
897.3 559 m 0,25,26
 897.3 762 897.3 762 822.15 877.5 c 128,-1,27
 747 993 747 993 615.6 993 c 0,28,29
 484.2 993 484.2 993 409.05 877.5 c 128,-1,30
 333.9 762 333.9 762 333.9 559 c 0,31,32
 333.9 356 333.9 356 409.05 240.5 c 128,-1,33
 484.2 125 484.2 125 615.6 125 c 0,34,35
 747 125 747 125 822.15 240.5 c 128,-1,36
 897.3 356 897.3 356 897.3 559 c 0,25,26
EndSplineSet
EndChar
StartChar: uni01A6
Encoding: 422 422 422
Width: 1280
Flags: W
Fore
818.1 436 m 1,0,1
 876.6 414 876.6 414 931.95 342 c 128,-1,2
 987.3 270 987.3 270 1043.1 144 c 1,3,-1
 1227.6 -264 l 1,4,-1
 1032.3 -264 l 1,5,-1
 860.4 119 l 1,6,7
 793.8 269 793.8 269 731.25 318 c 128,-1,8
 668.7 367 668.7 367 560.7 367 c 2,9,-1
 362.7 367 l 1,10,-1
 362.7 0 l 1,11,-1
 180.9 0 l 1,12,-1
 180.9 1493 l 1,13,-1
 362.7 1493 l 1,0,0
 362.7 1229 l 1,0,0
 591.3 1229 l 2,14,15
 821.7 1229 821.7 1229 935.1 1122 c 128,-1,16
 1048.5 1015 1048.5 1015 1048.5 799 c 0,17,18
 1048.5 658 1048.5 658 989.55 565 c 128,-1,19
 930.6 472 930.6 472 818.1 436 c 1,0,1
362.7 1063 m 1,13,-1
 362.7 504 l 1,14,-1
 591.3 504 l 2,15,16
 718.2 504 718.2 504 787.5 577 c 128,-1,17
 856.8 650 856.8 650 856.8 784 c 0,18,19
 856.8 918 856.8 918 787.95 990.5 c 128,-1,20
 719.1 1063 719.1 1063 591.3 1063 c 2,21,-1
 362.7 1063 l 1,13,-1
EndSplineSet
EndChar
StartChar: uni01A7
Encoding: 423 423 423
Width: 1170
Flags: W
AnchorPoint: "above" 593.1 1520 basechar 0
Fore
143.1 1444 m 1,0,1
 245.7 1482 245.7 1482 343.8 1501 c 128,-1,2
 441.9 1520 441.9 1520 536.4 1520 c 0,3,4
 756.9 1520 756.9 1520 882 1406 c 0,5,6
 1008 1292 1008 1292 1008 1094 c 0,7,8
 1008 923 1008 923 917.1 827 c 128,-1,9
 826.2 731 826.2 731 622.8 686 c 2,10,-1
 512.1 662 l 2,11,12
 373.5 631 373.5 631 313.2 569 c 0,13,14
 252 507 252 507 252 397 c 0,15,16
 252 271 252 271 336.6 203 c 128,-1,17
 421.2 135 421.2 135 576.9 135 c 0,18,19
 679.5 135 679.5 135 785.7 170 c 128,-1,20
 891.9 205 891.9 205 1002.6 274 c 1,21,22
 1002.6 66 l 1,23,24
 887.4 19 887.4 19 779.4 -5 c 0,25,26
 672.3 -29 672.3 -29 576.9 -29 c 0,27,28
 324 -29 324 -29 192.6 83 c 0,29,30
 62.0996 195 62.0996 195 62.0996 412 c 0,31,32
 62.0996 594 62.0996 594 158.4 702 c 0,33,34
 255.6 811 255.6 811 459 854 c 1,35,-1
 568.8 879 l 1,36,37
 718.2 910 718.2 910 772.2 960 c 0,38,39
 825.3 1011 825.3 1011 825.3 1110 c 0,40,41
 825.3 1228 825.3 1228 745.2 1292 c 0,42,43
 664.2 1356 664.2 1356 515.7 1356 c 0,44,45
 430.2 1356 430.2 1356 338.4 1329 c 128,-1,46
 246.6 1302 246.6 1302 143.1 1247 c 1,47,-1
 143.1 1444 l 1,0,1
EndSplineSet
EndChar
StartChar: uni01A8
Encoding: 424 424 424
Width: 960
Flags: W
AnchorPoint: "above" 495.9 1147 basechar 0
Fore
144 1087 m 1,0,1
 212.4 1117 212.4 1117 293.4 1132 c 128,-1,2
 374.4 1147 374.4 1147 466.2 1147 c 0,3,4
 651.6 1147 651.6 1147 752.4 1061 c 128,-1,5
 853.2 975 853.2 975 853.2 817 c 0,6,7
 853.2 687 853.2 687 784.8 612.5 c 128,-1,8
 716.4 538 716.4 538 562.5 502 c 1,9,-1
 504.9 487 l 2,10,11
 351 450 351 450 305.55 410 c 128,-1,12
 260.1 370 260.1 370 260.1 295 c 0,13,14
 260.1 214 260.1 214 323.1 169.5 c 128,-1,15
 386.1 125 386.1 125 503.1 125 c 0,16,17
 590.4 125 590.4 125 679.5 151.5 c 128,-1,18
 768.6 178 768.6 178 860.4 231 c 1,19,-1
 860.4 41 l 1,20,21
 763.2 6 763.2 6 675.45 -11.5 c 128,-1,22
 587.7 -29 587.7 -29 506.7 -29 c 0,23,24
 312.3 -29 312.3 -29 201.15 62 c 128,-1,25
 90 153 90 153 90 309 c 0,26,27
 90 446 90 446 164.25 522.5 c 128,-1,28
 238.5 599 238.5 599 414.9 641 c 2,29,-1
 471.6 655 l 2,30,31
 604.8 688 604.8 688 648.9 724.5 c 128,-1,32
 693 761 693 761 693 825 c 0,33,34
 693 909 693 909 631.35 951 c 128,-1,35
 569.7 993 569.7 993 446.4 993 c 0,36,37
 365.4 993 365.4 993 289.8 973 c 128,-1,38
 214.2 953 214.2 953 144 913 c 1,39,-1
 144 1087 l 1,0,1
EndSplineSet
EndChar
StartChar: uni01AA
Encoding: 426 426 426
Width: 619
Flags: W
AnchorPoint: "above" 250.2 1520 basechar 0
AnchorPoint: "below" 250.2 -390 basechar 0
Fore
162 1284 m 1,0,1
 155.7 1329 155.7 1329 139.5 1352 c 1,2,3
 109.8 1400 109.8 1400 10.7998 1400 c 0,4,5
 -100.8 1400 -100.8 1400 -103.5 1335 c 0,6,7
 -106.2 1284 -106.2 1284 0.900391 1284 c 2,8,-1
 162 1284 l 1,0,1
339.3 1130 m 1,9,-1
 337.5 -89 l 1,10,11
 337.5 -192 337.5 -192 372.6 -233 c 0,12,13
 405.9 -273 405.9 -273 495.9 -273 c 2,14,-1
 654.3 -273 l 1,15,-1
 654.3 -426 l 1,16,-1
 497.7 -426 l 2,17,18
 322.2 -426 322.2 -426 249.3 -340 c 0,19,20
 171 -248 171 -248 171 -68 c 2,21,-1
 171 1130 l 1,22,-1
 0 1130 l 2,23,24
 -243 1130 -243 1130 -243 1340 c 0,25,26
 -243 1556 -243 1556 29.7002 1556 c 0,27,28
 192.6 1556 192.6 1556 266.4 1460 c 0,29,30
 314.1 1396 314.1 1396 330.3 1285 c 1,31,-1
 502.2 1285 l 1,32,-1
 502.2 1130 l 1,33,-1
 339.3 1130 l 1,9,-1
EndSplineSet
EndChar
StartChar: uni01AB
Encoding: 427 427 427
Width: 722
Flags: W
AnchorPoint: "above" 253.8 1520 basechar 0
Fore
337.5 1438 m 1,0,-1
 337.5 1120 l 1,1,-1
 678.6 1120 l 1,2,-1
 678.6 977 l 1,3,-1
 337.5 977 l 1,4,-1
 337.5 369 l 2,5,6
 337.5 232 337.5 232 370.8 193 c 0,7,8
 405 154 405 154 508.5 154 c 2,9,-1
 678.6 154 l 1,10,-1
 678.6 -20 l 2,11,12
 678.6 -234 678.6 -234 604.8 -330 c 0,13,14
 531 -426 531 -426 369 -426 c 2,15,-1
 306 -426 l 1,16,-1
 306 -270 l 1,17,-1
 349.2 -270 l 2,18,19
 444.6 -270 444.6 -270 478.8 -222 c 0,20,21
 513 -173 513 -173 513 -20 c 2,22,-1
 513 0 l 1,23,-1
 508.5 0 l 2,24,25
 316.8 0 316.8 0 243.9 80 c 0,26,27
 171 159 171 159 171 369 c 2,28,-1
 171 977 l 1,29,-1
 49.5 977 l 1,30,-1
 49.5 1120 l 1,31,-1
 171 1120 l 1,32,-1
 171 1438 l 1,33,-1
 337.5 1438 l 1,0,-1
EndSplineSet
EndChar
StartChar: uni01AC
Encoding: 428 428 428
Width: 1125
Flags: W
AnchorPoint: "above" 564.3 1520 basechar 0
Fore
387 1493 m 10,0,-1
 1131.3 1493 l 1,1,-1
 1131.3 1323 l 1,2,-1
 654.3 1323 l 1,3,-1
 654.3 0 l 1,4,-1
 471.6 0 l 1,5,-1
 471.6 1323 l 1,6,-1
 387 1323 l 18,7,8
 268.237 1323 268.237 1323 215.119 1278 c 128,-1,9
 162 1232.99 162 1232.99 162 1128 c 2,10,-1
 162 1079 l 1,11,-1
 21.5996 1079 l 1,12,-1
 21.5996 1149 l 2,13,14
 21.5996 1330.01 21.5996 1330.01 108 1411.5 c 128,-1,15
 194.407 1493 194.407 1493 387 1493 c 10,0,-1
EndSplineSet
EndChar
StartChar: uni01AD
Encoding: 429 429 429
Width: 722
Flags: W
AnchorPoint: "above" 253.8 1520 basechar 0
Fore
337.5 1219 m 2,0,-1
 337.5 1120 l 1,1,-1
 678.6 1120 l 1,2,-1
 678.6 977 l 1,3,-1
 337.5 977 l 1,4,-1
 337.5 369 l 2,5,6
 337.5 232 337.5 232 371.25 193 c 128,-1,7
 405 154 405 154 508.5 154 c 2,8,-1
 678.6 154 l 1,9,-1
 678.6 0 l 1,10,-1
 508.5 0 l 2,11,12
 316.8 0 316.8 0 243.9 79.5 c 128,-1,13
 171 159 171 159 171 369 c 2,14,-1
 171 977 l 1,15,-1
 49.5 977 l 1,16,-1
 49.5 1120 l 1,17,-1
 171 1120 l 1,18,-1
 171 1198 l 2,19,20
 171 1385 171 1385 249.3 1470.5 c 128,-1,21
 327.6 1556 327.6 1556 497.7 1556 c 2,22,-1
 654.3 1556 l 1,23,-1
 654.3 1403 l 1,24,-1
 495.9 1403 l 2,25,26
 406.797 1403 406.797 1403 372.148 1362.69 c 128,-1,27
 337.5 1322.37 337.5 1322.37 337.5 1219 c 2,0,-1
EndSplineSet
EndChar
StartChar: uni01AE
Encoding: 430 430 430
Width: 1125
Flags: W
AnchorPoint: "above" 564.3 1520 basechar 0
Fore
-5.40039 1493 m 1,0,-1
 1131.3 1493 l 1,1,-1
 1131.3 1323 l 1,2,-1
 654.3 1323 l 1,3,-1
 654.3 104 l 2,4,5
 654.3 -90 654.3 -90 703.8 -165 c 128,-1,6
 753.3 -240 753.3 -240 873.9 -240 c 2,7,-1
 930.6 -240 l 1,8,-1
 930.6 -410 l 1,9,-1
 860.4 -410 l 2,10,11
 656.1 -410 656.1 -410 563.85 -288 c 128,-1,12
 471.6 -166 471.6 -166 471.6 104 c 2,13,-1
 471.6 1323 l 1,14,-1
 -5.40039 1323 l 1,15,-1
 -5.40039 1493 l 1,0,-1
EndSplineSet
EndChar
StartChar: uni01B1
Encoding: 433 433 433
Width: 1408
Flags: W
Fore
1338.3 1304 m 1,0,-1
 1050.3 1304 l 1,1,2
 1195.21 1162.98 1195.21 1162.98 1259.1 1015 c 128,-1,3
 1323 866.989 1323 866.989 1323 673 c 0,4,5
 1323 364.01 1323 364.01 1149.75 167.5 c 128,-1,6
 976.509 -29 976.509 -29 703.8 -29 c 0,7,8
 429.305 -29 429.305 -29 256.95 168 c 128,-1,9
 84.5996 364.99 84.5996 364.99 84.5996 683 c 0,10,11
 84.6006 867 84.6006 867 149.85 1016 c 128,-1,12
 215.099 1165 215.099 1165 357.3 1304 c 1,13,-1
 70.2002 1304 l 1,14,-1
 70.2002 1482 l 1,15,-1
 610.2 1482 l 1,16,-1
 610.2 1304 l 1,17,18
 449.999 1207 449.999 1207 360.45 1041 c 128,-1,19
 270.9 874.999 270.9 874.999 270.9 673 c 0,20,21
 270.9 434 270.9 434 390.15 288.5 c 128,-1,22
 509.4 143 509.4 143 703.8 143 c 0,23,24
 898.204 143 898.204 143 1017 288 c 128,-1,25
 1135.8 433.01 1135.8 433.01 1135.8 673 c 0,26,27
 1135.8 875 1135.8 875 1046.7 1041 c 128,-1,28
 957.6 1207 957.6 1207 798.3 1304 c 1,29,-1
 798.3 1482 l 1,30,-1
 1338.3 1482 l 1,31,-1
 1338.3 1304 l 1,0,-1
EndSplineSet
EndChar
StartChar: uni01B2
Encoding: 434 434 434
Width: 1328
Flags: W
AnchorPoint: "above" 611.1 1520 basechar 0
Fore
639 141 m 0,0,1
 833.4 141 833.4 141 952.2 286 c 128,-1,2
 1071 431 1071 431 1071 671 c 0,3,4
 1071 873 1071 873 981.9 1039 c 0,5,6
 923.4 1148 923.4 1148 824.4 1235 c 1,7,-1
 824.4 1303 l 1,8,-1
 985.5 1302 l 1,9,10
 1130.4 1161 1130.4 1161 1194.3 1013 c 128,-1,11
 1258.2 865 1258.2 865 1258.2 671 c 0,12,13
 1258.2 362 1258.2 362 1085.4 165 c 0,14,15
 913.473 -31 913.473 -31 639 -31 c 0,16,-1
 569.7 -29 l 2,17,18
 360.88 -22.9736 360.88 -22.9736 273.6 93 c 0,19,20
 180.9 215 180.9 215 180.9 485 c 2,21,-1
 180.9 1493 l 1,22,-1
 362.7 1493 l 1,23,-1
 362.7 485 l 2,24,25
 362.7 291 362.7 291 412.2 216 c 128,-1,26
 461.7 141 461.7 141 582.3 141 c 2,27,-1
 639 141 l 0,0,1
EndSplineSet
EndChar
StartChar: uni01B3
Encoding: 435 435 435
Width: 1370
Flags: W
AnchorPoint: "above" 563.4 1520 basechar 0
Fore
1115.1 1351 m 0,0,1
 1063.8 1351 1063.8 1351 1044.9 1337 c 0,2,3
 1011.15 1313.14 1011.15 1313.14 996.146 1287.82 c 10,4,-1
 654.3 711 l 1,5,-1
 654.3 0 l 1,6,-1
 471.6 0 l 1,7,-1
 471.6 711 l 1,8,-1
 -3.59961 1493 l 1,9,-1
 191.7 1493 l 1,10,-1
 564.3 879 l 1,11,-1
 864.749 1383.82 l 2,12,13
 945.792 1520 945.792 1520 1092.6 1520 c 24,14,15
 1215 1520 1215 1520 1291.5 1428 c 0,16,17
 1368 1337 1368 1337 1368 1227 c 10,18,-1
 1368 1096 l 25,19,-1
 1215 1096 l 25,20,-1
 1215 1217 l 18,21,22
 1215 1271 1215 1271 1182.15 1311 c 128,-1,23
 1149.3 1351 1149.3 1351 1115.1 1351 c 0,0,1
EndSplineSet
EndChar
StartChar: uni01B4
Encoding: 436 436 436
Width: 1344
Flags: W
AnchorPoint: "above" 547.2 1147 basechar 0
AnchorPoint: "below" 547.2 -430 basechar 0
Fore
593.1 -104 m 1,0,1
 522.9 -304 522.9 -304 456.3 -365 c 128,-1,2
 389.7 -426 389.7 -426 278.1 -426 c 2,3,-1
 145.8 -426 l 1,4,-1
 145.8 -272 l 1,5,-1
 243 -272 l 2,6,7
 311.4 -272 311.4 -272 349.2 -236 c 128,-1,8
 387 -200 387 -200 432.9 -66 c 1,9,-1
 462.6 18 l 1,10,-1
 54.9004 1120 l 1,11,-1
 230.4 1120 l 1,12,-1
 545.4 244 l 1,13,-1
 799.2 948 l 2,14,15
 817.871 999.792 817.871 999.792 861.3 1051 c 0,16,17
 940.5 1147 940.5 1147 1062 1147 c 0,18,19
 1179.9 1147 1179.9 1147 1263.15 1051.5 c 128,-1,20
 1346.4 956 1346.4 956 1346.4 822 c 2,21,-1
 1346.4 708 l 25,22,-1
 1186.2 708 l 25,23,-1
 1186.2 822 l 2,24,25
 1186.2 880 1186.2 880 1149.75 922 c 128,-1,26
 1113.3 964 1113.3 964 1062 964 c 0,27,28
 1010.7 964 1010.7 964 973.8 922 c 0,29,30
 955.827 902.025 955.827 902.025 946.8 877 c 2,31,-1
 593.1 -104 l 1,0,1
EndSplineSet
EndChar
StartChar: uni01B5
Encoding: 437 437 437
Width: 1262
Flags: W
AnchorPoint: "above" 631.8 1520 basechar 0
Fore
103.5 1493 m 1,0,-1
 1159.2 1493 l 1,1,-1
 1159.2 1339 l 1,2,-1
 799.2 844 l 1,3,-1
 1052.1 844 l 1,4,-1
 1052.1 700 l 1,5,-1
 694.8 700 l 1,6,-1
 309.6 170 l 1,7,-1
 1179.9 170 l 1,8,-1
 1179.9 0 l 1,9,-1
 82.7998 0 l 1,10,-1
 82.7998 154 l 1,11,-1
 479.7 700 l 1,12,-1
 210.6 700 l 1,13,-1
 210.6 844 l 1,14,-1
 584.1 844 l 1,15,-1
 932.4 1323 l 1,16,-1
 103.5 1323 l 1,17,-1
 103.5 1493 l 1,0,-1
EndSplineSet
EndChar
StartChar: uni01B6
Encoding: 438 438 438
Width: 967
Flags: W
AnchorPoint: "above" 481.5 1147 basechar 0
Fore
101.7 1120 m 1,0,-1
 888.3 1120 l 1,1,-1
 888.3 952 l 1,2,-1
 662.4 660 l 1,3,-1
 837 660 l 1,4,-1
 837 516 l 1,5,-1
 550.8 516 l 1,6,-1
 265.5 147 l 1,7,-1
 888.3 147 l 1,8,-1
 888.3 0 l 1,9,-1
 79.2002 0 l 1,10,-1
 79.2002 168 l 1,11,-1
 348.3 516 l 1,12,-1
 157.5 516 l 1,13,-1
 157.5 660 l 1,14,-1
 459.9 660 l 1,15,-1
 702 973 l 1,16,-1
 101.7 973 l 1,17,-1
 101.7 1120 l 1,0,-1
EndSplineSet
EndChar
StartChar: uni01B7
Encoding: 439 439 439
Width: 1227
Flags: W
Fore
612 107 m 8,0,1
 784.8 107 784.8 107 873.9 182 c 0,2,3
 963.9 257 963.9 257 963.9 400 c 0,4,5
 963.9 534 963.9 534 881.1 607 c 0,6,7
 797.4 681 797.4 681 648.9 681 c 2,8,-1
 492.3 681 l 1,9,-1
 492.3 847 l 1,10,-1
 838.8 1323 l 1,11,-1
 144 1323 l 1,12,-1
 144 1493 l 1,13,-1
 1065.6 1493 l 1,14,-1
 1065.6 1325 l 1,15,-1
 695.7 849 l 1,16,17
 791.1 849 791.1 849 906.3 793 c 0,18,19
 994.5 751 994.5 751 1071.9 642 c 0,20,21
 1144.8 538 1144.8 538 1144.8 400 c 0,22,23
 1144.8 179.6 1144.8 179.6 1008 58 c 0,24,25
 871.2 -63 871.2 -63 619.2 -63 c 16,26,27
 512.1 -63 512.1 -63 399.6 -44 c 0,28,29
 286.2 -26 286.2 -26 165.6 11 c 1,30,-1
 165.6 206 l 1,31,32
 261 157 261 157 375.3 132 c 0,33,34
 488.7 107 488.7 107 612 107 c 8,0,1
EndSplineSet
EndChar
StartChar: uni01B8
Encoding: 440 440 440
Width: 1227
Flags: W
Fore
615.6 107 m 16,0,1
 738.9 107 738.9 107 852.3 132 c 0,36,37
 966.6 157 966.6 157 1062 206 c 1,34,35
 1062 11 l 1,33,-1
 941.4 -26 941.4 -26 828 -44 c 0,31,32
 715.5 -63 715.5 -63 608.4 -63 c 8,29,30
 356.4 -63 356.4 -63 219.6 58 c 0,27,28
 179.1 94 179.1 94 161.1 123 c 2,25,26
 135.9 164 l 2,24,-1
 82.7998 249 82.7998 249 82.7998 400 c 0,22,23
 82.7998 538 82.7998 538 155.7 642 c 0,20,21
 233.1 751 233.1 751 321.3 793 c 0,18,19
 436.5 849 436.5 849 531.9 849 c 1,16,17
 162 1325 l 1,15,-1
 162 1493 l 1,14,-1
 1083.6 1493 l 1,13,-1
 1083.6 1323 l 1,12,-1
 388.8 1323 l 1,11,-1
 735.3 847 l 1,10,-1
 735.3 681 l 1,9,-1
 578.7 681 l 2,8,-1
 430.2 681 430.2 681 346.5 607 c 0,6,7
 263.7 534 263.7 534 263.7 400 c 0,4,5
 263.7 257 263.7 257 353.7 182 c 0,2,3
 442.8 107 442.8 107 615.6 107 c 16,0,1
EndSplineSet
EndChar
StartChar: uni01B9
Encoding: 441 441 441
Width: 1064
Flags: W
AnchorPoint: "below" 657.9 -430 basechar 0
AnchorPoint: "above" 587.7 1147 basechar 0
Fore
542.7 476 m 1,0,-1
 172.8 952 l 1,1,-1
 172.8 1120 l 1,2,-1
 959.4 1120 l 1,3,-1
 959.4 973 l 1,4,-1
 359.1 973 l 1,5,-1
 746.1 474 l 1,6,-1
 746.1 308 l 1,7,-1
 589.5 308 l 2,8,9
 441 308 441 308 357.3 234 c 0,10,11
 274.5 159 274.5 159 274.5 27 c 0,12,13
 274.5 -116 274.5 -116 364.5 -191 c 0,14,15
 453.6 -266 453.6 -266 624.6 -266 c 0,16,17
 722.7 -266 722.7 -266 812.7 -241 c 128,-1,18
 902.7 -216 902.7 -216 978.3 -167 c 1,19,-1
 978.3 -362 l 1,20,21
 882.9 -399 882.9 -399 792.9 -418 c 0,22,23
 703.8 -436 703.8 -436 619.2 -436 c 0,24,25
 367.2 -436 367.2 -436 230.4 -315 c 0,26,27
 197.1 -286 197.1 -286 171.9 -250 c 2,28,-1
 146.7 -209 l 2,29,30
 93.5996 -111 93.5996 -111 93.5996 27 c 128,-1,31
 93.5996 165 93.5996 165 166.5 269 c 0,32,33
 243.9 378 243.9 378 332.1 420 c 0,34,35
 447.3 476 447.3 476 542.7 476 c 1,0,-1
EndSplineSet
EndChar
StartChar: uni01BA
Encoding: 442 442 442
Width: 967
Flags: W
Fore
575.1 -274 m 0,0,1
 650.7 -274 650.7 -274 720 -253 c 0,2,3
 791.1 -232 791.1 -232 864 -188 c 1,4,-1
 864 -367 l 1,5,6
 785.7 -399 785.7 -399 713.7 -412 c 0,7,8
 636.3 -426 636.3 -426 549 -426 c 24,9,10
 117 -426 117 -426 117 -145 c 0,11,12
 117 93 117 93 482.4 146 c 0,13,14
 738 183 738 183 738 281 c 0,15,16
 738 405 738 405 526.5 405 c 2,17,18
 265.5 405 l 9,19,-1
 702 973 l 1,20,-1
 101.7 973 l 1,21,-1
 101.7 1120 l 1,22,-1
 888.3 1120 l 1,23,-1
 888.3 952 l 1,24,-1
 569.7 540 l 17,25,26
 900 540 900 540 900 311 c 0,27,28
 900 35 900 35 482.4 -14 c 0,29,30
 279 -38 279 -38 279 -135 c 0,31,32
 279 -274 279 -274 575.1 -274 c 0,0,1
EndSplineSet
EndChar
StartChar: uni01BB
Encoding: 443 443 443
Width: 1172
Flags: W
Fore
353.7 170 m 1,0,-1
 988.2 170 l 1,1,-1
 988.2 0 l 1,2,-1
 135 0 l 1,3,-1
 135 170 l 1,4,-1
 417.6 490 l 1,5,-1
 521.1 607 l 1,6,-1
 210.6 607 l 1,7,-1
 210.6 751 l 1,8,-1
 644.4 751 l 1,9,10
 729.9 860 729.9 860 763.2 932 c 0,11,12
 798.3 1008 798.3 1008 798.3 1081 c 0,13,14
 798.3 1200 798.3 1200 723.6 1275 c 0,15,16
 648 1350 648 1350 527.4 1350 c 0,17,18
 441.9 1350 441.9 1350 347.4 1317 c 0,19,20
 252 1284 252 1284 144 1217 c 1,21,-1
 144 1421 l 1,22,23
 253.8 1470 253.8 1470 349.2 1495 c 0,24,25
 444.6 1520 444.6 1520 523.8 1520 c 0,26,27
 732.6 1520 732.6 1520 856.8 1404 c 0,28,29
 981 1288 981 1288 981 1094 c 0,30,31
 981 1002 981 1002 950.4 920 c 0,32,33
 922.5 847 922.5 847 855.9 751 c 1,34,-1
 949.5 751 l 1,35,-1
 949.5 607 l 1,36,-1
 737.1 607 l 1,37,-1
 693.9 558 l 1,38,-1
 353.7 170 l 1,0,-1
EndSplineSet
EndChar
StartChar: uni01BC
Encoding: 444 444 444
Width: 1227
Flags: W
Fore
696.6 849 m 2,0,1
 790.2 849 790.2 849 907.2 793 c 0,2,3
 996.3 750 996.3 750 1072.8 642 c 0,4,5
 1145.7 538 1145.7 538 1145.7 400 c 0,6,7
 1145.7 249 1145.7 249 1092.6 164 c 2,8,-1
 1067.4 123 l 2,9,10
 1049.4 94 1049.4 94 1008.9 58 c 0,11,12
 872.1 -63 872.1 -63 620.1 -63 c 0,13,14
 357.3 -63 357.3 -63 220.5 58 c 0,15,16
 180 94 180 94 162 123 c 2,17,-1
 136.8 164 l 2,18,19
 83.7002 249 83.7002 249 83.7002 400 c 1,20,-1
 264.6 400 l 1,21,22
 264.6 257 264.6 257 354.6 182 c 0,23,24
 443.7 107 443.7 107 614.7 107 c 128,-1,26
 785.7 107 785.7 107 874.8 182 c 0,27,28
 964.8 257 964.8 257 964.8 400 c 0,29,30
 964.8 534 964.8 534 882 607 c 0,31,32
 798.3 681 798.3 681 649.8 681 c 2,33,-1
 362.7 681 l 1,34,-1
 362.7 680 l 1,35,-1
 180.9 680 l 1,36,-1
 180.9 1493 l 1,37,-1
 1017 1493 l 1,38,-1
 1017 1323 l 1,39,-1
 362.7 1323 l 1,40,-1
 362.7 848 l 1,41,-1
 696.6 849 l 2,0,1
EndSplineSet
EndChar
StartChar: uni01BD
Encoding: 445 445 445
Width: 1064
Flags: W
Fore
529.2 476 m 2,0,1
 623.7 476 623.7 476 739.8 420 c 0,2,3
 828.9 377 828.9 377 905.4 269 c 0,4,5
 978.3 165 978.3 165 978.3 27 c 0,6,7
 978.3 -124 978.3 -124 925.2 -209 c 2,8,-1
 900 -250 l 2,9,10
 882 -279 882 -279 841.5 -315 c 0,11,12
 704.7 -436 704.7 -436 452.7 -436 c 0,13,14
 368.1 -436 368.1 -436 279 -418 c 0,15,16
 189 -399 189 -399 93.5996 -362 c 1,17,-1
 93.5996 -167 l 1,18,19
 169.2 -216 169.2 -216 259.2 -241 c 0,20,21
 349.2 -266 349.2 -266 447.3 -266 c 0,22,23
 618.3 -266 618.3 -266 707.4 -191 c 0,24,25
 797.4 -116 797.4 -116 797.4 27 c 0,26,27
 797.4 161 797.4 161 714.6 234 c 0,28,29
 630.9 308 630.9 308 482.4 308 c 2,30,-1
 163.8 308 l 1,31,-1
 163.8 476 l 1,32,-1
 164.7 476 l 1,33,-1
 167.4 1120 l 1,34,-1
 878.4 1120 l 1,35,-1
 878.4 950 l 1,36,-1
 333 950 l 1,37,-1
 330.3 476 l 1,38,-1
 529.2 476 l 2,0,1
EndSplineSet
EndChar
StartChar: uni01BE
Encoding: 446 446 446
Width: 940
Flags: W
Fore
490.5 998 m 1,0,-1
 488.7 873 l 1,1,2
 641.7 843 641.7 843 742.5 724 c 0,3,4
 839.7 609 839.7 609 839.7 439 c 0,5,6
 839.7 253 839.7 253 740.7 128 c 0,7,8
 617.4 -29 617.4 -29 369.9 -29 c 0,9,10
 293.4 -29 293.4 -29 220.5 -11 c 0,11,12
 147.6 6 147.6 6 79.2002 41 c 1,13,-1
 79.2002 213 l 1,14,15
 144.9 173 144.9 173 220.5 149 c 0,16,17
 290.7 127 290.7 127 362.7 127 c 0,18,19
 523.8 127 523.8 127 612.9 241 c 0,20,21
 664.2 306 664.2 306 665.1 439 c 0,22,23
 665.1 537 665.1 537 612.9 613 c 0,24,25
 535.5 727 535.5 727 362.7 727 c 2,26,-1
 306.9 727 l 1,27,-1
 308.7 998 l 1,28,-1
 102.6 998 l 1,29,-1
 102.6 1162 l 1,30,-1
 308.7 1162 l 1,31,-1
 308.7 1438 l 1,32,-1
 490.5 1438 l 1,33,-1
 490.5 1162 l 1,34,-1
 698.4 1162 l 1,35,-1
 698.4 998 l 1,36,-1
 490.5 998 l 1,0,-1
EndSplineSet
EndChar
StartChar: uni01BF
Encoding: 447 447 447
Width: 1170
Flags: W
Fore
333.9 -122 m 1,1,-1
 333.9 -426 l 1,2,-1
 167.4 -426 l 1,3,-1
 167.4 1120 l 1,4,-1
 333.9 1120 l 1,5,-1
 333.9 950 l 1,6,7
 380.7 1016 380.7 1016 502.2 1098 c 0,8,9
 575.1 1147 575.1 1147 764.1 1147 c 0,10,11
 929.7 1147 929.7 1147 999 1035 c 0,12,13
 1069.2 922 1069.2 922 1069.2 769 c 0,14,15
 1069.2 344 1069.2 344 333.9 -122 c 1,1,-1
333.9 60 m 17,16,17
 897.3 460 897.3 460 897.3 709 c 0,18,19
 897.3 842 897.3 842 846 908 c 0,20,21
 795.6 973 795.6 973 687.6 973 c 0,22,23
 489.6 973 489.6 973 333.9 734 c 1,24,-1
 333.9 60 l 17,16,17
EndSplineSet
EndChar
StartChar: uni01C0
Encoding: 448 448 448
Width: 543
Flags: W
Fore
180.9 1493 m 1,0,-1
 362.7 1493 l 1,1,-1
 362.7 -426 l 1,2,-1
 180.9 -426 l 1,3,-1
 180.9 1493 l 1,0,-1
EndSplineSet
EndChar
StartChar: uni01C2
Encoding: 450 450 450
Width: 846
Flags: W
Fore
333.9 1493 m 1,0,-1
 515.7 1493 l 1,1,-1
 515.7 876 l 1,2,-1
 831.6 876 l 1,3,-1
 831.6 708 l 1,4,-1
 515.7 708 l 1,5,-1
 515.7 468 l 1,6,-1
 831.6 468 l 1,7,-1
 831.6 298 l 1,8,-1
 515.7 298 l 1,9,-1
 515.7 -426 l 1,10,-1
 333.9 -426 l 1,11,-1
 333.9 298 l 1,12,-1
 18 298 l 1,13,-1
 18 468 l 1,14,-1
 333.9 468 l 1,15,-1
 333.9 708 l 1,16,-1
 18 708 l 1,17,-1
 18 876 l 1,18,-1
 333.9 876 l 1,19,-1
 333.9 1493 l 1,0,-1
EndSplineSet
EndChar
StartChar: uni01E4
Encoding: 484 484 484
Width: 1428
Flags: W
Fore
1277.1 780 m 1,0,-1
 1277.1 482 l 1,1,-1
 1386 482 l 1,2,-1
 1386 394 l 1,3,-1
 1277.1 394 l 1,4,-1
 1277.1 139 l 1,5,6
 1171.8 56 1171.8 56 1044.9 13.5 c 128,-1,7
 918 -29 918 -29 774 -29 c 0,8,9
 459 -29 459 -29 281.25 175.5 c 128,-1,10
 103.5 380 103.5 380 103.5 745 c 0,11,12
 103.5 1111 103.5 1111 281.25 1315.5 c 128,-1,13
 459 1520 459 1520 774 1520 c 0,14,15
 905.4 1520 905.4 1520 1023.75 1484 c 128,-1,16
 1142.1 1448 1142.1 1448 1242 1378 c 1,17,-1
 1242 1163 l 1,18,19
 1141.2 1258 1141.2 1258 1027.8 1306 c 128,-1,20
 914.4 1354 914.4 1354 789.3 1354 c 0,21,22
 542.7 1354 542.7 1354 418.95 1201 c 128,-1,23
 295.2 1048 295.2 1048 295.2 745 c 0,24,25
 295.2 443 295.2 443 418.95 290 c 128,-1,26
 542.7 137 542.7 137 789.3 137 c 0,27,28
 885.6 137 885.6 137 961.2 155.5 c 128,-1,29
 1036.8 174 1036.8 174 1097.1 213 c 1,30,-1
 1097.1 394 l 1,31,-1
 869.4 394 l 1,32,-1
 869.4 482 l 1,33,-1
 1097.1 482 l 1,34,-1
 1097.1 614 l 1,35,-1
 800.1 614 l 1,36,-1
 800.1 780 l 1,37,-1
 1277.1 780 l 1,0,-1
EndSplineSet
EndChar
StartChar: uni01E5
Encoding: 485 485 485
Width: 1170
Flags: W
Fore
837 573 m 0,0,1
 837 773 837 773 762.75 883 c 128,-1,2
 688.5 993 688.5 993 554.4 993 c 0,3,4
 421.2 993 421.2 993 346.95 883 c 128,-1,5
 272.7 773 272.7 773 272.7 573 c 0,6,7
 272.7 374 272.7 374 346.95 264 c 128,-1,8
 421.2 154 421.2 154 554.4 154 c 0,9,10
 688.5 154 688.5 154 762.75 264 c 128,-1,11
 837 374 837 374 837 573 c 0,0,1
1002.6 139 m 2,12,13
 1002.6 29 1002.6 29 985.5 -59 c 1,14,-1
 1146.6 -59 l 1,15,-1
 1146.6 -129 l 1,16,-1
 968.4 -129 l 1,17,18
 940.5 -222 940.5 -222 888.3 -286 c 0,19,20
 774 -426 774 -426 538.2 -426 c 0,21,22
 450.9 -426 450.9 -426 373.5 -411.5 c 128,-1,23
 296.1 -397 296.1 -397 223.2 -367 c 1,24,-1
 223.2 -188 l 1,25,26
 296.1 -232 296.1 -232 367.2 -253 c 128,-1,27
 438.3 -274 438.3 -274 512.1 -274 c 0,28,29
 675 -274 675 -274 756 -179 c 0,30,31
 774.9 -156 774.9 -156 790.2 -128 c 1,32,-1
 217.8 -128 l 1,33,-1
 217.8 -59 l 1,34,-1
 817.2 -59 l 1,35,36
 837 12 837 12 837 106 c 2,37,-1
 837 197 l 1,38,39
 785.7 98 785.7 98 705.6 49 c 128,-1,40
 625.5 0 625.5 0 513.9 0 c 0,41,42
 328.5 0 328.5 0 215.1 157 c 128,-1,43
 101.7 314 101.7 314 101.7 573 c 0,44,45
 101.7 833 101.7 833 215.1 990 c 128,-1,46
 328.5 1147 328.5 1147 513.9 1147 c 0,47,48
 625.5 1147 625.5 1147 705.6 1098 c 128,-1,49
 785.7 1049 785.7 1049 837 950 c 1,50,-1
 837 1120 l 1,51,-1
 1002.6 1120 l 1,52,-1
 1002.6 139 l 2,12,13
EndSplineSet
EndChar
StartChar: uni01F6
Encoding: 502 502 502
Width: 2051
Flags: W
Fore
180.9 1493 m 25,0,-1
 362.7 1493 l 1,1,-1
 362.7 881 l 1,2,-1
 1023.3 881 l 1,3,-1
 1023.3 1493 l 1,4,-1
 1205.1 1493 l 1,5,-1
 1205.1 449 l 2,6,7
 1205.1 290 1205.1 290 1260.9 210 c 0,8,9
 1315.8 132 1315.8 132 1453.5 131 c 0,10,11
 1586.7 131 1586.7 131 1646.1 210 c 0,12,13
 1701.9 285 1701.9 285 1701.9 449 c 2,14,-1
 1701.9 1120 l 1,15,-1
 1883.7 1120 l 1,16,-1
 1883.7 442 l 2,17,18
 1883.7 219 1883.7 219 1793.7 91 c 0,19,20
 1707.3 -29 1707.3 -29 1453.5 -29 c 0,21,22
 1206 -29 1206 -29 1113.3 91 c 0,23,24
 1023.3 209 1023.3 209 1023.3 442 c 2,25,-1
 1023.3 711 l 1,26,-1
 362.7 711 l 1,27,-1
 362.7 0 l 1,28,-1
 180.9 0 l 1,29,-1
 180.9 1493 l 25,0,-1
EndSplineSet
EndChar
StartChar: uni01F7
Encoding: 503 503 503
Width: 1257
Flags: W
Fore
362.7 156 m 1,1,-1
 362.7 -426 l 1,2,-1
 180.9 -426 l 1,3,-1
 180.9 1493 l 1,4,-1
 362.7 1493 l 1,5,-1
 362.7 1308 l 1,6,7
 413.1 1380 413.1 1380 543.6 1467 c 0,8,9
 621.9 1520 621.9 1520 825.3 1520 c 0,10,11
 1003.5 1520 1003.5 1520 1078.2 1400 c 0,12,13
 1153.8 1278 1153.8 1278 1153.8 1114 c 0,14,15
 1153.8 657 1153.8 657 362.7 156 c 1,1,-1
362.7 351 m 17,16,17
 968.4 781 968.4 781 968.4 1049 c 0,18,19
 968.4 1192 968.4 1192 913.5 1263 c 0,20,21
 859.5 1333 859.5 1333 743.4 1333 c 0,22,23
 530.1 1333 530.1 1333 362.7 1076 c 1,24,-1
 362.7 351 l 17,16,17
EndSplineSet
EndChar
StartChar: uni021C
Encoding: 540 540 540
Width: 1155
Flags: W
Fore
140.4 -270 m 1,0,1
 319.5 -206 319.5 -206 494.1 -118 c 0,2,3
 642.6 -43 642.6 -43 756 78 c 0,4,5
 844.2 172 844.2 172 844.2 314 c 0,6,7
 844.2 427 844.2 427 778.5 494 c 128,-1,9
 712.8 561 712.8 561 630.9 561 c 0,10,11
 574.2 561 574.2 561 511.2 530 c 2,12,-1
 295.2 424 l 1,13,-1
 295.2 595 l 1,14,-1
 518.4 701 l 2,15,16
 646.2 762 646.2 762 741.6 880 c 0,17,18
 812.7 968 812.7 968 812.7 1112 c 0,19,20
 812.7 1235 812.7 1235 739.8 1288 c 0,21,22
 654.3 1351 654.3 1351 565.2 1350 c 0,23,24
 470.7 1350 470.7 1350 369 1292 c 0,25,26
 288.9 1246 288.9 1246 180.9 1166 c 1,27,28
 180.9 1356 l 1,29,30
 288 1422 288 1422 374.4 1464 c 0,31,32
 490.5 1520 490.5 1520 581.4 1520 c 0,33,34
 754.2 1520 754.2 1520 873 1416 c 0,35,36
 993.6 1311 993.6 1311 993.6 1133 c 0,37,38
 993.6 963 993.6 963 929.7 864 c 0,39,40
 855.9 751 855.9 751 747.9 674 c 1,41,42
 872.1 655 872.1 655 945 546 c 0,43,44
 1025.1 427 1025.1 427 1025.1 314 c 0,45,46
 1025.1 96 1025.1 96 890.1 -46 c 0,47,48
 773.1 -169 773.1 -169 499.5 -298 c 0,49,50
 303.3 -390 303.3 -390 140.4 -430 c 1,51,-1
 140.4 -270 l 1,0,1
EndSplineSet
EndChar
StartChar: uni021D
Encoding: 541 541 541
Width: 961
Flags: W
Fore
63.9004 -303 m 1,0,1
 224.1 -252 224.1 -252 382.5 -180 c 0,2,3
 515.7 -120 515.7 -120 618.3 -21 c 0,4,5
 697.5 55 697.5 55 697.5 170 c 0,6,7
 697.5 261 697.5 261 638.1 316 c 0,8,9
 579.6 370 579.6 370 505.8 370 c 0,10,11
 454.5 370 454.5 370 397.8 345 c 2,12,-1
 203.4 259 l 1,13,-1
 203.4 398 l 1,14,-1
 404.1 483 l 2,15,16
 515.7 530 515.7 530 604.8 629 c 0,17,18
 668.7 700 668.7 700 668.7 816 c 0,19,20
 668.7 912 668.7 912 603 959 c 0,21,22
 532.8 1009 532.8 1009 446.4 1009 c 0,23,24
 363.6 1009 363.6 1009 270 962 c 0,25,26
 198.9 927 198.9 927 100.8 860 c 1,27,28
 100.8 1014 l 1,29,30
 187.2 1062 187.2 1062 275.4 1101 c 0,31,32
 378.9 1147 378.9 1147 460.8 1147 c 0,33,34
 614.7 1147 614.7 1147 723.6 1062 c 0,35,36
 831.6 977 831.6 977 831.6 833 c 0,37,38
 831.6 696 831.6 696 774 615 c 0,39,40
 708.3 524 708.3 524 611.1 461 c 1,41,42
 722.7 446 722.7 446 788.4 358 c 0,43,44
 860.4 261 860.4 261 860.4 170 c 0,45,46
 860.4 -7 860.4 -7 738.9 -122 c 0,47,48
 630.9 -224 630.9 -224 387 -326 c 0,49,50
 210.6 -400 210.6 -400 63.9004 -433 c 1,51,-1
 63.9004 -303 l 1,0,1
EndSplineSet
EndChar
StartChar: uni0220
Encoding: 544 544 544
Width: 1355
Flags: W
Fore
993.6 895 m 2,0,1
 993.6 1109.65 993.6 1109.65 924.507 1216.33 c 128,-1,2
 855.405 1323 855.405 1323 717.3 1323 c 0,3,4
 556.2 1323 556.2 1323 459.45 1195.5 c 128,-1,5
 362.7 1068 362.7 1068 362.7 846 c 2,6,-1
 362.7 0 l 1,7,-1
 180.9 0 l 1,8,-1
 180.9 1493 l 1,9,-1
 362.7 1493 l 1,10,-1
 362.7 1252 l 1,11,12
 435.168 1386.58 435.168 1386.58 527.346 1453.88 c 128,-1,13
 619.524 1521.17 619.524 1521.17 760.5 1520 c 0,14,15
 964.8 1520 964.8 1520 1069.65 1360.5 c 128,-1,16
 1174.5 1201 1174.5 1201 1174.5 893 c 2,17,-1
 1174.5 -426 l 17,18,-1
 993.6 -426 l 25,19,-1
 993.6 895 l 2,0,1
EndSplineSet
EndChar
StartChar: uni0221
Encoding: 545 545 545
Width: 1544
Flags: W
Fore
1085.4 130 m 9,0,1
 1100.7 125 1100.7 125 1134 125 c 0,2,3
 1278 125 1278 125 1278 300 c 0,4,5
 1278 345 1278 345 1231.2 346 c 0,6,7
 1184.4 346 1184.4 346 1085.4 130 c 9,0,1
1002.6 314 m 1,8,9
 1101.6 498 1101.6 498 1224 498 c 0,10,11
 1443.6 498 1443.6 498 1443.6 292 c 0,12,13
 1443.6 -29 1443.6 -29 1135.8 -29 c 0,14,15
 1070.1 -29 1070.1 -29 1022.4 -14 c 1,16,17
 991.8 -86 991.8 -86 970.2 -144 c 1,18,-1
 793.8 -144 l 1,19,20
 819.9 -75 819.9 -75 880.2 72 c 1,21,22
 837 132 837 132 837 168 c 1,23,24
 784.8 68 784.8 68 705.6 20 c 0,25,26
 625.5 -29 625.5 -29 513.9 -29 c 0,27,28
 331.2 -29 331.2 -29 216 133 c 0,29,30
 101.7 295 101.7 295 101.7 559 c 128,-1,31
 101.7 823 101.7 823 216 985 c 0,32,33
 331.2 1147 331.2 1147 513.9 1147 c 0,34,35
 625.5 1147 625.5 1147 705.6 1098 c 0,36,37
 784.8 1050 784.8 1050 837 950 c 1,38,-1
 837 1556 l 1,39,-1
 1002.6 1556 l 1,40,-1
 1002.6 314 l 1,8,9
272.7 559 m 128,-1,42
 272.7 356 272.7 356 347.4 240 c 0,43,44
 423 125 423 125 554.4 125 c 128,-1,45
 685.8 125 685.8 125 761.4 240 c 0,46,47
 837 356 837 356 837 559 c 128,-1,48
 837 762 837 762 761.4 878 c 0,49,50
 685.8 993 685.8 993 554.4 993 c 128,-1,51
 423 993 423 993 347.4 878 c 0,52,41
 272.7 762 272.7 762 272.7 559 c 128,-1,42
EndSplineSet
EndChar
StartChar: uni0222
Encoding: 546 546 546
Width: 1287
Flags: W
Fore
643.5 709 m 0,0,1
 477.9 709 477.9 709 382.5 632 c 0,2,3
 286.2 555 286.2 555 286.2 420 c 128,-1,4
 286.2 285 286.2 285 382.5 208 c 0,5,6
 477.9 131 477.9 131 643.5 131 c 128,-1,7
 809.1 131 809.1 131 905.4 208 c 0,8,9
 1001.7 286 1001.7 286 1001.7 420 c 0,10,11
 1001.7 555 1001.7 555 906.3 632 c 128,-1,12
 810.9 709 810.9 709 643.5 709 c 0,0,1
591.3 1260 m 17,13,14
 474.3 1257 474.3 1257 397.8 1195 c 128,-1,15
 321.3 1133 321.3 1133 321.3 1054 c 0,16,17
 321.3 985 321.3 985 406.8 913 c 0,18,19
 459.9 868 459.9 868 643.5 868 c 0,20,21
 794.7 868 794.7 868 880.2 933 c 0,22,23
 966.6 998 966.6 998 966.6 1134 c 0,24,25
 966.6 1292 966.6 1292 898.2 1335 c 0,26,27
 800.1 1412 800.1 1412 683.1 1420 c 9,28,-1
 683.1 1520 l 1,29,30
 888.3 1520 888.3 1520 1023.3 1416 c 0,31,32
 1148.4 1319 1148.4 1319 1148.4 1133 c 0,33,34
 1148.4 1005 1148.4 1005 1071.9 916 c 128,-1,35
 995.4 827 995.4 827 858.6 795 c 1,36,37
 1013.4 761 1013.4 761 1098.9 662 c 0,38,39
 1185.3 563 1185.3 563 1185.3 420 c 0,40,41
 1185.3 203 1185.3 203 1044.9 87 c 0,42,43
 905.4 -29 905.4 -29 643.5 -29 c 128,-1,44
 381.6 -29 381.6 -29 242.1 87 c 0,45,46
 101.7 203 101.7 203 101.7 420 c 0,47,48
 101.7 563 101.7 563 188.1 662 c 0,49,50
 275.4 761 275.4 761 429.3 795 c 1,51,52
 275.4 826 275.4 826 215.1 896 c 0,53,54
 138.6 985 138.6 985 138.6 1073 c 0,55,56
 138.6 1203 138.6 1203 255.6 1286 c 0,57,58
 360 1360 360 1360 591.3 1360 c 1,59,-1
 591.3 1260 l 17,13,14
EndSplineSet
EndChar
StartChar: uni0223
Encoding: 547 547 547
Width: 1125
Flags: W
Fore
562.5 709 m 0,0,1
 432.9 709 432.9 709 358.2 632 c 0,2,3
 284.4 555 284.4 555 284.4 420 c 128,-1,4
 284.4 285 284.4 285 358.2 208 c 0,5,6
 432.9 131 432.9 131 562.5 131 c 128,-1,7
 692.1 131 692.1 131 766.8 208 c 0,8,9
 841.5 286 841.5 286 841.5 420 c 0,10,11
 841.5 555 841.5 555 766.8 632 c 0,12,13
 693 709 693 709 562.5 709 c 0,0,1
921.6 1327 m 17,14,15
 973.8 1245 973.8 1245 973.8 1133 c 0,16,17
 973.8 980 973.8 980 927 916 c 0,18,19
 861.3 827 861.3 827 745.2 795 c 1,20,21
 876.6 761 876.6 761 950.4 662 c 0,22,23
 1023.3 563 1023.3 563 1023.3 420 c 0,24,25
 1023.3 203 1023.3 203 903.6 87 c 0,26,27
 784.8 -29 784.8 -29 562.5 -29 c 128,-1,28
 340.2 -29 340.2 -29 221.4 87 c 0,29,30
 101.7 203 101.7 203 101.7 420 c 0,31,32
 101.7 563 101.7 563 175.5 662 c 128,-1,33
 249.3 761 249.3 761 380.7 795 c 1,34,35
 252.9 830 252.9 830 198 916 c 0,36,37
 151.2 991 151.2 991 151.2 1133 c 0,38,39
 151.2 1239 151.2 1239 207.9 1327 c 9,40,-1
 352.8 1295 l 17,41,42
 314.1 1230 314.1 1230 314.1 1114 c 128,-1,43
 314.1 998 314.1 998 379.8 933 c 0,44,45
 444.6 868 444.6 868 562.5 868 c 0,46,47
 679.5 868 679.5 868 745.2 933 c 0,48,49
 811.8 998 811.8 998 811.8 1114 c 0,50,51
 811.8 1233 811.8 1233 772.2 1295 c 9,52,-1
 921.6 1327 l 17,14,15
EndSplineSet
EndChar
StartChar: uni0224
Encoding: 548 548 548
Width: 1262
Flags: W
Fore
1179.9 -20 m 2,0,1
 1179.9 -309 1179.9 -309 1037.7 -389 c 0,2,3
 972.9 -426 972.9 -426 870.3 -426 c 2,4,-1
 641.7 -426 l 1,5,-1
 641.7 -270 l 1,6,-1
 851.4 -270 l 2,7,8
 945.9 -270 945.9 -270 980.1 -222 c 0,9,10
 1014.3 -173 1014.3 -173 1014.3 -20 c 2,11,-1
 1014.3 0 l 1,12,-1
 82.7998 0 l 1,13,-1
 82.7998 154 l 1,14,-1
 932.4 1323 l 1,15,-1
 103.5 1323 l 1,16,-1
 103.5 1493 l 1,17,-1
 1159.2 1493 l 1,18,-1
 1159.2 1339 l 1,19,-1
 309.6 170 l 1,20,-1
 1179.9 170 l 1,21,-1
 1179.9 -20 l 2,0,1
EndSplineSet
EndChar
StartChar: uni0225
Encoding: 549 549 549
Width: 967
Flags: W
Fore
888.3 -20 m 2,0,1
 888.3 -309 888.3 -309 746.1 -389 c 0,2,3
 681.3 -426 681.3 -426 578.7 -426 c 2,4,-1
 350.1 -426 l 1,5,-1
 350.1 -270 l 1,6,-1
 559.8 -270 l 2,7,8
 654.3 -270 654.3 -270 688.5 -222 c 0,9,10
 722.7 -173 722.7 -173 722.7 -20 c 2,11,-1
 722.7 0 l 1,12,-1
 79.2002 0 l 1,13,-1
 79.2002 168 l 1,14,-1
 702 973 l 1,15,-1
 101.7 973 l 1,16,-1
 101.7 1120 l 1,17,-1
 888.3 1120 l 1,18,-1
 888.3 952 l 1,19,-1
 265.5 147 l 1,20,-1
 888.3 147 l 1,21,-1
 888.3 -20 l 2,0,1
EndSplineSet
EndChar
StartChar: uni0234
Encoding: 564 564 564
Width: 874
Flags: W
AnchorPoint: "above" 243.9 1520 basechar 0
AnchorPoint: "below" 243.9 0 basechar 0
Fore
415.8 130 m 9,0,1
 431.1 125 431.1 125 464.4 125 c 0,2,3
 608.4 125 608.4 125 608.4 300 c 0,4,5
 608.4 345 608.4 345 561.6 346 c 0,6,7
 514.8 346 514.8 346 415.8 130 c 9,0,1
333 314 m 1,8,9
 432 498 432 498 554.4 498 c 0,10,11
 774 498 774 498 774 292 c 0,12,13
 774 -29 774 -29 466.2 -29 c 0,14,15
 400.5 -29 400.5 -29 352.8 -14 c 1,16,17
 322.2 -86 322.2 -86 300.6 -144 c 1,18,-1
 124.2 -144 l 1,19,20
 150.3 -75 150.3 -75 210.6 72 c 1,21,22
 166.5 132 166.5 132 167.4 222 c 2,23,-1
 167.4 1550 l 1,24,-1
 333 1550 l 1,25,-1
 333 314 l 1,8,9
EndSplineSet
EndChar
StartChar: uni0235
Encoding: 565 565 565
Width: 1553
Flags: W
AnchorPoint: "above" 584.1 1147 basechar 0
AnchorPoint: "below" 610.2 0 basechar 0
Fore
1094.4 130 m 9,0,1
 1109.7 125 1109.7 125 1143 125 c 0,2,3
 1287 125 1287 125 1287 300 c 0,4,5
 1287 345 1287 345 1240.2 346 c 0,6,7
 1193.4 346 1193.4 346 1094.4 130 c 9,0,1
1011.6 314 m 1,8,9
 1110.6 498 1110.6 498 1233 498 c 0,10,11
 1452.6 498 1452.6 498 1452.6 292 c 0,12,13
 1452.6 -29 1452.6 -29 1144.8 -29 c 0,14,15
 1079.1 -29 1079.1 -29 1031.4 -14 c 1,16,17
 1000.8 -86 1000.8 -86 979.2 -144 c 1,18,-1
 802.8 -144 l 1,19,20
 828.9 -75 828.9 -75 889.2 72 c 1,21,22
 845.1 132 845.1 132 846 222 c 1,23,-1
 846 670 l 1,24,25
 846 829 846 829 790.2 908 c 128,-1,26
 734.4 987 734.4 987 622.8 987 c 0,27,28
 488.7 987 488.7 987 411.3 892 c 128,-1,29
 333.9 797 333.9 797 333.9 633 c 2,30,-1
 333.9 0 l 1,31,-1
 167.4 0 l 1,32,-1
 167.4 1120 l 1,33,-1
 333.9 1120 l 1,34,-1
 333.9 946 l 1,35,36
 393.3 1047 393.3 1047 473.4 1097 c 0,37,38
 554.4 1147 554.4 1147 659.7 1147 c 0,39,40
 833.4 1147 833.4 1147 922.5 1028 c 0,41,42
 1011.6 908 1011.6 908 1011.6 676 c 2,43,-1
 1011.6 314 l 1,8,9
EndSplineSet
EndChar
StartChar: uni0236
Encoding: 566 566 566
Width: 879
Flags: W
AnchorPoint: "above" 253.8 1520 basechar 0
AnchorPoint: "below" 450 0 basechar 0
Fore
420.3 130 m 9,0,1
 435.6 125 435.6 125 468.9 125 c 0,2,3
 612.9 125 612.9 125 612.9 300 c 0,4,5
 612.9 345 612.9 345 566.1 346 c 0,6,7
 519.3 346 519.3 346 420.3 130 c 9,0,1
337.5 314 m 17,8,9
 436.5 498 436.5 498 558.9 498 c 0,10,11
 778.5 498 778.5 498 778.5 292 c 0,12,13
 778.5 -29 778.5 -29 470.7 -29 c 0,14,15
 405 -29 405 -29 356.4 -14 c 1,16,17
 326.7 -86 326.7 -86 305.1 -144 c 1,18,-1
 128.7 -144 l 1,19,20
 154.8 -75 154.8 -75 215.1 72 c 1,21,22
 171 132 171 132 171 222 c 1,23,-1
 171 977 l 1,24,-1
 49.5 977 l 1,25,-1
 49.5 1120 l 1,26,-1
 171 1120 l 1,27,-1
 171 1438 l 1,28,-1
 337.5 1438 l 1,29,-1
 337.5 1120 l 1,30,-1
 678.6 1120 l 1,31,-1
 678.6 977 l 1,32,-1
 337.5 977 l 1,33,-1
 337.5 314 l 17,8,9
EndSplineSet
EndChar
StartChar: dotlessj
Encoding: 567 567 567
Width: 512
Flags: W
AnchorPoint: "above" 258.3 1147 basechar 0
Fore
173.7 1120 m 1,0,-1
 339.3 1120 l 1,1,-1
 339.3 -20 l 2,2,3
 339.3 -234 339.3 -234 265.95 -330 c 128,-1,4
 192.6 -426 192.6 -426 29.7002 -426 c 2,5,-1
 -33.2998 -426 l 1,6,-1
 -33.2998 -270 l 1,7,-1
 10.7998 -270 l 2,8,9
 105.3 -270 105.3 -270 139.5 -221.5 c 128,-1,10
 173.7 -173 173.7 -173 173.7 -20 c 2,11,-1
 173.7 1120 l 1,0,-1
EndSplineSet
EndChar
StartChar: uni0238
Encoding: 568 568 568
Width: 1839
Flags: W
Fore
272.7 559 m 0,0,1
 272.7 356 272.7 356 347.4 240 c 0,2,3
 423 125 423 125 554.4 125 c 0,4,5
 685.8 125 685.8 125 761.4 240 c 0,6,7
 837 356 837 356 837 559 c 0,8,9
 837 762 837 762 761.4 878 c 0,10,11
 685.8 993 685.8 993 554.4 993 c 0,12,13
 423 993 423 993 347.4 878 c 0,14,15
 272.7 762 272.7 762 272.7 559 c 0,0,1
1003.5 950 m 1,16,17
 1055.7 1050 1055.7 1050 1135.8 1098 c 0,18,19
 1215 1147 1215 1147 1325.7 1147 c 0,20,21
 1509.3 1147 1509.3 1147 1623.6 985 c 0,22,23
 1738.8 823 1738.8 823 1738.8 559 c 0,24,25
 1738.8 295 1738.8 295 1623.6 133 c 0,26,27
 1509.3 -29 1509.3 -29 1325.7 -29 c 0,28,29
 1215 -29 1215 -29 1135.8 20 c 0,30,31
 1055.7 68 1055.7 68 1003.5 168 c 1,32,-1
 1003.5 0 l 1,33,-1
 1002.6 0 l 1,34,-1
 837 0 l 1,35,-1
 837 168 l 1,36,37
 784.8 68 784.8 68 705.6 20 c 0,38,39
 625.5 -29 625.5 -29 513.9 -29 c 0,40,41
 331.2 -29 331.2 -29 216 133 c 0,42,43
 101.7 295 101.7 295 101.7 559 c 0,44,45
 101.7 823 101.7 823 216 985 c 0,46,47
 331.2 1147 331.2 1147 513.9 1147 c 0,48,49
 625.5 1147 625.5 1147 705.6 1098 c 0,50,51
 784.8 1050 784.8 1050 837 950 c 1,52,-1
 837 1556 l 1,53,-1
 1002.6 1556 l 1,54,-1
 1003.5 1556 l 1,55,-1
 1003.5 950 l 1,16,17
1566.9 559 m 0,56,57
 1566.9 762 1566.9 762 1492.2 878 c 0,58,59
 1416.6 993 1416.6 993 1285.2 993 c 0,60,61
 1153.8 993 1153.8 993 1078.2 878 c 0,62,63
 1003.5 762 1003.5 762 1003.5 559 c 0,64,65
 1003.5 356 1003.5 356 1078.2 240 c 0,66,67
 1153.8 125 1153.8 125 1285.2 125 c 0,68,69
 1416.6 125 1416.6 125 1492.2 240 c 0,70,71
 1566.9 356 1566.9 356 1566.9 559 c 0,56,57
EndSplineSet
EndChar
StartChar: uni0239
Encoding: 569 569 569
Width: 1839
Flags: W
Fore
1566.9 559 m 0,0,1
 1566.9 762 1566.9 762 1492.2 878 c 0,2,3
 1416.6 993 1416.6 993 1285.2 993 c 0,4,5
 1153.8 993 1153.8 993 1078.2 878 c 0,6,7
 1003.5 762 1003.5 762 1003.5 559 c 0,8,9
 1003.5 356 1003.5 356 1078.2 240 c 0,10,11
 1153.8 125 1153.8 125 1285.2 125 c 0,12,13
 1416.6 125 1416.6 125 1492.2 240 c 0,14,15
 1566.9 356 1566.9 356 1566.9 559 c 0,0,1
1003.5 168 m 1,16,-1
 1003.5 -426 l 1,17,-1
 1002.6 -426 l 1,18,-1
 837 -426 l 1,19,-1
 837 168 l 1,20,21
 784.8 68 784.8 68 705.6 20 c 0,22,23
 625.5 -29 625.5 -29 513.9 -29 c 0,24,25
 331.2 -29 331.2 -29 216 133 c 0,26,27
 101.7 295 101.7 295 101.7 559 c 0,28,29
 101.7 823 101.7 823 216 985 c 0,30,31
 331.2 1147 331.2 1147 513.9 1147 c 0,32,33
 625.5 1147 625.5 1147 705.6 1098 c 0,34,35
 784.8 1050 784.8 1050 837 950 c 1,36,-1
 837 1120 l 1,37,-1
 1002.6 1120 l 1,38,-1
 1003.5 1120 l 1,39,-1
 1003.5 950 l 1,40,41
 1055.7 1050 1055.7 1050 1135.8 1098 c 0,42,43
 1215 1147 1215 1147 1325.7 1147 c 0,44,45
 1509.3 1147 1509.3 1147 1623.6 985 c 0,46,47
 1738.8 823 1738.8 823 1738.8 559 c 0,48,49
 1738.8 295 1738.8 295 1623.6 133 c 0,50,51
 1509.3 -29 1509.3 -29 1325.7 -29 c 0,52,53
 1215 -29 1215 -29 1135.8 20 c 0,54,55
 1055.7 68 1055.7 68 1003.5 168 c 1,16,-1
272.7 559 m 0,56,57
 272.7 356 272.7 356 347.4 240 c 0,58,59
 423 125 423 125 554.4 125 c 0,60,61
 685.8 125 685.8 125 761.4 240 c 0,62,63
 837 356 837 356 837 559 c 0,64,65
 837 762 837 762 761.4 878 c 0,66,67
 685.8 993 685.8 993 554.4 993 c 0,68,69
 423 993 423 993 347.4 878 c 0,70,71
 272.7 762 272.7 762 272.7 559 c 0,56,57
EndSplineSet
EndChar
StartChar: uni023A
Encoding: 570 570 570
Width: 1260
Flags: W
Fore
527.4 1493 m 1,0,-1
 733.5 1493 l 1,1,-1
 854.1 1142 l 1,2,-1
 1171.8 1559 l 1,3,-1
 1263.6 1470 l 1,4,-1
 903.6 997 l 1,5,-1
 1245.6 0 l 1,6,-1
 1056.6 0 l 1,7,-1
 934.2 383 l 1,8,-1
 435.6 383 l 1,9,-1
 251.1 142 l 1,10,-1
 206.1 0 l 1,11,-1
 143.1 0 l 1,12,-1
 90 -70 l 1,13,-1
 16.2002 0 l 1,14,-1
 14.4004 0 l 1,15,-1
 15.2998 1 l 1,16,-1
 -2.7002 18 l 1,17,-1
 39.5996 74 l 1,18,-1
 527.4 1493 l 1,0,-1
630 1294 m 1,19,-1
 383.4 551 l 1,20,-1
 403.2 551 l 1,21,-1
 733.5 984 l 1,22,-1
 630 1294 l 1,19,-1
563.4 551 m 1,23,-1
 877.5 551 l 1,24,-1
 782.1 838 l 1,25,-1
 563.4 551 l 1,23,-1
EndSplineSet
EndChar
StartChar: uni023B
Encoding: 571 571 571
Width: 1287
Flags: W
Fore
102.6 -70 m 1,0,-1
 10.7998 18 l 1,1,-1
 208.8 279 l 1,2,3
 103.5 466 103.5 466 103.5 745 c 0,4,5
 103.5 1105 103.5 1105 279 1312 c 0,6,7
 454.5 1520 454.5 1520 759.6 1520 c 0,8,9
 880.2 1520 880.2 1520 986.4 1484 c 0,10,11
 1041.3 1466 1041.3 1466 1093.5 1439 c 1,12,-1
 1184.4 1559 l 1,13,-1
 1276.2 1470 l 1,14,-1
 1187.1 1352 l 1,15,-1
 1187.1 1165 l 1,16,17
 1145.7 1208 1145.7 1208 1101.6 1241 c 1,18,-1
 399.6 319 l 1,19,20
 407.7 306 407.7 306 417.6 294 c 0,21,22
 540 137 540 137 770.4 137 c 0,23,24
 887.4 137 887.4 137 991.8 184 c 0,25,26
 1095.3 231 1095.3 231 1187.1 326 c 1,27,-1
 1187.1 115 l 1,28,29
 1091.7 43 1091.7 43 984.6 7 c 0,30,31
 878.4 -29 878.4 -29 759.6 -29 c 0,32,33
 460.8 -29 460.8 -29 286.2 170 c 1,34,-1
 102.6 -70 l 1,0,-1
337.5 447 m 1,35,-1
 992.7 1307 l 1,36,-1
 991.8 1307 l 2,37,38
 887.4 1354 887.4 1354 770.4 1354 c 0,39,40
 540 1354 540 1354 417.6 1198 c 0,41,42
 295.2 1041 295.2 1041 295.2 745 c 0,43,44
 295.2 572 295.2 572 337.5 447 c 1,35,-1
EndSplineSet
EndChar
StartChar: uni023C
Encoding: 572 572 572
Width: 1013
Flags: W
Fore
94.5 -94 m 1,0,-1
 8.09961 -16 l 1,1,-1
 178.2 214 l 1,2,3
 101.7 355 101.7 355 101.7 559 c 0,4,5
 101.7 833 101.7 833 237.6 990 c 0,6,7
 372.6 1147 372.6 1147 608.4 1147 c 0,8,9
 684.9 1147 684.9 1147 757.8 1130 c 0,10,11
 799.2 1120 799.2 1120 839.7 1104 c 1,12,-1
 919.8 1212 l 1,13,-1
 1005.3 1133 l 1,14,-1
 899.1 990 l 1,15,-1
 899.1 905 l 1,16,17
 876.6 919 876.6 919 855 930 c 1,18,-1
 353.7 256 l 1,19,20
 360 248 360 248 365.4 240 c 0,21,22
 454.5 127 454.5 127 615.6 127 c 0,23,24
 687.6 127 687.6 127 757.8 148 c 0,25,26
 828.9 170 828.9 170 899.1 213 c 1,27,-1
 899.1 43 l 1,28,29
 829.8 7 829.8 7 756 -11 c 0,30,31
 681.3 -29 681.3 -29 597.6 -29 c 0,32,33
 381.6 -29 381.6 -29 249.3 115 c 1,34,-1
 94.5 -94 l 1,0,-1
298.8 376 m 1,35,-1
 743.4 974 l 1,36,37
 679.5 991 679.5 991 615.6 991 c 0,38,39
 454.5 991 454.5 991 365.4 878 c 0,40,41
 276.3 764 276.3 764 276.3 559 c 0,42,43
 276.3 456 276.3 456 298.8 376 c 1,35,-1
EndSplineSet
EndChar
StartChar: uni023D
Encoding: 573 573 573
Width: 1026
Flags: W
Fore
180.9 1493 m 1,0,-1
 362.7 1493 l 1,1,-1
 362.7 844 l 1,2,-1
 534.6 844 l 1,3,-1
 534.6 700 l 1,4,-1
 362.7 700 l 1,5,-1
 362.7 170 l 1,6,-1
 1017 170 l 1,7,-1
 1017 0 l 1,8,-1
 180.9 0 l 1,9,-1
 180.9 700 l 1,10,-1
 9 700 l 1,11,-1
 9 844 l 1,12,-1
 180.9 844 l 1,13,-1
 180.9 1493 l 1,0,-1
EndSplineSet
EndChar
StartChar: uni023E
Encoding: 574 574 574
Width: 1125
Flags: W
Fore
1131.3 1385 m 1,0,-1
 1131.3 1323 l 1,15,-1
 1084.5 1323 l 1,14,-1
 654.3 759 l 1,13,-1
 654.3 0 l 1,12,-1
 471.6 0 l 1,11,-1
 471.6 519 l 1,10,-1
 22.5 -70 l 1,9,-1
 -70.2002 18 l 1,8,-1
 471.6 729 l 1,7,-1
 471.6 1323 l 1,6,-1
 -5.40039 1323 l 1,5,-1
 -5.40039 1493 l 1,4,-1
 1053.9 1493 l 1,3,-1
 1104.3 1559 l 1,2,-1
 1196.1 1470 l 1,1,-1
 1131.3 1385 l 1,0,-1
654.3 969 m 1,16,-1
 924.3 1323 l 1,18,-1
 654.3 1323 l 1,17,-1
 654.3 969 l 1,16,-1
EndSplineSet
EndChar
StartChar: uni023F
Encoding: 575 575 575
Width: 960
Flags: W
Fore
700.2 295 m 0,50,51
 700.2 370 700.2 370 655.2 410 c 128,-1,53
 609.3 450 609.3 450 455.4 487 c 2,54,-1
 397.8 502 l 2,55,56
 243.9 538 243.9 538 175.5 612 c 128,-1,58
 107.1 687 107.1 687 107.1 817 c 0,59,60
 107.1 975 107.1 975 207.9 1061 c 128,-1,62
 308.7 1147 308.7 1147 494.1 1147 c 0,63,64
 585.9 1147 585.9 1147 666.9 1132 c 128,-1,66
 747.9 1117 747.9 1117 816.3 1087 c 1,0,-1
 816.3 913 l 1,1,2
 746.1 953 746.1 953 670.5 973 c 128,-1,4
 594.9 993 594.9 993 513.9 993 c 0,5,6
 390.6 993 390.6 993 329.4 951 c 128,-1,8
 267.3 909 267.3 909 267.3 825 c 0,9,10
 267.3 761 267.3 761 311.4 724 c 128,-1,12
 355.5 688 355.5 688 488.7 655 c 2,13,-1
 545.4 641 l 2,14,15
 723.6 597 723.6 597 795.6 522 c 0,16,17
 870.3 446 870.3 446 870.3 309 c 0,18,19
 870.3 153 870.3 153 759.6 62 c 0,20,21
 681.3 -2 681.3 -2 562.5 -21 c 1,22,-1
 705.6 -180 l 1,23,-1
 837.9 -306 l 2,24,25
 875.7 -342 875.7 -342 944.1 -342 c 1,26,-1
 944.1 -496 l 1,27,-1
 909 -496 l 2,28,29
 833.4 -496 833.4 -496 730.8 -435 c 0,30,31
 666.9 -397 666.9 -397 586.8 -306 c 2,32,-1
 373.5 -63 l 2,33,34
 346.5 -33 346.5 -33 314.1 -17 c 0,35,36
 299.7 -14 299.7 -14 284.4 -12 c 0,37,38
 197.1 6 197.1 6 99.9004 41 c 1,39,-1
 99.9004 231 l 1,21,22
 191.7 178 191.7 178 280.8 152 c 128,-1,23
 369.9 125 369.9 125 457.2 125 c 0,24,25
 574.2 125 574.2 125 637.2 170 c 128,-1,26
 700.2 214 700.2 214 700.2 295 c 0,50,51
EndSplineSet
EndChar
StartChar: uni0240
Encoding: 576 576 576
Width: 967
Flags: W
Fore
101.7 1120 m 1,0,-1
 888.3 1120 l 1,1,-1
 888.3 952 l 1,2,-1
 267.3 149 l 1,3,4
 350.1 133 350.1 133 394.2 84 c 2,5,-1
 631.8 -180 l 1,6,-1
 764.1 -306 l 2,7,8
 801.9 -342 801.9 -342 870.3 -342 c 2,9,-1
 967.5 -342 l 1,10,-1
 967.5 -496 l 1,11,-1
 835.2 -496 l 2,12,13
 759.6 -496 759.6 -496 657 -435 c 0,14,15
 593.1 -397 593.1 -397 513 -306 c 2,16,-1
 299.7 -63 l 2,17,18
 244.8 0 244.8 0 163.8 0 c 0,19,-1
 79.2002 0 l 1,20,-1
 79.2002 156 l 1,21,-1
 79.2002 168 l 1,22,-1
 702 973 l 1,23,-1
 101.7 973 l 1,24,-1
 101.7 1120 l 1,0,-1
EndSplineSet
EndChar
StartChar: uni0241
Encoding: 577 577 577
Width: 1111
Flags: W
Fore
591.3 602 m 2,0,-1
 556.2 602 l 1,1,-1
 556.2 0 l 1,2,-1
 374.4 0 l 1,3,-1
 374.4 768 l 1,4,-1
 591.3 768 l 2,5,6
 718.2 768 718.2 768 787.5 840.5 c 128,-1,7
 856.8 913 856.8 913 856.8 1048 c 0,8,9
 856.8 1184 856.8 1184 787.5 1255.5 c 128,-1,10
 718.2 1327 718.2 1327 591.3 1327 c 2,11,-1
 362.7 1327 l 2,12,13
 300.6 1327 300.6 1327 221.85 1306 c 128,-1,14
 143.1 1285 143.1 1285 72 1241 c 1,15,-1
 72 1423 l 1,16,17
 208.8 1493 208.8 1493 362.7 1493 c 2,18,-1
 591.3 1493 l 2,19,20
 810.9 1493 810.9 1493 929.7 1383 c 128,-1,21
 1048.5 1273 1048.5 1273 1048.5 1048 c 0,22,23
 1048.5 833.012 1048.5 833.012 929.196 717.506 c 128,-1,24
 809.885 602 809.885 602 591.3 602 c 2,0,-1
EndSplineSet
EndChar
StartChar: uni0242
Encoding: 578 578 578
Width: 882
Flags: W
Fore
272.7 422 m 1,0,-1
 362.7 422 l 2,1,2
 489.6 422 489.6 422 558.9 494.5 c 128,-1,3
 628.2 567 628.2 567 628.2 702 c 0,4,5
 628.2 843 628.2 843 559.8 908 c 0,6,7
 483.538 980.335 483.538 980.335 362.7 980.335 c 0,8,9
 297.24 980.335 297.24 980.335 219.6 959 c 0,10,11
 142.2 938 142.2 938 72 895 c 1,12,-1
 72 1077 l 1,13,14
 208.8 1147 208.8 1147 362.7 1147 c 0,15,16
 588.75 1147 588.75 1147 701.1 1037 c 0,17,18
 819.9 920.685 819.9 920.685 819.9 702 c 0,19,20
 819.9 489.037 819.9 489.037 724.444 374.519 c 128,-1,21
 628.987 260 628.987 260 454.5 260 c 1,22,-1
 454.5 0 l 1,23,-1
 272.7 0 l 1,24,-1
 272.7 422 l 1,0,-1
EndSplineSet
EndChar
StartChar: uni0243
Encoding: 579 579 579
Width: 1264
Flags: W
AnchorPoint: "above" 630 1520 basechar 0
AnchorPoint: "below" 630 0 basechar 0
Fore
362.7 713 m 1,0,-1
 362.7 512 l 1,1,-1
 675 512 l 1,2,-1
 675 368 l 1,3,-1
 362.7 368 l 1,4,-1
 362.7 166 l 1,5,-1
 654.3 166 l 2,6,7
 801 166 801 166 871.65 233.5 c 128,-1,8
 942.3 301 942.3 301 942.3 440 c 0,9,10
 942.3 580 942.3 580 871.65 646.5 c 128,-1,11
 801 713 801 713 654.3 713 c 2,12,-1
 362.7 713 l 1,0,-1
362.7 1327 m 1,13,-1
 362.7 877 l 1,14,-1
 631.8 877 l 2,15,16
 765 877 765 877 830.25 932.5 c 128,-1,17
 895.5 988 895.5 988 895.5 1102 c 0,18,19
 895.5 1215 895.5 1215 830.25 1271 c 128,-1,20
 765 1327 765 1327 631.8 1327 c 2,21,-1
 362.7 1327 l 1,13,-1
180.9 1493 m 1,22,-1
 645.3 1493 l 2,23,24
 853.2 1493 853.2 1493 965.7 1397 c 128,-1,25
 1078.2 1301 1078.2 1301 1078.2 1124 c 0,26,27
 1078.2 987 1078.2 987 1020.6 906 c 128,-1,28
 963 825 963 825 851.4 805 c 1,29,30
 985.5 773 985.5 773 1059.75 671.5 c 128,-1,31
 1134 570 1134 570 1134 418 c 0,32,33
 1134 218 1134 218 1011.6 109 c 128,-1,34
 889.2 0 889.2 0 663.3 0 c 2,35,-1
 180.9 0 l 1,36,-1
 180.9 368 l 1,37,-1
 9 368 l 1,38,-1
 9 512 l 1,39,-1
 180.9 512 l 1,40,-1
 180.9 1493 l 1,22,-1
EndSplineSet
EndChar
StartChar: uni0244
Encoding: 580 580 580
Width: 1349
Flags: W
AnchorPoint: "above" 675 1520 basechar 0
AnchorPoint: "below" 675 0 basechar 0
Fore
160.2 1493 m 1,0,-1
 342.9 1493 l 1,1,-1
 342.9 875 l 1,2,-1
 1006.2 875 l 1,3,-1
 1006.2 1493 l 1,4,-1
 1188.9 1493 l 1,5,-1
 1188.9 875 l 1,6,-1
 1337.4 875 l 1,7,-1
 1337.4 711 l 1,8,-1
 1188.9 711 l 1,9,-1
 1188.9 561 l 2,10,11
 1188.9 269 1188.9 269 1058.85 120 c 128,-1,12
 928.8 -29 928.8 -29 675 -29 c 0,13,14
 420.3 -29 420.3 -29 290.25 120 c 128,-1,15
 160.2 269 160.2 269 160.2 561 c 2,16,-1
 160.2 711 l 1,17,-1
 10.7998 711 l 1,18,-1
 10.7998 875 l 1,19,-1
 160.2 875 l 1,20,-1
 160.2 1493 l 1,0,-1
1006.2 711 m 1,21,-1
 342.9 711 l 1,22,-1
 342.9 586 l 2,23,24
 342.9 346 342.9 346 421.2 240.5 c 128,-1,25
 499.5 135 499.5 135 675 135 c 0,26,27
 849.6 135 849.6 135 927.9 240.5 c 128,-1,28
 1006.2 346 1006.2 346 1006.2 586 c 2,29,-1
 1006.2 711 l 1,21,-1
EndSplineSet
EndChar
StartChar: uni0246
Encoding: 582 582 582
Width: 1164
Flags: W
AnchorPoint: "below" 603 0 basechar 0
AnchorPoint: "above" 603 1520 basechar 0
Fore
856.8 1683 m 1,0,-1
 1009.8 1683 l 1,1,-1
 951.372 1493 l 1,2,-1
 1030.5 1493 l 1,3,-1
 1030.5 1323 l 1,4,-1
 899.09 1323 l 1,5,-1
 763.162 881 l 1,6,-1
 1002.6 881 l 1,7,-1
 1002.6 711 l 1,8,-1
 710.883 711 l 1,9,-1
 544.51 170 l 1,10,-1
 1046.7 170 l 1,11,-1
 1046.7 0 l 1,12,-1
 492.23 0 l 1,13,-1
 433.8 -190 l 1,14,-1
 280.8 -190 l 1,15,-1
 339.23 0 l 1,16,-1
 180.9 0 l 1,17,-1
 180.9 1493 l 1,18,-1
 798.369 1493 l 1,19,-1
 856.8 1683 l 1,0,-1
391.51 170 m 1,20,-1
 557.883 711 l 1,21,-1
 362.7 711 l 1,22,-1
 362.7 170 l 1,23,-1
 391.51 170 l 1,20,-1
610.162 881 m 1,24,-1
 746.09 1323 l 1,25,-1
 362.7 1323 l 1,26,-1
 362.7 881 l 1,27,-1
 610.162 881 l 1,24,-1
EndSplineSet
EndChar
StartChar: uni0247
Encoding: 583 583 583
Width: 1134
Flags: W
AnchorPoint: "below" 594 0 basechar 0
AnchorPoint: "above" 587.7 1147 basechar 0
Fore
870.3 660 m 1,0,1
 868.5 811 868.5 811 794.25 901 c 0,2,3
 781.213 916.803 781.213 916.803 766.69 929.832 c 1,4,-1
 666.832 659.655 l 1,5,-1
 870.3 660 l 1,0,1
1035.9 606 m 2,6,-1
 1035.9 516 l 1,7,-1
 613.738 516 l 1,8,-1
 480.29 154.941 l 1,9,10
 547.223 127 547.223 127 634.5 127 c 0,11,12
 729.9 127 729.9 127 819.45 153 c 128,-1,13
 909 179 909 179 997.2 231 c 1,14,-1
 997.2 57 l 1,15,16
 908.1 15 908.1 15 814.5 -7 c 128,-1,17
 720.9 -29 720.9 -29 624.6 -29 c 0,18,19
 513.961 -29 513.961 -29 424.438 3.82324 c 1,20,-1
 352.8 -190 l 1,21,-1
 199.8 -190 l 1,22,-1
 297.717 74.9248 l 1,23,24
 268.438 98.3271 268.438 98.3271 242.55 127 c 0,25,26
 101.7 283 101.7 283 101.7 549 c 0,27,28
 101.7 824 101.7 824 235.35 985.5 c 128,-1,29
 369 1147 369 1147 595.8 1147 c 0,30,31
 645.824 1147 645.824 1147 690.702 1138.2 c 1,32,-1
 754.2 1310 l 1,33,-1
 907.2 1310 l 1,34,-1
 824.244 1085.55 l 1,35,36
 876.11 1052.45 876.11 1052.45 917.55 1001.5 c 0,37,38
 1035.9 856 1035.9 856 1035.9 606 c 2,6,-1
513.737 659.396 m 1,39,-1
 635.45 988.707 l 1,40,41
 617.138 991 617.138 991 597.6 991 c 0,42,43
 459 991 459 991 375.75 904 c 128,-1,44
 292.5 817 292.5 817 279.9 659 c 1,45,-1
 513.737 659.396 l 1,39,-1
360.941 245.987 m 1,46,-1
 460.738 516 l 1,47,-1
 274.5 516 l 1,48,49
 284.286 343.844 284.286 343.844 360.941 245.987 c 1,46,-1
EndSplineSet
EndChar
StartChar: uni0248
Encoding: 584 584 584
Width: 543
Flags: W
AnchorPoint: "below" 271.8 -430 basechar 0
AnchorPoint: "above" 271.8 1520 basechar 0
Fore
534.6 631 m 1,0,-1
 362.7 631 l 1,1,-1
 362.7 104 l 2,2,3
 362.7 -166 362.7 -166 270.45 -288 c 128,-1,4
 178.2 -410 178.2 -410 -26.0996 -410 c 2,5,-1
 -95.4004 -410 l 1,6,-1
 -95.4004 -240 l 1,7,-1
 -38.7002 -240 l 2,8,9
 81.9004 -240 81.9004 -240 131.4 -165 c 128,-1,10
 180.9 -90 180.9 -90 180.9 104 c 2,11,-1
 180.9 631 l 1,12,-1
 9 631 l 1,13,-1
 9 797 l 1,14,-1
 180.9 797 l 1,15,-1
 180.9 1493 l 1,16,-1
 362.7 1493 l 1,17,-1
 362.7 797 l 1,18,-1
 534.6 797 l 1,19,-1
 534.6 631 l 1,0,-1
EndSplineSet
EndChar
StartChar: uni0249
Encoding: 585 585 585
Width: 512
Flags: W
AnchorPoint: "above" 258.3 1583 basechar 0
AnchorPoint: "below" 258.3 -430 basechar 0
Fore
173.7 1120 m 1,0,-1
 339.3 1120 l 1,1,-1
 339.3 616 l 1,2,-1
 486 616 l 1,3,-1
 486 452 l 1,4,-1
 339.3 452 l 1,5,-1
 339.3 -20 l 2,6,7
 339.3 -234 339.3 -234 265.95 -330 c 128,-1,8
 192.6 -426 192.6 -426 29.7002 -426 c 2,9,-1
 -33.2998 -426 l 1,10,-1
 -33.2998 -270 l 1,11,-1
 10.7998 -270 l 2,12,13
 105.3 -270 105.3 -270 139.5 -221.5 c 128,-1,14
 173.7 -173 173.7 -173 173.7 -20 c 2,15,-1
 173.7 452 l 1,16,-1
 10.7998 452 l 1,17,-1
 10.7998 616 l 1,18,-1
 173.7 616 l 1,19,-1
 173.7 1120 l 1,0,-1
173.7 1556 m 1,20,-1
 339.3 1556 l 1,21,-1
 339.3 1323 l 1,22,-1
 173.7 1323 l 1,23,-1
 173.7 1556 l 1,20,-1
EndSplineSet
Substitution2: "Single Substitution - Dotless Form" uni025F
EndChar
StartChar: uni024A
Encoding: 586 586 586
Width: 1440
Flags: W
AnchorPoint: "above" 726.3 1520 basechar 0
AnchorPoint: "below" 726.3 0 basechar 0
Fore
1082.7 1261 m 1,0,-1
 1082.7 1493 l 1,1,-1
 1259.1 1493 l 1,2,-1
 1259.1 104 l 2,3,4
 1259.1 -90 1259.1 -90 1308.6 -165 c 128,-1,5
 1358.1 -240 1358.1 -240 1478.7 -240 c 2,6,-1
 1540.8 -240 l 1,7,-1
 1540.8 -410 l 1,8,-1
 1471.5 -410 l 2,9,10
 1267.2 -410 1267.2 -410 1174.95 -288 c 128,-1,11
 1082.7 -166 1082.7 -166 1082.7 104 c 2,12,-1
 1082.7 231 l 1,13,14
 1013.4 99 1013.4 99 907.2 35 c 128,-1,15
 801 -29 801 -29 652.5 -29 c 0,16,17
 409.5 -29 409.5 -29 256.5 184.5 c 128,-1,18
 103.5 398 103.5 398 103.5 746 c 0,19,20
 103.5 1094 103.5 1094 256.5 1307.5 c 128,-1,21
 409.5 1521 409.5 1521 652.5 1521 c 0,22,23
 801 1521 801 1521 907.2 1457 c 128,-1,24
 1013.4 1393 1013.4 1393 1082.7 1261 c 1,0,-1
292.5 745 m 0,25,26
 292.5 460 292.5 460 397.8 297.5 c 128,-1,27
 503.1 135 503.1 135 686.7 135 c 0,28,29
 871.2 135 871.2 135 976.95 297.5 c 128,-1,30
 1082.7 460 1082.7 460 1082.7 745 c 0,31,32
 1082.7 1030 1082.7 1030 976.95 1192.5 c 128,-1,33
 871.2 1355 871.2 1355 686.7 1355 c 0,34,35
 503.1 1355 503.1 1355 397.8 1192.5 c 128,-1,36
 292.5 1030 292.5 1030 292.5 745 c 0,25,26
EndSplineSet
EndChar
StartChar: uni024B
Encoding: 587 587 587
Width: 1170
Flags: W
Fore
1209.6 -426 m 1,0,-1
 1146.6 -426 l 2,1,2
 983.7 -426 983.7 -426 910.35 -330 c 128,-1,3
 837 -234 837 -234 837 -20 c 2,4,-1
 837 168 l 1,5,6
 784.8 68 784.8 68 705.15 19.5 c 128,-1,7
 625.5 -29 625.5 -29 513.9 -29 c 0,8,9
 331.2 -29 331.2 -29 216.45 133 c 128,-1,10
 101.7 295 101.7 295 101.7 559 c 0,11,12
 101.7 823 101.7 823 216.45 985 c 128,-1,13
 331.2 1147 331.2 1147 513.9 1147 c 0,14,15
 625.5 1147 625.5 1147 705.15 1098.5 c 128,-1,16
 784.8 1050 784.8 1050 837 950 c 1,17,-1
 837 1120 l 1,18,-1
 1002.6 1120 l 1,19,-1
 1002.6 -20 l 2,20,21
 1002.6 -173 1002.6 -173 1036.8 -221.5 c 128,-1,22
 1071 -270 1071 -270 1165.5 -270 c 2,23,-1
 1209.6 -270 l 1,24,-1
 1209.6 -426 l 1,0,-1
272.7 559 m 0,25,26
 272.7 356 272.7 356 347.85 240.5 c 128,-1,27
 423 125 423 125 554.4 125 c 0,28,29
 685.8 125 685.8 125 761.4 240.5 c 128,-1,30
 837 356 837 356 837 559 c 0,31,32
 837 762 837 762 761.4 877.5 c 128,-1,33
 685.8 993 685.8 993 554.4 993 c 0,34,35
 423 993 423 993 347.85 877.5 c 128,-1,36
 272.7 762 272.7 762 272.7 559 c 0,25,26
EndSplineSet
EndChar
StartChar: uni024C
Encoding: 588 588 588
Width: 1280
Flags: W
AnchorPoint: "above" 573.3 1520 basechar 0
AnchorPoint: "below" 573.3 0 basechar 0
Fore
818.1 700 m 1,0,1
 876.6 678 876.6 678 931.95 606 c 128,-1,2
 987.3 534 987.3 534 1043.1 408 c 1,3,-1
 1227.6 0 l 1,4,-1
 1032.3 0 l 1,5,-1
 860.4 383 l 1,6,7
 793.8 533 793.8 533 731.25 582 c 128,-1,8
 668.7 631 668.7 631 560.7 631 c 2,9,-1
 362.7 631 l 1,10,-1
 362.7 0 l 1,11,-1
 180.9 0 l 9,12,-1
 180.9 631 l 17,13,-1
 9 631 l 1,14,-1
 9 797 l 1,15,-1
 180.9 797 l 9,16,-1
 180.9 1493 l 17,17,-1
 591.3 1493 l 2,18,19
 821.7 1493 821.7 1493 935.1 1386 c 128,-1,20
 1048.5 1279 1048.5 1279 1048.5 1063 c 0,21,22
 1048.5 922 1048.5 922 989.55 829 c 128,-1,23
 930.6 736 930.6 736 818.1 700 c 1,0,1
362.7 1327 m 1,24,-1
 362.7 797 l 1,25,-1
 591.3 797 l 2,26,27
 722.7 797 722.7 797 789.75 864.5 c 128,-1,28
 856.8 932 856.8 932 856.8 1063 c 0,29,30
 856.8 1194 856.8 1194 789.75 1260.5 c 128,-1,31
 722.7 1327 722.7 1327 591.3 1327 c 2,32,-1
 362.7 1327 l 1,24,-1
EndSplineSet
EndChar
StartChar: uni024D
Encoding: 589 589 589
Width: 757
Flags: W
AnchorPoint: "above" 481.5 1147 basechar 0
AnchorPoint: "below" 481.5 0 basechar 0
Fore
487.8 616 m 1,0,-1
 487.8 452 l 1,1,-1
 333.9 452 l 1,2,-1
 333.9 0 l 1,3,-1
 167.4 0 l 1,4,-1
 167.4 452 l 1,5,-1
 12.5996 452 l 1,6,-1
 12.5996 616 l 1,7,-1
 167.4 616 l 1,8,-1
 167.4 1120 l 1,9,-1
 333.9 1120 l 1,10,-1
 333.9 946 l 1,11,12
 386.1 1048 386.1 1048 469.8 1097.5 c 128,-1,13
 553.5 1147 553.5 1147 673.2 1147 c 0,14,15
 690.3 1147 690.3 1147 711 1144.5 c 128,-1,16
 731.7 1142 731.7 1142 756.9 1137 c 1,17,-1
 757.8 948 l 1,18,19
 729.9 966 729.9 966 697.05 974.5 c 128,-1,20
 664.2 983 664.2 983 624.6 983 c 0,21,22
 484.2 983 484.2 983 409.05 880 c 128,-1,23
 333.9 777 333.9 777 333.9 616 c 1,24,-1
 487.8 616 l 1,0,-1
EndSplineSet
EndChar
StartChar: uni024E
Encoding: 590 590 590
Width: 1125
Flags: W
AnchorPoint: "below" 563.4 0 basechar 0
AnchorPoint: "above" 563.4 1520 basechar 0
Fore
-3.59961 1493 m 1,0,-1
 191.7 1493 l 1,1,-1
 327.6 1269 l 1,2,-1
 799.2 1269 l 1,3,-1
 934.2 1493 l 1,4,-1
 1129.5 1493 l 1,5,-1
 993.6 1269 l 1,6,-1
 1134 1269 l 1,7,-1
 1134 1105 l 1,8,-1
 893.7 1105 l 1,9,-1
 654.3 711 l 1,10,-1
 654.3 0 l 1,11,-1
 471.6 0 l 1,12,-1
 471.6 711 l 1,13,-1
 232.2 1105 l 1,14,-1
 -9 1105 l 1,15,-1
 -9 1269 l 1,16,-1
 132.3 1269 l 1,17,-1
 -3.59961 1493 l 1,0,-1
700.2 1105 m 1,18,-1
 427.5 1105 l 1,19,-1
 564.3 879 l 1,20,-1
 700.2 1105 l 1,18,-1
EndSplineSet
EndChar
StartChar: uni024F
Encoding: 591 591 591
Width: 1090
Flags: W
AnchorPoint: "below" 547.2 -430 basechar 0
AnchorPoint: "above" 547.2 1147 basechar 0
Fore
593.1 -104 m 2,0,1
 522.9 -304 522.9 -304 456.3 -365 c 0,2,3
 389.7 -426 389.7 -426 278.1 -426 c 2,4,-1
 145.8 -426 l 1,5,-1
 145.8 -272 l 1,6,-1
 243 -272 l 2,7,8
 311.4 -272 311.4 -272 349.2 -236 c 0,9,10
 387 -200 387 -200 432.9 -66 c 2,11,-1
 462.6 18 l 1,12,-1
 278.1 516 l 1,13,-1
 9.90039 516 l 1,14,-1
 9.90039 659 l 1,15,-1
 225.9 659 l 1,16,-1
 54.9004 1120 l 1,17,-1
 230.4 1120 l 1,18,-1
 396 659 l 1,19,-1
 694.8 659 l 1,20,-1
 860.4 1120 l 1,21,-1
 1035.9 1120 l 1,22,-1
 869.4 659 l 1,23,-1
 1084.5 659 l 1,24,-1
 1084.5 516 l 1,25,-1
 817.2 516 l 1,26,-1
 593.1 -104 l 2,0,1
643.5 516 m 1,27,-1
 447.3 516 l 1,28,-1
 545.4 244 l 1,29,-1
 643.5 516 l 1,27,-1
EndSplineSet
EndChar
